<svg xmlns="http://www.w3.org/2000/svg" id="Camada_2" data-name="Camada 2" viewBox="0 0 1054.95 286.45"><defs><style>.cls-1{fill:#214179}</style></defs><path d="M.48 41.82h17.19a22.45 22.45 0 0 1 22.46 22.46v137.78h19.49v36.08H22.46A22.46 22.46 0 0 1 0 215.68V62.89c0-11.26.48-10.18.48-21.07ZM205 162.5c0 52.55-23.39 79.11-69.58 79.11s-69.31-26.56-69.31-79.11c0-53.12 23.09-79.4 69.29-79.4s69.6 26.28 69.6 79.4Zm-99.9 0c.29 29.74 10.4 44.75 30 44.75s29.45-15.59 29.74-45.9c0-29.74-9.82-44.47-29.45-44.47-20.2 0-30.31 15.31-30.31 45.62ZM257.25 60.58v84.6L304.6 90.9h46.19L298 147.49l53.42 90.65h-46.2L278 187.91q-7.36-13-14.72-13c-4 .86-6.06 3.46-6.06 7.5v55.72h-38.4V41.82h19.92c10.13 0 18.51 8.66 18.51 18.76Z" class="cls-1"/><path d="M417.33 210.43c16.17 0 24.26-4.62 24.26-14.44 0-7.79-13.29-14.15-39.56-18.77-33.78-6.06-51.1-21.07-51.39-45 0-32.92 26-48.51 60.92-49.09q29.44 0 46.77 13 16.89 13.43 18.19 37.24h-24.25c-8.95-.29-14.73-3.46-17-9.53-2.6-6.64-10.39-10.39-23.09-10.39-15 0-22.52 4-22.52 11.84s9.81 13.86 29.73 17.61c26 5.19 43 11.83 51.4 19.63a38 38 0 0 1 10.68 27.14c0 37.53-29.45 51.39-69.87 51.39-21.37 0-37.54-4.62-47.93-13.57-11.55-8.66-17.32-21.94-17.32-39.55h39.27c.82 16.71 12.95 22.49 31.71 22.49Zm111.3-85.17h-38.41C494.84 97 514.77 83.1 550 83.1c42.15 0 63.52 13.86 64.38 42.16v52c0 42.16-25.4 60.92-66.69 63.81-36.67 2.89-62.08-14.14-62.08-47.92.87-36.67 27.43-46.49 66.12-50.24 16.46-2 24.83-6.93 24.83-15.3-.87-8.67-8.95-13-24.83-13-13.58-.04-21.08 3.39-23.1 10.65Zm48.5 50.23v-14.14a166.4 166.4 0 0 1-30.61 9.24c-15.3 2.88-23.09 10.1-23.09 21.36.86 12.13 7.22 17.9 19.34 17.9 21.37 0 34.36-12.7 34.36-34.36Zm99.32-62.65h-4v84.6c0 6.35 3.75 9.81 11.26 9.81h11.84v29.16a210 210 0 0 1-40.42-.29c-14.44-1.44-21.37-10.39-21.08-27.43V41.82h19.92c10.11 0 18.48 9.24 18.48 19.34v24.25h23.1v8.37a18.68 18.68 0 0 1-19.1 19.06Z" class="cls-1"/><path d="M664.75 0h390.2L777.1 286.45V162.22l68.81-69.32H745.27L664.75 0z" style="fill:#63c2ce"/><path d="M313.54 259.07c3.08 0 5 .38 6.68 1.48a7 7 0 0 1 3 6 6.94 6.94 0 0 1-5.62 7.06l7.9 10.83h-4.67L313.58 274h-.69v10.4H309v-25.33Zm-.65 11.62h1.22c1.06 0 5.39-.12 5.39-4.14 0-3.57-3.38-3.91-5.28-3.91h-1.33Zm42.67 7.59h-10.82L342 284.4h-4.18l12.61-26.82 12 26.82h-4.18Zm-1.56-3.64-3.76-8.59-3.91 8.59Zm33.15-9.95a3.92 3.92 0 0 0-3.88-2.51c-2.35 0-3.56 1.41-3.56 3 0 .76.26 2.09 2.73 3.08l2.54 1c4.68 1.9 6 4.56 6 7.44a7.8 7.8 0 0 1-8.16 8.13 7.39 7.39 0 0 1-6-2.55 8.13 8.13 0 0 1-2.13-4.93l3.84-.84a5.45 5.45 0 0 0 1.06 3.23 4 4 0 0 0 3.3 1.52 4.07 4.07 0 0 0 4.18-4.25c0-2.59-2-3.65-3.64-4.33l-2.43-1c-2.09-.87-5.17-2.62-5.17-6.42 0-3.41 2.66-6.68 7.41-6.68a7.51 7.51 0 0 1 5.09 1.71 8.7 8.7 0 0 1 1.93 2.54Zm26.3-1.98v21.69h-3.87v-21.69h-5.81v-3.64h15.49v3.64Zm25.13-3.64c3.08 0 5.05.38 6.68 1.48a7 7 0 0 1 3 6 6.94 6.94 0 0 1-5.61 7.06l7.89 10.83h-4.67L438.62 274h-.68v10.4h-3.88v-25.33Zm-.64 11.62h1.21c1.06 0 5.39-.12 5.39-4.14 0-3.57-3.38-3.91-5.27-3.91h-1.33Zm41.76-7.98h-10.11v6.42h9.8v3.64h-9.8v8h10.11v3.65h-14v-25.35h14Zm31.3 15.57h-10.85l-2.77 6.12h-4.18l12.61-26.82 12 26.82h-4.18Zm-1.56-3.64-3.76-8.59-3.91 8.59Zm22.18 9.76 5.31-27.23 8.82 19.67 8.88-19.67 4.79 27.23h-3.95l-2.58-15.27-7.37 16.44-7.29-16.48-2.66 15.31Zm58.46-21.69H580v6.42h9.8v3.64H580v8h10.1v3.65h-14v-25.35h14Zm16.4 21.69v-27l18.38 19.25v-17.58h3.87V286l-18.38-19.3v17.7Zm46.73-21.69v21.69h-3.87v-21.69h-5.82v-3.64H659v3.64Zm44.99 9.04a13.18 13.18 0 1 1-13.2-13.14 12.85 12.85 0 0 1 13.2 13.14Zm-3.87 0c0-5.62-3.88-9.57-9.31-9.57s-9.3 3.95-9.3 9.57 3.87 9.57 9.3 9.57 9.31-3.95 9.31-9.57Z" style="fill:#333"/></svg>