<svg xmlns="http://www.w3.org/2000/svg" xml:space="preserve" style="enable-background:new 0 0 785.3 821.2" viewBox="0 0 785.3 821.2"><style>.st0{fill:#dbddde}.st1{fill:#60cdd4}.st3{fill:#233479}</style><g id="Camada_1"><path d="m517.7 426.7-.1-.4.5-1 1.2-2.7-.9-.8v-.2l.1-.4h5.9l5.1.2.6.5.4.2v1l.1.1-.1.2-.5.6-.3 1.5v1.2zM742 266.1l-.5-.1v-2.4l-.3-.9-.8-1.6.5-1v-1.9l-.4-.8h.1l.4-.2 1.6-.6.3-.2.6-.3.9-1.8v-2.1l-.4-.4v-.2l-.1-.1v-.9l-1.1-1.1-.9-.9h-.2l-.5-.5-.9.3-.4-.2-1.5-1.1-.7-.5-1.1-.4h-1.5l-.6.4-1 .2h-.5l-1 .9h-.1l-.7.3-.2.1h-.6l-1.9 1.9v.6l-.3.2-.1.3-.2.1-2.6 1.1-1.3 1.2-.2.5-1.1.3-.9.5-1.1 1-.1.2h-1.9l-.3.3h-1.3l-.2.1-.7-.7-2.4-1.2-1.8 1.1h-.7l-.1-.2.3-1 .3-.3.3-.6.3-.6.3-.5.4-.7.3-1v-1.4l-.2-.7v-.6l-.9-1.7-1.4-.7-.2-.2v-.3l-.2-.6-.3-1-.3-.7.7-.7.4-1 .1-.1.6-1.3v-1.6l-.4-.8.7-2.2 1 .5 1 1h.1l.9 1 1.7-1.1 1.3.4h1.9l.7-.6 1.8.7 1-2.7 1.1-.6 1.6-1 2-1.9.2-.9.3-.6v-.1l.7-.3h.1l.8-.1 1.2-.5h.2l.1.1-.5.6-.4.6-.4.7-.3 1.4h-.1l-1.2.7-.9 1.7v.7l-.2 1.1v1.6l.7 1.5 1.4 1.3h1.3l1.2.3h1.1l.5 1.1 1.5 1.4h2.2l1.2-.6.4-.3 1.5-.4.6-.2h1.6v1.4l.5 1 .6.9 1.2.9 1.2.4h1.9l1-.9h.7l.9-.3 1.3-.6.5-.9.5-.7.2-.5.4-.8.1-.4.4-.8v-1.6l1.2-.6v-2.6l-.3-.8 3 .5 1.3.3h1.1l1 .3 1.3.1 2.3-.2.8-.2 1.8-.1.4-.2 1.5.4 1.4.1.1.1 2.1 1 1.9.3h.9l1-.3h.4l1.5.2h.2l.1.1.2.5.1.5.1.1v1l.2.8 1.8-.2-1.8.2.5 2.1.5.8v1.1l-.7 1.7-1.5 3h-.3l-.1.1-1.5-.4h-1.4l-.2.1h-.2l-1.5.8-.3.3-.4.3h-2.4l-1 .9-.5.4-.4.9-.2.7-.3 1.3-.1.6h-.1l-.4.3h-.7l-.6.2-.7.3h-2.9l-1 .9-.4.3-.2-.2h-.1l-.1-.1h-2.1l-.2.1h-.5l-.2.1-1.5-.7-1.1 1.3h-.6l-1.8.2-1.3.4-1.6 1.6v.1l-1.4.3-.7.7-.6.3-.5.5-1.2 1.4-.3.3v1.6l-.5.2-.2.8h-.9l-1 .5-.3.2zM656.1 537l-.3-.3-1.7-.4-1.6-.3-.3.1-1-.3h-.2l-.1-.1h-.5l-.1-.1-.9-.2-.1-.1v-1.1l-.1-.4v-3.3l-.4-.2v-2h-1.4v-1.7l.3-.3v-1.9l-.2-.6.8-2.7h5.1l.7-.5.6-.2.7-.6.4-.5 1-2.3v-.7l.5-1.6.1-.3.5-.3.6-.7.2-.1 1.2-1.2.2-2.5v-.4l.2-1.1.8-.3.1-.5.2-.2.2-.1.9-1.1.3-.6h.1l.9-.9.1-.2.7-.7v-1.8l.5-.5v-1.8l.1-.6v-1.7l-.1-.1v-1.9h-.2l-.2-1.2-.6-.7-.2-.4-.7-.6v-1l.8-.8 1.2-1.1v-.7l.2-.4v-1.3l-.3-2.1v-.4l-.1-.1v-.1l-.9-1-.6-.6.1-.9v-.3l.2-.7-.3-1.2v-.6l-1-1.3-.4-.4.3-.3.1-.1.8.4h3.2l1.9-1.8V473l.6-.3.6-.3.1-.1.3.2h2.7l.2-.1.4.4h1l.1.1h.1l.3.3.1.1 9.1 5.9-.6 2.3-.4 3.8.1 5 .4 4.1.4 3.1v2.4l-.1.3-1.4 3.5-2.2 1.1-1.4 1.1-1 .7-1.2 3.1-.2.1-5.9 5.9h2l-7.3 1.1 5.1 3.4v2.3h.5l.1.3.2.1v.2l-.4.6-2 2-.8 1.4-.7.6-.1.2h-.1l-1.3.7-.1.1-.1.1-.7.2-1.2.8-.7 1.1-.2.2-.2.5-.6.6-.3 1.9v.2l-.7 1.7-.6.9-.3-.2h-1.7l-1.4.3zM411.2 820.9v-.2l.5-4.1-.5-3.9v-1l.3-.9v-.1l.3-.3 2.3-1.6 1.3-.8.4-1.8v-.3l1.1-.8.8-.8.3-.4.9-.8.6-1.2.4-1.8-.9-1.8-1.8-2-.8-.5-.7-.3-1.1-.8h-.8l-.8-.4-.6-.2-.9-1-1.4-.9-.1-.2-.1-.2-.3-.6-.6-.8-.1-.1-.1-.6-.2-1.3-.6-1.2-1-1.6-.2-.5v-.7l-.6-1.7-1.6-1.1-1-.2-.1-.3-.6-1-1.4-1-.5-.2v-.1l-1-.5-.3-.3-1.5-.7h-1.5l-.4.1-1-.7-1.1-1.1-.6-.7-.9-.9-.4-.3v-.5l-.3-1.2-.8-1.1-.5-.5-.8-.8-.3-.7-1.2-1.2-1.4-.5h-1l-2.6-.4-.8-.8-.8-.4-.1-.1-.3-.5-.4-.6-1.6-2.2-2.6.9-.6-.2-.3-1.1-.9-.9-.2-.1v-.1l-.3-1-.7-1.2-1.7-1.8-.8-.9-.5-.7-.9-.6-.4-.2-.9-1-2.1-.5-1.9.5-1.5 1.5-.2.7-.7.2-.3.5-.2-1.5-.8-1.8-1.6-1.2-.6-1-.3-.6-.7-.7-.1-.1-.1-.4-1.1-1.2-.8-.8-.8-.5-1.2-1-.7-.4-.6-.9-.8-.8-1.2-.8-.1-.1-.4-.4-.1-.3-1-1-.2-.1-.4-.8-.9-.9-.8-.5-.6-.3-.6-.5-.5-.7-1.9-1.4h-2.3l-1.2-.3-1 .3-1 .1H336l-1 .6.2-2.4h.9l1.6-.4 1-1 1.9-2 .2-.5.7-.8.3-.7 1-1 .2-.3 1.6-1.5.4-.7.2-.1.6-1.1.2-.1.5-.5.8-.6.6-1.3.3-1.1.6-1.4-.1-.3.2-.2.4-.3.2-.1 1.5-.3 1.3-.9 1.1-1.8v-1.1l1-.6 1.3-2 .1-1 1.3-.8 1.7-2.3 1.4-.9 1.2-1.8v-.3h.3l.6-.6.2-.1 1-1 1.8.9 1.9-1.9.6-.9.3-.8.6-2.3-.4-.8h1.2l.7-1.5 1.9-.8.4-.9.9-1 .3-.5.9-.3.1-.4.4-.2.7-.5 3.1.6.2-1.3h2.1v-2.4l.6-.5.9-.5.7-1.5.2-1v-.1l.9-.4.1-.3.5.1.8-.4.6.3 1.6-1.6h.5l2.2-.7.2-.1h1.8l.6-.6h.9l.6-.6.9-.4.2-.7 1.5-1.5 1.1-.1 1.6-2 2-.5.3.3h.7l.2 1.5 4.5-1.1.1-.1-.1.1h6.1l.6-.4h1.5l.5-.3 1.3 1.3h1.9l.7-.3.5-.3.3-.1.6.3.5.5.7 2.2 1-.5.5.5.7-1 .9-.5.7.2.8-.4.7.2h.4l2.7 4.1 1-3.1.2-.1 1.3.9-1 .7 5.5 1.8.4.8v.1l.1.2 4.1 1 .2-.4h.5l.4.4.7-.4h.7l.9.9h.1l.6.6 1.1-.3 3.1 3.1.2-.2.2.2.3.1.7.7 1.3.6h.4l.1.1.6.2.2.2.3.4.9 1.6 1.8 1.8v1.9l.9.3.2.3 2.1 2.1.2-.1.3.5.8.8.2.1.1.2.8 1v1.1l2.1 1.1.4.1 1.8 1.4 1.1-.5.4.2h.8l1.3 1.7 1.8-1.2h.3l1.3.9h3.4v-.1h.6l-1.2 1.2v.1l-.1.1v.8l-.5.5v.1l-.1.1v1l-.2.9v1.1l.2 1.7-.2.5h-.2l-1 .9-.5.5-.4.8h-.8l-1.2 2.5v1.3l.1.3-.1.6v1.3l.6 1.3.9.9.9.5.5.1 1.1 1.1h2l.6-.2-1.5 2.3-1.2 2.8-1.1 1.3-3.4 9.5-.9 2.7v-.7l-.5-2.1-1.1-.5-.2-.5-1.4-1.4h-2.5l-1.4.7-.8 1-.9.9-.6.4-.8-.4v-.1l-.5-.2-.1-.5-2.9-.6v-.2l-.4-.6v-5.6l-2.3 1.2-.8-.8-3.8 1.9v1.5l-1.1 1.1.7 1.5-.2.4v1l-2.9 4.4h4l.7.9-.3.6-.7 2.1-.1.3-1.6.8-.5 2.1v3.2l-.6.3-.8 1.2-.4 1-.3 1.7.1.8-2 1-1 2-.1.3h-.8l-1.2.5-1.1.5h-1l-.9.9-1.6.8v1.5l-.2.2-.4 1.1-.2 1.1v.5l-.4.2-1.4 1.4v1.8l.1.4-.9.3-1.4 1.5-.1.8h-.7v4.2l.4.7-.4.7v1.2l-.1.3-4.9 3 4 .8-.2.9 1.9-.3-.3.5-2.7 5.7-1.4 4.7-.6 2.6-2.8 6.8-.3.6-1.8 2.4-1.3 1.5-2 1.9-3.5 3-2.2 2.3-1.1 1.1-.2.1-.6-.1zm-78.6-81.8.3-.2-.3.2zM241.1 124.4h-.9l-.1-.2-.2-.4-1-.9-1.1-.6-1.2-.9-.9-.5-.6-.9-1.2-.8-.7-.3-.5-.4.1-.1.5-.6.7-.9.7-1.3v-1.2l-.5-3-.1-.1v-.6l-.7-.4v-.9l-.2-.9-.4-1.2-.8-1.4-1.2-1.1-.3-.1-.2-.8-.4-1-.3-.3.6-1.7v-1.2l-.4-1.3-.4-.4v-.1l.2-.3.6-1.2v-1.5l.1-.1.6-1.2.2-1.2v-.9l-.2-.9-.6-1.6.2-.1 1.3-1.7v-1.9l-.4-1.2-.9-1.9-.1-1.6-.3-1.1-.4-.7v-.2l-.1-.2V78l-1.2-3.6v-.9l-.7-1.5-.9-.9-.4-.3-.4-.3-.4-.2-.1-.1v-.1l.9-1.8v-1.1l-.2-1.1.6-.8v-.7l.3-1-.6-1.3-.5-1.6-1.1-.3-.2-.3-1.1-.3-1.1-.6-1.2-.5h-1.4l-.4-.1H218.1l-.1-.2v-.3l-.9-1.7-1.7-.9h-2l-.3.1v-.2l.3-.8v-1.3l-.9-1.7-1.8-1-3-.1-1.4-.2h-2.9l-1.3.1h-.8l-1-.2.1-.3V49l.2-.5V47l-.5-1.1-.4-.9-.1-.4-.9-1.7-.5-.8-.1-.5-.9-1.1-.1-.1-.5-.9-.2-.4-.4-.5.2-1.8-.1-.7v-.4l-.3-1.2-.1-.7.4-.5.3-.9.2-.7v-2.2l-1.3-2-1-.8-1-1.2-.5-.5-.4-.2-.5-.6-1-.2-.1-.1-.7-.4-.6-.5h.7l.1.1h2.6l.1.5.6 1.6 2 1.9h.3l1.5.5 2-.4.1-.1h.3l.9-.8.3-.3.7.2h1.3l.9-.1 1 .8 1.2.5.8.4h1.5l1.2-.4 1.2-.8.9 1.2 1.2.9 1.8 2.1.2.4v.8l1.4.7.6.5 1.7.6h2.3l1.3-.6.3-.4h.2l1.6-.8.9-1.4.4-.2.5-2.1v-1.2l-.2-.4v-1l-.4-1.2v-.1h4l.1-2.3.2-.5.1.1.9.4h.6l.2.1.4.1.1.1.7.6h1l.4.2h2.2l.8-.8h.7l.3-.4.3.1h1.1l1.2-.4h.8l.1-.1h.7l.7-.7.3.3 1.1-1.2h1.6l.3-.2h.6l1.4-.5.3-.2.6-.3.1-.2.2-.1 1-2h1.1l1.4-.8h.2l.1-.1h.1l.3-.3.2.1 3.2-.8v-.1h.1l.7.3 2-1 .4-.5h.7l1.2-2.5v-.7h.2l.5-.4h.4l1.5-.7.7-.8.1-.1h.1l.8-.8 1-1.2.1-.1.6-.9.1-.1.9-.9V2l-.3-1h.7l.8-.4h1.8l.9-.6.6.6.3-.1.3.4.7.5v.4l-.2.2-.2 1.5v.9l-.4 1.1.1.9-.5.6-.5.6-1.3 1-.5 2.1.5 2 1.1 1.1 1.1.7.1.3H277.7v.5l1 .1.5.5.6-.3h.1l-2.6 3.4h3.3l.8 1.3.5.4.5 1.3.8.9v.7h.1l-.1.3-.3.1-.9 1.3-.3.9-.2.2-2 .7-1.7 2v2.7l.5.7v1.6l-.1.3-.3.6-.3.5-.1.3-.8.4v1.4l-1.3 1.3.7.7-.3.7-.2 1.2.1 1-.5 1.9-.1 3.6v1.3l.4.8-.2.8 1.2 1.2v.3l.4.9h-.1V55l.3.8.5 1 1.2.9.6.3.8.7v.8l-.4 1.3.4.9v.5l-.4.8v1.7l.3 1.7 1.4 1.4v.5l1.8 1.8 1.3.6h1l.6.8.6.5.4.7 1.5 1.4h.1l.4.4v.1l.1.1h.1l.4.3.3.8 1 1 .9.6 1.9.5 2.1.4 1.5 16.5-14.9-.1-5.6.2-1.6.7L274 97v.1l-.1.1-1 .9-.6 1.3v.8l-.1.3-.9.9-1 2-.1.8-.2.3-.5.4-.7 1.5v1l-.1.2v.2l-.7 1.5-.1.3-.5.5v.9l-.3 1.1v1.2l.3.6.1.4.1.2-.6.2-1 .9-.2.4-.1.2h-.5l-.8-1.2-.3-.7-1-.8-.6-.6-.3-.2-.1-.2-.6-1.2-1.2-.7-1-.3H258.1l-.9-.9h-.5l-.4-.2h-1.4l-.7.1h-1.8l-1.7 1.7-.1.2-.4.2-.9.2-3 1.5-.4.6-.1.1-.3.6-.8.8-.5 1.1-.2 1.2-.1.9-.5.8-.2 1.2v1.4l.2.8-.1.1V124.9l-.2.8-.3.8-.2-.1-.6.2zM456.1 297.6l-2.6-.1-76.3-4.6-27.7-2-.2-.1-.8-.7-1-.3-.5-.1-.7-.4-1.4-.5-.3-.5-.9-.9-1.2-.6-1.8-.4-.4-.1-.3-.1-.3-1.4-.8-1.7-1.2-.6-1-.4-.3-.3-1.1-.6-1.3-.5-.1-.4-1.2-1.2-1-.6-.1-.1-.9-.9-1.3-.6-.1-.3-.7-1.3v-.3l-.2-.7v-1.4l-.4-.4v-1.3l.3-.5v-.7l.5-1.1-.6-1.9-.6-.9-.8-.8-.3-.9-.6-.6-.6-.7-.1-.4-.4-.9v-1.1l-.8-1.6-.2-.6-.4-1.9-.9-1.3-.2-.2-.2-.8-.7-1.3-1.9-3-1.7-1.5v-.6l-.3-1.6-.3-.8-.9-1.7-.8-.6-.4-.3-1.2-1.3-.6-.5-.6-.4-.1-.1-.1-.2-.2-.3-.4-1.3v-.3l1.5-1.3.5-.5 1.1-1.8 31.1-67.1 7.6-16.5.1-.9.1-.5.1-.1 1.2-1.2v-5.2l-3.8.9-1.4-1.3h-.1l-.1-.1h-2.2l-.6.3-.3.1v-.3l-.6-1.3-.9-.9-1.4-.5h-1l-.9-.7-.8-.4-.7-.2-.6-.6-.3-1-1.5-1.4-.8-.2-.7-.5h-.1v-1.4h-4.1l-.3.2-.8-.2-.5-.2-.4-.3-.6-.2-.5-.3-.8-.5-1.2-.4-.2-.6-2-1-.3-.3-.7-.7-1-.6-1.3-.3-.3-.3-.6-.6-.8-.5-.6-.3-.8-.4-.7-1.1-1.4-.7-.6-.9-.8-.8-1.3-.6h-.5l-.4-.4v-.6l-.2-.7-.5-2-.7-1-.9-.9-.7-.2-.7-.6-1-1h-1.5l-.5-.4-.1-.2.1-.5v-.8l.5-1.6-1.3-2.6-.7-.3-.3-.3-.7-.3.1-1.8v-.6l.2-.3v-1.3l-.4-6.3-1.5-16.1.9-.2 1.1-.4 1.1-.8.3-.4.6.1.9.9 2.8-1.4 1.1-1.7.7-1.5-.1-.7 1.9-1 .4.4 1.6.3 1.6.2 2.3-.6 1-1.3.7-1.1.4-.1.8-.6 1-.4h.2l1.7.3h1.3l1.9-.6 1.4-.9 1.8-2.3.4-.8.2-.4h.1l.3-.2 1.6.4 1.3-.8.4.4 1.2.6 1 .3h.9l1 .5 2.2.3h1.2l1.1-.6.1-.1.7.2.5-.3.3.2h2.2l.8-.5.7.2h1.2l.4.3.8.2.8.3 1-.1.6.2 1.5.6 2.2.4 2.8-.8 1.9-1.9.3-2.2-.1-1v-.2l.1-.2v-2l-.9-1.4-.8-.7-.9-1.2-.3-.1-.1-.3.5-.8.5.1.9.9 1.9.5 2.7-.7.1-.1 1.6-.1h.4l.8.1h1.4l2-.7.5-.7h1l.7-.5h1.6l.8-.4.2-.1 1.7 1.7 1.6.5-.5.5-.5.9-.3 1.1v1.9l-.2.4v2.1l.7.7v1l.1.4.1 1.6.5 1.1 1.2 1.8h1l.1.1h3.3l.1-.1h.2l1.7 1.7 1.4-1.4h.8l.3.2.7.7h.1l.3.3h.1l.1.1h.1l1.5.2.1.1v.3l.1.2v1.2l2.5 1.2h1.2l.4.7h.4l.1.1v1.6h4v.4h2.2v.5l1.6 1.6.2.9-.9.9 1.5 1.5.3 1 .4.8.3.3.5.7.5.3.1.2 1.4 1.9.9.4.5.3 1.1.4-.1.3v.4l-.2.6v1.7l.2.4v1.7l.3.9 1 2.1.3.7.4.4.1.6.3.7-.5 2.1.8.8.6 1.3.3.2.7 2.3.5 1.5 2.1 1.1h1.4l.8.8.5 1 .5.5-.1.6v1.9l.3.7.5 1.3.2.2.7 1.4h.6v2.8l.1.2v2.4h2.7l.1.2v.4l.6 1.6 1.1 1.1.7.2.3.4.5.5-.5.3-1.3.3-1.6.8-.9.9-.1.1-.4.1-1.2.1-1.6.5-1.5.5-.4.9-.6.6v4.9h3.9l.3-.2.5-.1 1-.2 3.3-.2v1.2l3.2 2.1 1.4-.9h2.5v-1.4h.6l.2-.2.5.1.8-.4 1-.2 1.4-.8 4.5-3.1 1.3-.3 1-.5 1.8-.6.7-.5.7-.4.5-.5.7-.2.8-.3.9-.5 1.2-1.2.6-1 .1-.1.3-.2.2-.1 2 1.3V130.9l.1.1-2.3-1.3 3 5.9-.7-.3-1.1 3.1-1.3 2.7 2 1 .4.7.3.7 1.4.7 3.1 1-2.4 5.8 7-4.7 4.2 2.8.8-3.9.9-.6v-.9l3.4 2.5-.3 1.2h5.9l.4-.7.4 1.2.9-1.3.5 2.7-.4.5v1.8l.1.5-.1.2h-.1l-1.1.8-.6.6-2.8 3.7 4.8 1.9 2.1-.2 2.2-.9 1.3-1 .2-.4h1.2l.1-2.2.7-1 .3-1.4v-1.1l1.8-3.1.6-1.4.1-1 .1-.6 1-2 .2-.3.2-.2.2-.1h1.6l1.1-.4 1.6-1.1v-.1l.7-.4.9-1.5 1.2-1.2.2-.1v-.1l.1-.1-.1-.1.8-.8v-.6l.1-.1.9 1.4h.4l1 .7 2.9 5.8 2.6-7.6v-.8l.2-.1 3.2-3.2 2.7 1.8-2.3-6.9 3.9-1.9-2.7-1.4v-.2l.3-.3v-.7l.4-.4v-.7h2.7l.3-.9.2.4h2l-.1.2h.9l2.9 1.4-.5-1.4h1.4l.2.1-.3 1 1.1-.5.5.4.4.8.2-.4 3.2 2.1v-2.6l2.5 7.5.8-3.2.1-.1.3.6.8-1.7 1.2-1.2.8.3v.8l.9-.5.2.1.2.2.1-.1 1 .3v-1h2l-2.7 2.7h7.2l-.7 1.4.8-.3v4.4l3.2-3.2v.4l.2.6-.1.3-.5.6-.4 1.7.2 1.4-.3.5v.1l-.2.1h-.9l-1.4 2.8.4 1.9.7 2.7h.9l-.5 1.2-.4 1.5-.1.1h-.3l-2.8.9v1.2l-5.4 3.6h4.9v1.3l-.1.2-1.2-1.2-1.6 4.1-1 .8-.6 2.6.8 1.3-.4 1.8.2 1-.1.3-.1.7-1.6.5v1h-.8v1.9l-.1.3-.7.4-.4.4h-1.9v2l-.4.8v.2l-.4.1v.7l-.1.2-1.1.6-.1 2.5-.2.2v2.1l-.3 1.9-.8.5-.9.9-.8-.8-2.2 3.3h-4l2.7 3.6-.7.7-.4.5-.3.3-.6 1.3v.2l-.2.3v.1l-.1.1-.5.5-.1.3-.9.9v.1h-1.4l-.2.1-1.1-.4-10.4 8.2-9.8 7.9-1.2 1.2v3.6l2.3.7.8.2h.2l.8.5 1.3.3 1.4.5 1.2-.4.8-.1.3.6.8 1-1 1.9.2 2.3.2.6-.6.4-.5 2.1.1.4-.3.1-1.1 1.6-.4 1.2.1 1.3-1.1.8-.8.8-1.8.9v1.2l-.9 1.1-.5 2.1-1.3.6-.1.1-.7.1-3 .9-1.1.8-3.3 2.1-1.2 1.6-.3 2.3.8 2.6.1 2-.2.5-3.4 4.1-.2 1-.3.8v2.1l.6 1.8 1.1 1.4 1.2 1 1.6 1.1-.2.6-.2.9v.6l-.1.1-.6 1.3v.8l-1.3 4-1.2 1-.7 1.3-.5 1.5-.4.6-.3.3-1.9 3.5.1.1-.3.4-.5.1-1.1.6-1.6 1.3-.4.5-.4.4-.3.6-.3.3-.5.9v.1l-.6.7-1.2 1.8-.2.2-.5.4-1 1-.1.5-.3.3-.7 1-.3.7-.2.8-.1.5-.1.1-.7 2.2-.1 1.7-.3.7-.3.8v.1l-1.1.5v.8l-16.8-.6zM482 146.4l1.6-1 .1.3-1.4.9-.3-.2zm-2.9-4.2.3-.1h.1l-.4.7-.1.3.1-.9zM467 131.5v-.2l-.3-.7v-1.8l4.3 2.3v1.6h-1.4l.4 1.6-3-2.8zm10.2 1.2-.2-.6-.2-.5.3 1.1h-.2l-1.6-.8h-.1l-3.6-5.9.3-.3v-2.5l-.9-1-.1-.1.3-1.4-.7-.3-1.1-.3h-1.6l-.2-.9h1.9l1.9-1.9v-2.6l-.6-.6-.5-1-2.2-.6-.1-.3.3-.8v-.3l.5-.5v-1l.3-.1.2-.2h.3l.7-.5h1.8l1.5-1 3.1.3 1.6.7.9-.1 3.6.8 3.2.9 3.5-.1.4-.1 4.9 2.5v-4l.4-.2.5.2h.4l.4.3 1.4-.2h.3l.6.6v1.1l4-.7h.3l2.1.6h1.2l.7-.2 1 .3h.1l-.4.6-.4 1.3v1.3l-.4.7v.3l-1.5 1.5.6.6-.7.4.3 1v.1l-.2.4.1.3-1 .8h-1.4v1l-.1.1.1.2v1.9h-.1l-2.5-3.1-2.9 5.7.2.5-1.9.8-.6-.6-1.3 1.3-1.3.5-1.2-2.3-1.6 3.3-.9.5-3.7-1.9-1.3-4-.7 2.9-1.3-.6.9 1.9-.9 3.5h-.4l.3.3-.3 1.2h-4.5zm21.9-3.7-.8-.8-.1-.6.2-.2.8 2-.1-.4zm57.1-5.6.7-.5v.1l-.2.1-.3.3h-.2zm-107.8-1.3v-1.2l.9-.9.6-1.4h1.9l-.3 1.3-1.1.4-1.4 2.7-.6-.9zm31.5-22.5.2-.2.5.2h.2l-.1.3-.5.1-.3-.4zM102.5 322.5l-1.7-.3-1.4.2-.3.1-1.1-.2h-.4l-1.5-.7h-1.2l-.3.1-.4-.1-1.9-.3h-1.5l-.7-.2-1.5-.2-1.6.4h-2.3l-2.1.2-.4-.4-1.1-.2-1-.2-1 .1H79l-1.9-.3-5.6 2.9-.4.1-.5.1H69.7l-.1-.1h-.1l-.9-1.1-1.8-1.5v-18l.4-.4.6-.6.2-.4.3-.3.7-2.7-.4-.9.9-.4-1-1.7.1-.2.1-.2.4-.7v-4.2h-4.2l-1 .3-1.2.6-.8.8-.7.8-1.3.7-.8.6-.6.8-1.2.6-.9.9-.5.7-.4.2-1.1 1.1v.2l-.4.1-1.8.8-1.1.7-.6 1-.2.1-.4.2h-1.7l-.5.5H36.3l-.4-.6v-.2l-.2-.6-.9-1.8-.7-.4v-.6l-.4-1.5-.5-.6v-.9l-1.2-2.5h-1.6l-.1-.1-.9-.6-1.5-.3-1.4.1h-.3l-.6-.3-1.1-.4-.9-.3h-.3l-3-.6h-1.7l.2-.2.6-.9.5-.9.2-1.5-.3-2.8-.5-.8-.7-1.2-.8-.8-.8-.5-1-1.6-.3-.8-1.3-1.7-1.5-.8-.6-.1.1-.4-.3-1.4-.4-1.1-1.1-1.1-1-.5-.5-.5-1.1-.6-.2-1.3-.6-.7V266l-.8-1.3-.4-.7-.2-.3-.8-1.6-.2-.1.4-1.5-.6-2.5-1.9-1.5-1.1-.3-.1-.1h-.1L0 254.7v-.8l.1-.2.3-.2H2l1.9-.9.7-1.3 17.5 7.3 46 11.4 11.2 6 58.8 27.7-1 .8-3.1 3.1h-.5l-1.2.6h-1.7l-1.2.3-2.1 1.4v.1l-.4.2-1.5 1.5v.1h-.1l-.9.4-.6.3-1 .7-.7 1.1-1.2 1.2-.4-.2h-.9l-2.1.1-.4-.1h-1.2l-1 .3-1 .6-.9.7-.7.7-.8 1.4-.9 1.1-.6.7-.7 1.4-.1.2-.9.1-1.1.7h-.7l-1.7.7h-.1z" class="st0"/><path d="M437.9 122.6h-1.3l-1.3-.1-.1-.1-.5-.5v-2.6l-.6-.7-.2-.4-.8-.6-1-.9h-.1v-.7l-.4-.4v-1.4l-.6-.7-.3-.4-1.1-.8v-2.6l-.9-1.7-.6-.3v-.4l-2.1-2.1-.1-.3-1.9-1.9h-1.2l-.6-2.1-.3-.2v-1.4l-.3-1.1-.4-.8v-1.1l-.1-.1v-.4l-1.2-1-.5-1.1v-2l-.1-.1.1-.2v-.9l.4-1.5v-1.6l-.1-.3v-.8l-.1-.1v-.7l-2.3-1.2-2-.3-.2-.1v-.1l-.6-.9-.3-.6-.7-.4v-.6l-.2-.3v-.3l-.1-.3.6-.6v-2.3l-.4-.8V76l-1.4-1.4-1-.5v-.3l-1.3-1.3-2-1-.9-.9h-1.3l-.4-.2H403l-.2.2-.2-.1-.3.1-.7-.7h-.1l-.1-.1h-.1l-1.1-1.1h-.4v-1.8h-2.1l-.1-.1-.4-.2-.7-.7h-.5l-.5-.2-.4-.4h-.2l-.1-.1-.2-.1-.7-.7h-.5l-.5-.5h-1.1l-1.3-1.3-1.3 1.3h-.3l-.5-.5h-1.9v-1.1l.2-.2v-2.2l-.1-.3v-.1h.1l.4.5 1.1.7 1.1.1.4.3h.6l.2.2 1.3.6 2.1.3h.1l.3.2 1.7.6 2.5-.5.8-1.1 1-.5.8-.3 1.6-1.2v-.2l.5-.3h.8l1.3.6h1.1l.3.2 1.5.5.9-.2h1.1l.7-.3 1.5 1.4h1.7l2-.3.5.4 1.5.2 1.2.3.9-.2h.3l.7.4.3-.4h.1l.1-.2 1.9-1.8.1-.5.4-.1 2.3-1.5 1.1-.5.6-1.2.3-.4.6-.6.9-1.3.4-.8.1-.1.9-1.9-.2-.6.2-.9 1.1-2.5 1.5-.7v-2.2l1.2-2.2v-1.3l.2-.4.7-.3 1-.9 2.9-4.8.3-.6.1-.1V33l.4-.8.8-1.3.4-.9.1-.2 1.4-1.4v-.5l1.5-1.7.9-1.5.2-.6.7-.3.8-.2 3 9.1 1.9-5.7-.2 1.3.9 1.9 1.5-.4v.3l.1 1.5-.3.8v2.5l1.2 3.1-.2.5.3 1.8.1.3v.1l.4 1.8.4.5.1.5.2 1 .3.4-.1.4.3.6v.9l1.5 1.5.1.3.2 1 .4.5.1.8-.6 1 1 2 1.4 1.3.2.5v.1h-1.1l-.1 3v.9l.3.6v1.1l.6 1.3.1.1.7 1.4h3.3l.2.2.4.7.4 1.5 1.1 1.1.9.7 1.3.6 1.9.3 1.4-.4h.3l.6.3 1.4-.4 1.1.5 1.7.6.3.1v1.3l.1.6.1 1.5.3.7v.3l-.4-.6-.4.9-.7.1h-.1l-.8-.4-3.9 1.9 1.2 3.4.9 1-.4.7-1.7.7-.7.7-.8.9-.5.5-.7 1.5-.9.5-1 .7-.7 1.1-.7 1.9-1.1 1.8-.8 1.2-1.5 1.7-1.1 1.3h-.2l-2.5.5-2 1.4-1 1.5-.6.9h-.3l-.7.2h-2.8v.7l-2.4.6v4.3l.2.1-.1.2-.6.8-.1 1-.8.6-.5.8-.2.4h-3v1.3h-.1v2.6l-.2.2-.4.4-1.3 1.6-.2.6-.4.8-.3 2.7.2 1.5-.2.2-.7.5h-2.6l-.4.4zM393.6 597.9l-1-1.4-.9-.7-4.1-2.3-1.8-.4-1.9.6-.6.8-2.3.8-2.2 1.1-.3.5h-.3l-.6.3h-1.8l-1.1.7-.6-.3-1.1-.2-.2-3.2-.7-2.4-1.1-1.2v-.6l-.1-.8.5-1v-2.1l-.6-1.1.2-.4v-1.5l-.5-1.6v-1.6l-.7-.4-.4-1.5-.4-.4v-.9l-.5-1.6.4-.7.4-1.5v-.5l.3-.3-.5-2.5-.7-1.2-1.4-1-.3-.1-.1-1.8-.3-1.7-1.1-1.1-.7-.5-3.8-5.4-1.3 3-.5-.2-1.2.4-2.1-.1-.4-.4-1.2-.7-.1-.3-.8-1.6-1.1-1.1-1.7-.6-2.2.5-1.3.3-1.3 1.3-.4.6-.6.3-.9-.4-1.2 1.2-.2-.1v-4.3l-2.5 2.4-.4-.4-.6 1.5-.7.7h-.7l-1.2-.6h-.3l-.8-.8-2.5.8-2.9-1-1.7-.8v.9l-.1-.4-2-1h-1.5l-.2.1h-.8l-.4.1h-.3l.2-.4v-1.3l-.2-1.2.2-1-.1-.2 1.1-1.9-.9-1.7.5-2-.6-.6 1-1.7 1.1-3.1-.6-.4.4-1.2.1-1.8-.2-1.2.6-1.7-.5-2.3-.5-.4v-3.9l-1.1-1.1-.1-.3-.8-.8-.7-.5v-.1l-.3-.7.1-.2.7-2.8-1.9-1.3.3-.1-1-2 .5-.8h.1l.4.1 1.8-.9.8-.8.3-.4 2.2-2.3-4.4-4-1.8-1.7.2-.2.5-1.3.6-1.3.3-.5.5-1.2 2.8-5.8.4-.9 3.1-.3-.8-4.1-.1-1.3-.4-1.4-.1-.1.5-1.6.9-2.9 1.7-5.4h2.7v-4.7l-.1-.1v-3.6l2.7-.7.5-.4 1.5-.2.5-.2.7-.3.9-.6 2.3-2.5.9-.9v-1.1l.4-.2.6-.6.3-.4 1.2-.6v-1.2l.1-.8.4-.3h.2l3-.3h.5l1 .3 1.3-.3.7-.2.5-.3h.3l1-.3 1.2-.6.4-.8.1-.1.9-.1.3.2.4.4 1 .7 1.7.4.4.2h.2l.3.5.7.3.7.5 2.3.4h.2v.1l.3.3.1.1.7.8.4.6 1.1.9 1.9.9.6.1.6.4.5.1.6.6 3.3 1.9 2.1-.2h1.1l2.1-.5h1.3l1-.3 2.4-1.4.9-.8.2-.4.2-.1.7-.1h.9l.2.2.1.1.2.3v1.6l2.5 1.2 1.3.2h.9l1-.2 1.7-.8.3-.1.6.1 1.4-.4-.2.1-.8 1.1-.1.7-.3.5v1.6l.5 1 1.4 2.1 1.9-.3.5.1 2.3 1.2 1.7.2 2.7-.3 1.4.4 1.2.2 2-.4h.1l.7-.1 1.5.3.5.2.6.1-.2 2.6v1l.4 1.1.3.5.3.7 1.9 1.8h1.1l-.6 1.4-.2 1v2.2l1.7 1 .8.4 2.9.8h1.3l.9.3h1.3l1.6-.2 1.8 1.7 1.4.5H433.5l.7.3.9.6.1.3 1 1 .9.4 1.1.5 1.1.2h.1l.1.1.8 1 1 .3 4.5 2h.5l1.2.3.8-.1 1 .3h.3l.8.8.5.4.6.5.8.3.2.1.9.3h.6l1 .4h.7l.5.6.7 1.1-.4.4v1.9l-.4.5-.3 1.7v1l.4 3.2v2.7l.1 1-.3.9-.3.5-.2.3-.3.2-2.4.7-1.9 1-1.8 1.7-.3.8-.7.8-.4.6-.3.3-.7.1-1.8 1.4-.3 1.5-.1.5-.7 1.1v2.2l-.1 1.4-.8.8-.3.2-.9 1-.6 1.5-.3.3-.9.4-1 1.5-.3 1.8.5 2.1-1.2 1.3v.1h-1.2l-.7.7-.6.3-.6 1-.5.6-.4 2.6.6 1-.6.4-1.1 1.9-.2.5-1.8 1.8-.6.9-.3.9-.1.7-.8 1.6-.8.8-.3.3-.5.3-.1.1h-.1l-1.7.9-.5.4-.6.3-1 .5-.6.6-1.9 1.1-.5.4-.6-.6-2.4 2.4-.8 1.1-.3.1-.7.8-1.3 2.3-.2.3-.1.1-6 2.7-2.1 1.2-.9 1.1-.6.9-.8 1.8-.3 1.2-.1 1.8-.2.4-.4.7-.6 1.7-.2.5-1.5.9-1.8.8-2 1.6v2l-1 3.2-.1 1.1-.6 1.5-.3 1.5v1.6l-.7.3z" class="st0"/><path d="M447 655h-2.2l-.4.4h-2.2l-1.3-.4h-.7l-.1-.1h-.1l-.6-.3-.2-.5-.7-.7-1.5-.8-.9-.5h-1.2l-1.8-.3-.7.1-1-.3h-.9l-.2-.1-1.7-.6-1.2.1-.4-.3-3.9-1.2h-1l-1 .3-.3.1-.1-.1h-2.2l-.7.4-.8-.4-.3-.2-.7-.5-.4-.4-.9-.6-2.8-.9-.8.2h-.6l-1.4.9-1.1-.3-.3-.5-.7-1.1-.1-.1-.1-1-.6-1.2-.9-1.2v-.1l-.2-.9.1-1.4-.2-1.1-.4-.8-.2-.5v-.2l-.4-1.6-.5-1.2-2.4-2.3-.3.2-1-.6h-.3l-.7-.8-1.6-1.6-2.6 1.2-.1.2h-1l-.5.4-1.6.4-.7.3h-.3l-.7.4-.1-.1.2-.3.3-.3.7-.8.8-1.4.3-1.3.7-.6.9-1.8-.5-2-.4-.6.1-.2.8-3.7.6-1.1.4-1 .9-2.8v-1.4l-.2-1.5.6-.9.4-1 .4-1.3v-1.4l-.4-1.3-.4-.9-.3-.5v-.5l.9-.4 1.3-1 .1-.1.9-.4 1.4-1.4.4-2.2v-2l.1-.3.8-1.9.1-1.4.9-3 .7-.3 2.9-1.9 1-1.3.6-1.2.6-1.7.4-.8.4-1.4.3-2.1.1-.4.2-.7.3-.3.9-.5 6-2.7h.1l1.4-.4 1.5-1.6.9-.6v.1l1.3.4 1.1-.1 2.1.4 1.6-.3.2-.1 1 .6 2-.2.5-.1h.5l.9.3h1.2l.7.8 2.8-.6 1.5-1.1.3-.7 2.2 1.2.9.3 1 .2.5-.1 1.5 1.5 1.6-.6h.1l1 .5h.9l1.2.2 1-.3.3-.1h.4l.3-.2.1-.1.1-.1h.3l.4.2.4.2 1.7 1.1 1.8.8 2.4.6 1.8.5.2.3.1.4.8 1.5 1.2.6 1 .3h2.2l.9-.6.2-.1.6.1.4.4h.6l.3.2 1.2-.1 1.6.8.6-.8.2.1h3.1v-.1l2-.2.8-.2.5 1.1.9.8 1.3.9h.8l.1.2.5.2 1 1 .4.9.3 1.5.1.5-.2.5-.5.5v.2l-.1.1v2.7l.6.6v.3l.3 1.1.5 1 .1.1h-.3l-.1 3v.7l.4 1.6 1 1 .3.5.6.4.1.4.8.9v.1l.9 1.8h.7l.5.6v1.5l1.1 1 .3.9-.5.5v1.6l-.5 1v2l.3.6v2l.1.1v.9l2 .8.3.1 1.5.4.8.2h1.9l.2-.1.4.1 1.9-.3.2-.2.6.1 1.8-.1.6.6h2.2l.2.2h.3v.8l-.2.5.1.4-.6.6v2.1l.4.8v.8l1.2 1.2 1 .5.2.2h-.9v1.1l-4.9-2.4v2.8l-3.7-1.5 4.6 8.1-.1.3.5.3.6 1h.4l-.3.4 2 .5.2.3-.4.2-.4.5-1.3.1-1.3.6-1.4 1.5v.6h-1.3l-.4.5-3.6-1.8v1.9l-.4.3h-.2l-1.1.4-.5.4-.8.4-.7.7-.5.7-1 .6-.3.1h-.4l-.2.1h-.6l-1.2 1.1-.3-.1-1.3-1.4-1.7-1-.4-.6-1.4-.7-.4-.7h-1.2l-.9-.4-.7.3-.8-.1-1 .6-1.1.2h-.7l-.1-.1h-3.7l-.3.3-.2-.2-1.5-.5-1.1.1-.7-.4h-4v2.1l-.8.8-.4 1.7-.2.2-1.1.6-.1-.1h-1.1v-.1h-1.5l-.1-.1h-2.6l-.8.8-.6.4-.2.3-.6.2-1.5.7-.4.7-.7.6-.6 1.3v.3h-.1l-.2.4-1.7 1.8.7.7h-.8l-1.2.1z" class="st0"/><path d="m484.3 715.9-.3-.2-.2-.1-1.1-.5.2-.3.1-.8.2-.4.3-.7v-1.2l-.3-2 .3-.3v-.1l.1-.2h.9l.8-1.7.1-.1h.2l.7-.3 1.6-.7.8-2.7-.1-.2 1.1-1.1-2.4-2.3-.1-.1-.3-.7-1.4-1.3h-1.8l-.5-.5h-2l-.3.1-.9-.4-1.4.7-2.8-1.5-.7 1.1-1.8-.2-1-.4h-.9l-1-.5h-1.2l-.2-.1h-.1l-.4-.6-.3-.8-1.1-1.2h-.1l-.4-1.3-2.2-2.8-.2-.4-.9-1-.6-.8-1.6-1.5h-.2l-.1-.2v-.6l-1.4-1.4-.5-.2-.4-.4-.6-.2-.5-.5-.8-.3v-.9l-1.6-.8-1.5-3.1-1.4 1-.7-.7-1.3-.3-.6-.6-.6-1.9-2.1.7-1.1-.5-1.3.6h-.9l-.1-.1-.9-3.7-.7.8v-.6h-3l-.8-.8h-.5l-2.3-1.1-.2.2-.9-.4-.9.2v-.6l-3-.1h-.9l-1 .5h-.7l-1.1.4-.2-.1h-.1l-.3-.3h-.7l-.6-.6-.5-1.1h-.9v-6.9l-3.4 5.1-.2-.4-.4.4-.4-.1-2 .5-2.8-3.4-.5 3.5-3-1.9-1 1.9-.8-.4-1.8 1.8-.1-.1.4-.9.5-1.3v-1.5l-.3-1.8-.4-1.7.2-1-.1-1.2.2-.6.4-.3v-2.4l-.1-1.1.4.2h2.1l.2-.1h.4l1.2-.8.9.8h.4l.1.1.5.4.4.2 1.2 1.1h5l1.1-.1 1.1-.4h.1l1.4.4.6.6 1.8.3h1.2l1.2.6h1.7l1 .3H433l1.3.2h.1l1.1 1.1 1 .6.8 1.1h.4l.1.1h2.1l1.3.4h4.3l.1.1h1.1v.7l1.2.1v5.6l5.3-5.1.2-.1h.7l1.2-.6 1.2-1 .8-1.3.5-1.9-.3-.6v-.3l-.6-1.2v-1l.2-.4 1-.3 3 .1h2l.3-.5h.3l.5-.5h1.6l1.4-1.3.6-1.3.2-.2.5-.5.3-1h.3l.1.1v1.2l2.3.1.3.1h2.2l.9-.9.4-.4h1.1l.6-.2h.3l2.3-.4h.6l.2.1h.1l.5.6.7.3.2.1v.1l1.2 1.2 1.7 1.1 1.7.7.7.2 1.1.2h1.7l1.9-.9.5-.9.9-.4 1.7-.9 1-.5.5-.9.2-.3h2.3l.1.1.1-.1 1.6 2.7-1.7 3.3 3.8.4.3.4.7.3v.2l-.3.7-.5 1.4-.1 2v1.9l.5 1.4.6.7v2.7l.1.1v1.3l.5.9-.5 1 .6 1.4-.6 1.2v1.3l.3 1.4v.8l-.3.5-.3.8-.4 1.5.8 1.7-1.2 1.8 1 1.5-1.2 1.2 1.3 1.4.6 1.1-.2.4-.3 2.3v.3l-.1.2v1l-.1.4-.2 1-.4 1.6h-3.2l-1.4 3.4.3.9-.5.9.8 1.5v1l-1.1.7-.3.4-1.4.9-6.1 5-4.4 4.9-1.6 2.2zM81.9 270.6l-11.6-6.2-46.4-11.5-20.4-8.6.3-1v-.3l.2-.1.6-.6.2-.4h.1L6 241l1.6-.9 1.5-1.3.9-.5.1-.2h1.1l1.5-.5 1.4-.6 1.1-1.3.8-1.3.5-1.3.2-.9V231l-.3-1.2-.4-.8-.2-1.6-.4-1.3-.7-.8.3-.4.9-2.2.5-.4 2.3-3.1.5-.9.4-1.1.5-2.4v-1.4l-.2-.5.5-1.1.2-.7.1-.3.1-.2.6-1.8v-.9h.2l.6-.4h1.7l1.3-.6 1.5-1.5v-.1l.1-.2h.3l2.5-1.2v-.6l.6-.3 1-1.5v-.1h.3l1-.3.8-.4 1.1-.9 1-.5.8-.6.5-.5 1-.5.1-.2.5-.1 1.2-1.1.7-.1-.5 2.2 5.7-2.6h1.8l.3-.2.5 1.1 2.4-1.6h.8l.1-.1.7.8 1.6-1.7 1.3.3.6-.5 1.2.5.1-.1.9.7 2.3-2.9.4-.6.1-.1.4-.5.3-.4.6-.2.4-.8h1.2l2.1 1.1.6-.7 1.4-.4 1 1 1.4 1.1h.1l1.8 2.6 2.4-1.8 1.5.8 1.9-.7 1.4-1 .8-1.1h.8v-1.8l.1-.1v-1.2l.5-2.9.7-3.3.5-3.2.7-3.3.5-3.2.7-3.3.5-3.2.7-3.3.5-3.2.7-3.3.5-3.3.6-3.2.5-3.2.7-3.3.5-3.2.7-3.3.1-1.1.4-1.2v-.5l.4-1.4v-1l.3-2.1v-.5l.6-1.4-.7-2.1-.2-.4-.3-2.1v-2.4h-1.7v-.1l-.3-.1-.4-.7.1-.3-.8-1.2.7-1.8-.8-1.6v-.1l-.2-1.2-.5-.9-.6-.9-.9-.6-.6-.5-1.3-.5-1.1-1-.1-.1v-.1l-.9-.8-1-.7-.5-.1-.2-.3-1.3-1.1-.2-.2v-1l.1-1.4v-1.9l.1-2.3v-2.1l.1-1.9v-.4l.4-.1 1.4-.1 2.2-.6 1-.5 2.5.7.9-1.8.5.6-.3 1.2h1.6l.2.3.5-.3H91l.7.1h1.8l.4-.4h.2l1.4-.5 1.9-1.9-.6-2.3-.3-.7.3-.1v-3.4l-1-1 .1-.6-.7-.6v-.1l-.6-.7-.4-.6-.6-.3-.2-.3-.8-.5-1.8-1.1h-1.6l-.8.3-.3-.2H87l-.7.1h-.1l-.9-.3h-1.2l-.4.1-.5-.5h-.5v-6.9l1.8-.3 1.2-.5.8.2 1.6.6 1.4.2h24.2l.5-1.9 1.5 1.1 1.6.4h1.5l2.2-.6 1.4-.8 1-.9 2.5-3.4 1.1-1.2.6-.3.4-.3h.1l.5 1.2.7 1.1 2.1 2.9.5 1 .6 1.7.1.7-.5 5.7.2 1.8 1.1 2.8h2.7l2.2-.5.6-.2.1.2 1.3 1.2 3.2 2.9 1.3 1.1 1.1 1 .3.3.9.8 1.2.9.9.6 2.5.4.6-.2h.5l.3.1.8.3h1.4l1.1-.5.5-.4h.1l.2-.2h.2l1.3-.3 1.1-.8.6-.6.9-1.1.7-.3.9-.4-.6.9.3 1.4v.7l.6 1.6 1.3 1.2 1.4.5h2.2l.6-.5.8-.4 1.1-.9.6-1 .4-.5.5-1.1v-.8l.1-.1h1.4l1.7-.8 1.3-1.8.4-1.6v-.3l1.5-.4 1.2-1.2 1.1-.4.3-.2h1.7l1.2-.3 3.4-2.1.5-.7v.1l2.8 1.4.7-.8h.5l1.5-1.9.2-.7 1.1-.8 1-.9 1-.5 1-1 1-1.7.4-1.7-.1-1.2.3-.9.1-1h3.7l.5-.5h.2l3-2.5H207.7l1.8-.4 1.4-.4.4.1h1.8l.2.3 1 1.1.8.5.4.2 1.4.7h1.7l.3-.1.2.1h.9v1.8l.1.2-.3.5-.1.4-.3.3-.5 1.4v1.8l1.2 1.6.4.8.4.5.4.7 1 .6.1.1 1.2 3.6v.8l.1.2v.5l.7 1.2.1 2.1.7 1.4-.4.2-1 1.9V89l.4.9.6 1.7-.8 1.6v.2l-.3.6.3 1.2-.2.4-.4 1.1v2.6l.3.8-.7 1.4v1.4l.3 1.7 1.2 1.1.2.3.3 1.2.4.9.7 1.1.5.3.4.3.4.2-.2.9v1.4l.5 1h-.4l-.2.1h-2.4v3l-.1.7v1.3l.1.3v.9l1.3 1.3.9.4.5.2.2.4 2 2 .7.3.6.4.4.7.7.7 1.5.7h.2l.9.6.5.3.2.3.3 1.1 1.2.6.7 1.6.9 1.9h.8l.2.2h2.4l.4-.1.7.3h.9l1 .3 4 2v-5.5l-.3-1.8.4-.8.3-1.5.3-.8-.1-.8.7-1.4-.7-1.2-.2-.9.6-1v-.7l.1-.9.6-.5.2-.4.6-.3.7-.2 2.4-.9.2-.2.2-.1.3-.3.5.2 1.6.5.9.9.2.1.1.1.3.2.4.3.2.3.3.3.1.7v.5l.6 1.3.9.9 1.2.6 1.7.1.6.1h1.2l1-.5h1.3l1.7-.8.8-1.6.7-.2.2-.1h.5l1.7-.8.1-.2 1-.5v-3.5l-.6-1.3-.4-.4-.4-.3.2-.2v-1.1l1-2v-.2l.1-.2v-.7l.8-1.1.5-1.1v-.7l.2-.4.7-.8.9-1.6.5-.8.7-.7 3.7-.2 15.2.1.2 3v.1l-.2 1.9-.1 2.6.2 1.1.1.4v1.1l1.7 1.7.5.2v.2l-.2.9v1.4l.4 1.2.5.7.9 1.2 2 1.8 1.2.6h.9l.2.2.3.3.3.1.1.6v.7l.3 1.1.1.3.3.7.8.8 1.8 1.7 1.4.7h.1l.6 1 .6.4.9.8h.4l.6.7 2 1 .3.1.4.5.7.8.9.4 1.2.3.5.7.6.6.8.5.2.3 1.1.7.5.3 1.7.6.2.1.8.5.4.1.5.5.6.2 1.3.6h.4l.1.1.4.1.5.2h.7l.1.2 1.5.7.8-.1.1.1h.1l.8 1.1 1 1 .6 1.1 1.4.3.5.2 1.2.9.5.2v.3l.3 1 .7 1.3 1.4.7.7.6h1l.6.3h.9v.7h1.5l-6.7 14.6-30.9 66.7-.5.8-1.4 1.2-.6.5-.6.8-.6 1.2-.1.9-.3 1 .2.8v.5l1 2.9.4.7.3.5.7.9.6.6.9.7.1.1 1 1.1.8.6v.1l.1.5v1.3l.1.4-.9.9v.8l-.2.4v2.1l.2.7-.5.4-.3.8-.2.4-.2.1-.7.6-.8.9-.6 1.3v2.6l.2.4v.2l.8 1.6.2.6.2.8-.6 1.9v.5l-.6.8v.7l-.1.2-.1.1-1.2 1.2v1.8l.2 1.4v.4l-.1.1-.2.9-.2.4-58.3.4-.1-.1-1.6-1.1-1.1-.1-.4-.3H243l-1 .3-1 .6-.1.1h-1.6l-.4 1-.2.1-.2.4-.9-.2-.1-.4-.2-.5v-2.3l-2.5-.9-.9-.2-.2-.6-.3-.7v-.4l-.6-1.3-.8-.7-1-.7-1.9-.4v-.2l-1.2-1.1-.5-.3v-.6l-.7-1.5-1.9-1.8-.8-.5-1.1-.3-.5-.5-2.7-.2-14.5-.2-1.3 2-.6 1-.5.8h-.3l-1.8.9-1 1.6h-.5l-2.1 1.1-.5 1-.2.3-.7.8-1 1v.8l-.5.9.7 1.2-.4-.1-1.3 1.3-.6.3-.9 1.7v1.4l.1.4v.7h-.3l-1.9-.1-.3.1h-.7l-.3.3H187l-1.3.7-.5.4-.4.2-.3-.6h-1.6l-.8-.2-1.5.5-1.7.9-.8.7-1.1 1-.3.6-.3.4-.5 1.1v1.8l.1.1-.1.1-.4-.7-2.4-1.2-2.7 1.3-.2.3-1.2.7-.8.5-.3.4-.5.3h-1.6l-1 .3-1.7.9-.9.6h-.7l-.5-.7-.9-.6-1-.5-1.3-.2h-.9l-2.2.5h-1l-.7-.4h-1.5l-.4.1h-.4l-.4-.2h-1.6l-2 1-.8 2.4.3.9-.8.9-1 .3-.8.3-1 .8-.5.5h-1.4l-.9 1.3z" class="st0"/><path d="m262.3 375.9-.8-.6-1.5-.5h-.2l-.8-1.6h-3.4l-.4.4-.7.2-.7.5-.2-.1-1.3-.2-.5-.2h-1.5l-1.7.9-.2.1-.7-.8H246l-2 .1-.6.3-.1-.1h-.1l-1-1-.6-.3-.9-.9-.1-.1v-.9l-1.6-.5-.3-.3v-1.9l-2.5-2.5h-1.8l-.7-.4-.7.4h-1.2l-.7-.4-.3.3-.1-.1-.4-.4-.1.1-.4-.3-1.3-.3h-1l-.1-.3-.9-.9-.2-.1-1.3-1.3-1.9.7-.6-.6h-.2l-.2-.3-.2-.4-1.2-1.2.2-.2-1.5-1.5-.1-.4-1-1.5-1.4-.5-.8-.4H214l-1.2.7h-.2l-.7.5-.7-.4-.2-.2-.4-.8-.9-.9-1.3-.6h-.5l-.6-.5-1-.5-.4-.4-4.1-.6h-1l-3.3 1.1h-.5l-1.8-2.4-1.3 1.7H192.7l-1.3-.4-.2.1v-1.7l-.6-1.3-1.5-1.5h-.8l-.4-.4h-1.1l-.3-.8-1.5-1.5h-.6l-.2-.6-2.1-1.1h-.4l-.6-.3-.6.1-.8-1.6v-.2l-.5-.9v-.1l-.2-1.7-1-.5-1.3-2.5-.3.1-.1-.3-.3-.2-.4-1.1-1-1-.9-.5.8-2.3-1.2-.6v-.1l-.2-.7.8-1.7-.1-.5.9-1.8-.6-1.8-.1-1.9-.8-1.2-.4-.4v-1l-.3-1.8-.7-.7v-.9l1.1-1.9.4-.2.7-1.8.1-.6.6-.8v-2l-.2-.6-.1-1-.2-.7-.3-1-.1-.4v-.7l.5-.8.5-2.3-1.1-1.6-.3-.3-.2-.9-.4-.4-.3-.6-1.2-1.2-.4-.2.7-.4v-1.1l.1-.1.3.5.8.8.5.2.9.6h2.4l1.3-.6 1.5-1.5.3-.6.8-.8.4-.9.7-.5.3-1 .4-.8v-1.7h.4l.1.1 3.1.2 1.3-.4 1.2-.6.1-.1h1.9l.7-.7h.5l.5.3h1.4l.9.9 3-1.5.9-1.7v-1.4l-.3-.8.2-.3v-.4l.6-.2 1.2-1.2.7-1.1.4-.4.5-.9.1-.4.5-.9v-1.6l-.5-.9 1.1-.4.9-.2 1.3-.7.8-1.5h1.2l1.4-1.4.6-1.3v-.7l10.5.2h.5l1.3.4.1.1v.3l1.1 2.3 1.2 1.2h.1v.4l1.2 2.5h3l.2.6.3.8.1.6.5.9 1 1 1.3.6h.5l.1 1.1.5 1 .7 1.1 1.5.8h1l.2.4 1 .6 1 .5 1 .3h1.5l1.5-.7 1-1 .5-1.1h.1l.1-.1.9.8.1.1-.2.4-.8 2.4v1.6l-.8 1.6v.7l-.3.9v1.5l.6 1.3.5.5v.3l.8 2.9-1.6 1.6 1.2 2.3v.7l.3.5-.2.6v1.2l-.8 1.3v.9l-.1.4v2.3l.3.4-.3 1 .6 1.3.9 2.1.3.6.2.2-.1.4v1.4l-.2.8-.1.8-.2.9-.3.1v2.8l.2.8-.3 1.5v1.6l1.5 2.1 2.2.5 18.8.1 1.8 1.6 1.2.6h1.6l.4-.2.1.1h.8l.8.3h1.6l.1-.1.4.2.1.5.3.8.2.4-.1.1-.5 1v.2l-.3.3-1.1.7-.7.7-.6 1.3v.8l-.1 1.1.1 2.6.3.5v1.1l.2.6.2.9 1.2 1.8 1.4.7.1.1.3 1.2.7.8v2.6l.3 1 .7 1.4-1.1 3-1.2 1.3-.6.6-.4 1.1-.2 1-.2 1.2-.1.2-.5.1-.3.2-.6.2-1 .7-.7.7-.2.4-.7.7-.6.9-.4 1.1v.9l-1.1 2-.3.9-.2.7-.1.6-.3.8v.1l-.9.5-3.3 2.3-.9-.2zM150 298.6l1.5-1.6.4-.7.3-.6.6.1 1.5.1 1.3-.1 1.5-.3.6.8.9.4.2.2h-.8l-1.3.3-.1.1-.2-.1H154l-.3.3-1.1.1-1.1.5-.3.2-1.3.2.1.1z" class="st0"/><path d="M407.7 467.8h-1l-2.2.3-1-.5.1-.1.4-.7h.9l2-1.9v-1.2l.3-1.7.1-.3.3-.6v-1.7l.7-2.6v-2.2l-1.3-2.7-3.5.4-1 .3-.8.5-1.4 1.2-.3.4-.4.3-.2.6-.1.1-1.5 1.7-.2.1-1.3.7-.7.7-.5.7-.2.5-.4.1-1.3.3-.2.1-.1-.3-.7-.6-1.3-.8-.6-.5-1.5-.8h-1l-.2-.1h-1.1l-2.4.4-1.5.6-1 .5-.9.8-.2.6-.7.3h-.9l-2.1.5h-.5l-.5.1-1.1-.6-.4-.5-.8-.5-.8-.4-.3-.1-.6-.4-1-.2-.6-.3-.4-.5-.1-.1-.4-1-.9-.9-1.1-.6-.9-.3-.4-.1-1.2-.6-.7.2-.2-.2-.9-.6-.7-.3-.8-.3-.8-.2-.4-.6-1.2-.9-1-.3-1.3-.2h-1.1l-.6.2-.3.1-1.8.4-1.4.7-.5.5-.1.1h-.9l-.6.6-.3-.1h-1.4l-.3.2-2.3.2-2.1-.3-1.3.7-.9.7-.4.4h-1.8v1.9l-.1.1v1l-.3.2v.6l-.2.2-.7.3-1.4 1.4v.1l-.1.1v1.5l-1 1-1.1.2-1 .2-.7.5-2.4.6H329.4v-.9h-.1v-.9h-1.6l-.8-.8h-.1l-.3-.3-.9.2V461l-.6-1.6-1.2-1.1-1.6-.7H321l-.8.2h-.4l-1-.8-.7-.3h-.1l-1.5-1.5h-.3l-.4-.7-2.6-1.3v-1.3l-.2-1.2-.3-.4-.2-1.3-.1-.7-.3-.6.1-.1v-2.3l-.5-1.6v-.2l2.2-2.5.7-2.5-.2-.4.2-.7-.2-3.8-1.9-1.9h-3.3l-1.1 1.1h-.5l-3.7-.2-3.9-.1-3.8-.2-7.7-.2-3.8-.2-3.9-.1-3.5-.2-.1-2.9-.7-7.4-.2-3.4-.5-1.4-.7-.9-2.2-2.7 1.5-.1 1.2-2.4v-2.2l-.3-5.1v-1.7l-.2-2-.7-1.3-.4-1.6-.6-1.5-.4-1.4-.6-1.3-.6-.5v-.9l.4-.4.4-1.2.3-.9.4-.8v-1.5l.3-.6-1.1-1.1-.4-.8h-.3l-.1-.2v-.3l-.5-2.1-1.9-1-.6-.1 1.2-.8 1.8-1.1.7-.7.5-.7.4-.7.3-1v-.6l.1-.4.1-.8.1-.1v-.1l1.2-2.2.6-1.1v-.8l.5-.5v-.1l.5-.1.7-.2 1.1-.6.6-.8.8-1.2.2-.5.3-.6.3-1.8.1-.3 1.7-1.9 1.5-4 .6-1.3V353l-.7-1.1-.6-1.3v-2.9l-.4-1.2-.7-.9-.2-.5-.4-1-.6-1.6-1.7-1.7v-.1l-.3-.8-.1-.8.9-.6.5-.7.1-.2.5-.5.4-.8.9-.9.8-1.8-.3-1.9-1.1-2V329.4l-.2-1-.5-1.3-.8-1.2-1.3-.6-.2-.1h-.1l-1.1-.6h-1l-.7-.2h-1.3l-.1.1-.3-.2-1.3-.5h-.8l-1.5-1.5-19.5-.1.4-1.1.1-.5.4-1.3-.8-1.7.2-.9v-1.3l.2-.9v-1.6l-.3-.9-.4-.9-.6-.5-.5-1 .5-1.4-.8-1.2.1-.1.8-1.3v-2.1l.3-.6v-1.4l-.4-1.1.1-.2.3-.7.1-.1.6-1.3v-1.6l-.6-1.3h-.1l-.2-.5-.2-.2-.2-.9V292.4l-.3-1.3-.1-.1.8-1.6v-1.6l-.6-1.3.4-1.1.7-1.5.7-1.3 56.8-.4 1.7-1.1 1.3-.9.3-1.2.5-1.4.1-.2.2-.6.5-.9v-1.8l-.2-.5.2-.2.4-.9.2-.6.2-.6.4-.5.5-1.1v-1.3l.6-1.8v-1.2l-.5-2.2-.6-1.3-.2-.5v-.1l.2-.1.8-.8.6-1.3.6-.6.5-1.1.3.6.5.7.3.3.2 1 .4 1.4.4.8v.4l.2.9.4.8.1.4.1.6.6 1.2.5.5.6.6.1.3.4.9.6.6v.1l-.3.5v1.6l-.2.4v1.8l-.2.1.7 1.3v.1l.2.3V277l.6 1.3.2.2.1.2.1.1v.6l.5 1.4 1.2 1.3 1.8.5.5.5.7.5.3.2.4.7 1.8 1.5.5.2 1.4.6.1.1.5.5.8.3v1.4l.6 1.3 1.4 1.3 2.5.9.8-.3.3.1.2.8.4.8.9.9 1.3.6h1.6l.5-.2 1 .2.5.5 1.6.6 2.9 1.5.6-1 25.6 1.8 76.4 4.6 2.7.1 14.3.8-.3.2-.8.8-.1.9-.7 1 .3 1.6.1.3-.1.3-.1.5-.1.2-.1.2-1.4 1.4-.5 1.8.1.2-.7 1.4-.5.6-.3.7-.5.8v1.8l.2.5h-.1l-.7.8v2l.1.2-.2.4v1.3l.3 1.4-.9 1.7-.1 2.2v.2l-.1.1-.2.5-.1.2v.1l-.8 2.3v.5l-.3.9v1.9l.3.6.2.9.5.5-.3.4v.1l-.1.1v3l.3.3v.3l.3.3.1.1v.8l.2.5-.3.4v2.2l.2 3.8.5.9.4.6h-.1v3.1h-.8v5.4l1.2.6.1.1v1.2l.2.4v.8l.6.6v1.5h.1v.5l-.5.5v2.6l.2.2v1.6l-.1.3-.2.2-.3.4-.2.3-.8.8v1l-1 1-1 1.3v.9l-.1.8-.1.1-.4.2-.7.7-.9.9v2l.2.6v1.3l.2.6v.3l-.1.2-.3.6v1.6l-1.2 1.2v1.5l-.6 1.2-.1.4-.9 1 .5 1.2-.2.9-.1.4v1.3l.2.4v.9l.1.1-.1.2v.4l-.4.3-.7 1.4v.6l-.2.5-.3 1.1-.4 1.3v.1l-.9-1.7-2.9 2.9-1 .2-1.1.8-.5.5-.7.3-1.1.8-.7 1.1-.8.4-1.4 1.4-.4 1.6v.5l-.4.8v.4l-.1.3v.9l-3 4.4.9 1.2-.3.8-.3.2-3.1 1.1v.7l-2.5.3-1.5.6-.3.3-1.4.7v1l-.7.8-.2.4-.3.2-.8.3-1.5 1.1-.1.1-.7.4-.8.7-.7 1.6-.6.2-.9.7-.6.5-.6 1.3-.2 1.3v1.3l.2.4v.8l.6.6-.1.1-.5.7-.6 1.2v.2l-.5.4-.6.6-.2.2-.2.1-.6.3-1.6.8-1 .7-2.6 2.5.9 1.3v.1l-.8 1.4.3.5-.7 1-.9.8-.1.9h-.1l-.1.4-.8.8-.5 1.6.1 1.7-.1.6-.3 1.1-.1 1-.4 1.4v1.4l.2 1 .4 1.2 1.3 2.2.4.7v.1l.1.1-.4-.1-2.3.1h-1.5l-.2.1zM556.9 305.5l-.9-.2h-.7l-.4.1-.4-.5-.2-.1-.5-1.1v-.8l-.3-.9-.6-1.3-1.1-1.1-1-.7.1-.2.2-.5h.1l1.3-1.3v-2l-.2-.6-.3-1-1.2-1.2-.9-.5-.6-.1-1.2-.4-1.3-.8-.2-.2.2-1.3-.3-.6-.2-1.1-.4-.8-1.1-1.6-.5-.5-.8-.5 1.5-1.5v-.1l.1-.1v-1.9l-.2-.6.2-.2v-1l.1-.2v-.5l.2-1 .6-1.2.6-.2.6-.1h6.2v-4.9l-.3-.2v-.5l1-2-.5-.5.2-.2v-2l-.3-1.1-.1-.7-.4-1.3-1-1-.7-.3-1.5-1.5h-.2l-.1-.1h-2.7l-.1.1h-.2l-.3.3-.9.1-1.3.4-.8.4h-.5l-.5.1h-1l-.3.3h-.3l-.3.3-.6-.8v-1.1l-1.6-.7-.1-.2-.4-.8-.1-.1 1.4-2.8h-3.5l-.9-.9-.1-.3-1.2-1.2.4-1-.7-2.8-1.9-1.3 1.2-1 .5-1.4.5-1.9.8-1.6-1-1 .6-1.2-.3-1.2.5-1.2.1-.7.3-.4 1.2-2.4-.5-.7.3-.7-.2-.6.4-.9.3-2.2-.8-1.5-.2-.3-.2-.7v-2l.2-1.3v-2.1l-.7-.8v-1.1l-.6-.6-.1-.3.2-2.4-.9-2.4-.8-1-1.1-1.1-1.4-.3h-.2l-.2-.1-2.3-1.3-.7-.2-.5-.1-.1-.4-1.1-1.5-1.2-.6-1.3-.5-1.3-.2h-1.2l-1.3.4-.3.2h-.1l-1.5-.7.4-.3 8.1-6.4.6.2h2.6l.9-.9 1.6-1.3.5-.6.5-.5.2-.5.1-.1h1.6V192l.5-.5v-.5l1.3-.6.5-1.4.3.2.1-.4h.5v-1.4l.4-1.1 1.6-1.5.4-.8 1.3-.9 1.1-1.3.4-1.4.4-2.4.2-.6.1-.1v-.3h2l-.6-2 1.6-.5-.9-1.8.1-.1h.4l1.3-1.3.4-.8 1 1 1.1-3.3 2-2 .2.1v-.4l1.5-1.5h-1.5v-1.5h2.9L551 158l.8-.4.3-.7.3-.3.3-.6.3-.1 1.1-1.1.4-1.6v-1.3l.4-.8v-1.3l.3-.5.4-.3.9-1.1.7-1.3.4-1.9.7-1.7.3-1.5v-.5l.1-.1v-2.2l-.2-.7.4-.4v-1.8l.6-1.3-.2-.6 2-1.7-.1.2 3.3.5-2.7 2.7h2.5l-.2.3h2.2v2.4l2.1-2.1 1.8 5.3.9-1.8.5.5.2.1 1 1.9.5-1.5h.1l2.5-.6 1-1 .8-.2.5-1.1 2.5.8v.4l.3.3v3.7l1.7-.6.5.5-.6.9-5.2-.7 5.6 5.6-.1.1-.2-.1.1.3-.6 1.8-.2.5 2.1 2.1-.1.4 1.2.7-1.3 1.6.4.8-.3 1.2.1.7-.4.7-.6 1.2.1.8-.1.5V163.4l-.3.2v.4l-.8.2-.8 2.3v.3l-8.1 3.5 13.8 2 1-3 .7-.4.8-.8.2-.3h.6l1.3-2.1 1.2-.6.4-.9.6-.6.4.4v5.3l4.2-6.3 6.3 3.1-2.3-3.5 1.5-3 .6.3v-1.5l.3-.5 1.5-1-.8 2.5 1.1-.5v.9l1.9-1.9.9-.5.5 2 3.6-3.6 1.7.5v-1.7h4.3l-.1-.1 1.4.5.4.2.4.2.3.2.4.2.7.7h.7l.4.4.7-.1.1.3h.6l.5.6 1.7 1v.1l1.8 1.2.3.1 1.4 1 .3-.1-.9 2.7 4-1.3h1.4v1l2.9-1h.1l.6-.2h.6l.4.1-.5.2-.9 1.3-.1.3-1.2.6v.3l-.6.2-3.1 1.6.9 1.7h-.3l-.3.2h-.7l-.5.1H629.3l-1.4 1.4-.3.7-.3.3-.4.9-1.3 1.1-1.1 1.9-.7 1.7.3 1-.1.2-.7 1.3v.1l-1 1-.2.4-.7.7-1 1.4v.7l-.1.3-.9.6-1 1.3-.9 1.3.2 1.9v1l.4.7.3 1.2 1.5 1.9-1.9.8.8 3-.3 1.3.6 1.8.9.9v1.6l.7.3.1.4.1.3.1 1.7.3.8-.3.9v.9l-.6.5-.6.6-.5 1h-.1l-.7.7-.7 1.5-1.1.5-1.1 1.7v1.7l.1.3v.1l-.2.2v1.7l.1 1.7-.1.2v1.5l.3 1.1.3.6-.4.8 1.1 1.6.4.9.9.9.4.2.1.1.5 1.1 1.1.5.2.2.3.2-.6 2.3.1.2v1l-.7 1.4v.6l-.6-.2-.8.4-1.4-.5-2 .8-.6.5h-.6l-1.4.3-.1-.1-.2-.5-1.7-.9h-.4l-.6-.3-.1.3.1-.4-1.2-.6H606l-1.6.1h-1.5l-.8.8-.1.1-.4-.2v-.7l-.5.2-1.1-.6-1.1 1.5h-.2l-1.7.9-.1.4-.9.4-.6 1.1-1.3.6v.9l-.2.7-1.1.5-.5 1.5-.3.1-.2.1h-.3l-1.5.6-1.8 1.1-.5.8-1 .7-.5.8-.8.6-.2.2h-.2l-1-.7-2.2 1.7h-.4l-1.2 1.2-.9.4-1.7.3-1.6.6-.2.1h-1.6l-1.3.7-1.2.9-1.5.9-1.5 1.1-.9 1.8-.3 1.6-.1.2-.7.4v2.5l-.2.7-1.3 1.3 1.2 1.1v.4l-.1.4-.2.2-.3.7-.1.1-1.1 1.1v.8l-.1.3v.5l-.7.9-.9 1.6v1.7l-.9.8V275.6l-1 1.1-.2.2-1.1 1.1-.9 1.5v.3l-.6 1.5-.3 1.4.3 1.6.5.9v.3l.1.3-.1 1.1.2 1 .3.8v2.5h.3l.4 1.3 1.1 1.1-.3 2 .1 1-.2 1.6V299.9l-.2.5-.3 2.1.1.6-.8.8v1.6l-.2.4-2.3-.4zm51.7-69.9zm-7.6-74.7.3-.2.4 1.2-.7-1zm-4.9-5.8.6-.1.3-.1h.1l-1 .5v-.3zm2.6-.4-.3-.4-.1.1-.1-.1.6-.3h1.5l.3-.4v.1l.4.1-1.5 1.2-.8-.3z" class="st0"/><path d="m578.8 319.8-.8-.5-.7-.4-.7-.2-1.1-.8h-.1l-.4-.7-1-1.2-.2-.3v-.8l-.3-1.7-.6-.5-.7-1.2-1.7-1.9-.8-.5-.8-.4-1.3-.2-2.8.1h-.5v-.1l.7-1.1v-.3l.5-.3.4-2.7-.2-1.4.1-.7.9-1.5-.6-1.6v-.2l.2-2v-.2l.4-.9.2-.6.3-.9-.3-1.6-.2-1-.4-.6-.9-1.9h-.5v-3.6h-.5l.1-.6-.3-.5v-.5l-.4-.7.4-.3v-.9l1.9-1.9.5-1 .1-.5.4-.3 2-4.1-.8-.2h.1l.6-1.1.9-1.7v-.4h.1l.8 1.7.7-5.2.3-1.3.4-.4v-3l.3-.2v-1l.3-.7.2-1.3 1.7-.9.7-.6h.8l1.3-.3 1.5-.6 1.3-.3.7-.2 1.4-.6 1.3-.5.1-.2h1.2l.3.4 1.5-.8.5 1 3.2-4.3.4-.5.6-.5.6-.6.2-.3.2-.1.5-.2.9-.1.3-.2h.6l1.6-.8.8-1.2.3-1h.1l.5-.4.8-.9.1-.3.4-.3.8.5.4-.7h.8v-1.7l.1-.1 1.7-.4.8-.3.1-.1h1.1l.4-.5.4-.1.6.3.5.6.4.8h.8l.1.2 2 1h2.4l1.6-.8h.4l1-.3.5-.2h1.8l1.2-.3 1.2.3 1.8-.9.7-.8 1.3-1.3.6-1 .2-.9.5-1 .3-1.1v-.5l.4-.8v-1.2l1.2-.7-1.1-3.4v-.9l-1.3-1.9-1.1-.4-.6-1.1h-.4l-.7-.8-.5-1.3-.3-.4.1-.2V220l-.2-.5h-.1l.9-2.7-.1-.1.4-.3.7-1.6.9-.7.3-.9 1.5-1.1.8-1.7.2-1.8.1-.1.4-1.2v-1.7l-.6-1.1-.1-.7v-.9l-.3-.7v-1l-1-1.9-.1-.1-.1-.4v-.1l-.3-1.4.1-.2.8-1.6.2-1.2.3-1.3-.4-1.6-.2-.3-.1-.5-.8-1.5-.7-.5.1-.1.7-.4.6-1.3v-.1l.6-.6.2-1 .8-.8v-.1l.7-.6.9-.8.2-.9.4-.8v-.2l.1-.1.9-1.3-.2-2.1.1-.2.8-.7.9-.9.1-.1h.1l.6-.3h1.3l.4-.4h1.8l.3-.2h.8l1.9-1.6 2-2.6.9-.2 2.5-2.5v-.6l.8-.8.3-.5.5-.5.4-.9h2v.2l3 .1v.3l-.9 1.4-.3.4-.9.8-.5 1.4-.3 1.8v1.2l.4 1.4.4.7.3.6.3.8.1.9v.6l.8 1.6.8 1.4.3.4.1.2.6 1.8v.5l.5 2.1.9 1.5.7 1.1.9.7.2.6.1.1-.2.4-.5.4-.8.7-1.1 1.5-.3.9-.2.6-.2 1.1v1.7l.3.5v1.8l.7 1 .2.4v1.9l.3 1.1.5 1.1.6.6v.8l.6.8.4 1.3.1.1-.2.6v2l.9 1.3.3.4.6 1 .8.3v.4l.5 2-.2 1.3.2 1.3.2 1 .3 2.7.1.5-.1.3v1.3l.2.6.3.8.1.4 1.4 4.1v.2l-.1.7v.8l.4 2.1.4 1 .7 1.1-.1 1.1 1 1.9 1.3.8.8.3.1.1.9.6 1.6.3-1.3 1.6v.7l-1.5 3.9v1.2l.2.7h-.4L664 251v1.1l-.3 1.7.2.5v1l.7.6.5 1-.3.8-.3.8v1.9l1.6 1.6 1 .4-.1 1.2v.2h-.3l-1 1.5-.3.3-.3.3-1.2.8-.7.6-.1.2-.3.3v.2h-.9l-1.5 1.5h-.2l-.3.1h-.9l-1.9 1.9v.3h-.1l-.1.2-.1.1-.6.2-1 1-.2.3-.3.2-.4.9-.6.3-2.7 1.2-.9 1.9-.1.4-.2.1-.1.2-.7.8v.1l-.2.1-.4.8h-1.3l-.3.3h-1.4l-1.3.7-1.4 1.4v1.7l.2.8-.2.2h-.6l-.1-.1h-3l-1.3.7-1 .9-.2.4-1.1.2-.1-.1h-2.4l-1.3 1.3h-1.4v1.2l-.2.2-.4.4-.4.5h-1.6l-.8.8-.4-.1h-1.2l-.4.1v-1.4l-2.1-.1v-1.1h-2.4l-.9-.2-.6-.3h-1.7l-.7.4h-.2l-.9-.4-.6.6-.6-.6-.3-.2-.6-.6-2.6-1.3-1.3 1.3-.3.1-.4-.1h-1.3l-1.3.7-.3.3-.2.1-.8.7v.2l-1.1-.2-.4.2h-1.6l-.8 2.6-.3 1.6.5 1.8.5.5.2.2v.4l.5.4.3 1v.7l.2.6v.2l.8 1.6.1.1-.1.3-.4.7v1.3l.1.5-.1.2-.9.9h-.8l-.1 2.3-.2.3v.3l-.4.6-.5.9-.6.7h-.9l-.7 1.5-2 2-.1.1-.1.1-1.1-.4-2.9-.5-.5.2h-.7l-.8.7h-.8l-.2.1-.7.3-.7.4-.4.4h-2.2v1.8l-.5.2-.8.4-1 .9-.1.4-1-.2-.9.3-.9.1h-.3l-.3.2zM700.2 256.2l-1.1-.7-.8-.3-.7-.3-.3-.3-.1-.2-.3-.8-1.5-1.5-1.5-.4-.8-.6h-.1l-.3-.3-1-.1-.3-.4-1.5-1.3-1.2-.6-4.7-.6-2.1.1-1 .2-1.4.7-.8.3-.9.1-1.3-.3-.7-.3h-1.4l-.2.1h-1.4l-.4-.9h-.1l1.1-2.9 1.3-1.6.2-.7.4-.8.2-1v-2.6l-.9-.6-.2-.2v-.1l-.4-1-1.8-.9-2.6-.4-.2-.2v-.7l-1.1-1.5-.3-.6-.2-.8.1-.6v-2l-.5-1.4-.2-.2-.9-2.8-.1-.5-.1-.1.3-.6-.4-1.4-.1-.6-.3-2.8-.4-1.2.2-1.1v-.8l-.5-2.1v-2l-1.1-1.7-.7-.3-.1-.1-.5-.5.1-.9-.2-2.1-.6-.7-.4-1.2-.5-1.5-.7-1.1-.2-.1.1-1.8-.5-1.5-.3-.4-.2-.4v-.8l-.2-1.1.1-.2.9-.8.8-.8.7-1.2.9-1.6-.4-2.8-.4-.9-.6-1.4-.8-1-.8-.6-.1-.2-.3-.5-.1-.9-.2-.9-.6-1.7-.1-1.3-.9-1.3-.4-.3-.3-.7-.2-.2-.2-1.4-.2-.5-.5-1.4-.5-.9v-.1l.1-.3v-.1l.7-.8 2.6-3.9h.1v-.2l.4-.6V164.1h3.4v-.7h3.4l.8-.7.2-.1 3.5-.3.9-.5h1.1l.5.1h2.7l.7.1.3.3 2.1.8.2-.1h.1l.5-.3.5.2.7-.1 1.4.8.2.1-2.9 2.8h6.3l.1.1h1.9l.6.5 1.3.8.4.3 2.4 1.1h.1v.2l1.2.3 1 .7h.1l1 .7.4.3.3.4.8.4 1.4.9 1.1.3h.3l1.5 3 1.2-.3.1.2.6.1 1 .8 1 .7h.1l.3.3 1 1 1.9.3 1.4.6.4.1.1.6 1 1.5 1.5 1.2.5.5.8.4.9 1.3 1.8 2.4 1.8 1.9 2.5 1.8.1.1 1.1 1 1 .6.6.1.5 1.4 1.1 1.1.9.9 1.2.8 1.3.6.9.4-.4.1-1.1.5-.6.3-3.3 2.8-.4.8-1.5 3.2-2.2 4.6-1.2 1.4-1.4 1.3-.8 2.2-.3.8v.8l-.4.8-.5.9v.4l-2 1.9h-1.5l-1.2.4-1 .7-1 1-.6 1.3-.3.2-.5 1-.3.2-.9 1.7v1.4l-.4.4v2.8l.4.4-.7 2.3-.5.7v2.6l-.7.5-1.1 1.5-.2 1.9v.8l.4 1.6 1 1v1.5l.9 1.8 1 .5.5.4-.1.1-1.4 1.4v1.3l-.2.2-.8.8h-.3l-1.7.9h-1.8v1.4z" class="st0"/><path d="m747.4 236.7-1.1-.8-1.5-.2-1.1-.1-1.5-.8h-2.8l-.7 1.3-.6.2v-.1l-1.4-1-.9-.3-.3-.1.4-1.3.2-1 .8-1 .8-.9 1.3-1.7.9-.7.8-1.7v-3.2l-1.4-1.4-.2-.1-.2-.2-1.3-.7h-2.5l-.9.6-.9.2-.7.4-.7-.3-1.1.5h-1l-.2.1h-.7l-.6.6h-.1l-.7.2-1.4.5-.8.2-.9.5-1.6 1.6v.9l-.6.3-.3 1-.6.4-.8.5h-2.4v.8l-.7.4-.1.1-.5-.2h-1.2l-1.4-.8-.8-.8.2-.3h.8l1-.2 1.1-.5.8-.5.9-1 .3-.7 2.1-2.2.6-.9.4-1.1v-.3l1-1.2v-1.9l.2-.5.6-.7 1.8-2.1.3-.5 2.3-4.8 1.3-2.8 1.8-1.5.6-.3 3.8-1.3.3.5 3 1.3.7-.3.6.1h.9l.5-.1h.7v.1l.6.6h.1l.9 1.2.8.3v.2l3 1 .8-.1.6.3 1.6.6 2.8-1v-.1l.9.1.5.1.6.2h4v-.2l1-.3.6-.2.8-.3.2-.1.7.2 3 .5 2.3.5 1.4.2.4.1 1.2 1.1.5.2v.3l.1.1v.5l.7 1.4.7.6.6 1.1v.3l-.1.2.9 1.9.2.7v1.1l.2.2v1.5l.5.5v.6l.5 1v.9l.2.3v.6l.5.5v1.3l-.8.8v3l2.1 1.4-1.9-.1-.6.3-1.1-.5-.8-.5-1.3-.3h-1.2l-.6-.2-.5-.2-.8-.3h-1.3l-.8.3-.4.2h-1.1l-1 .3-1.3.1h-.1l-1.6-.4h-.9l-.7-.2-1-.2-.3-.9-1.3-1.3-1.8-.5-.9.2h-2l-1.2 1.2-.3.4h-.3l-1.8 1-.5 1.9-.1.9-.2 1.3.3 1.1-.1.1-.6 1.7v.6z" class="st0"/><path d="m726.7 332.2-1.3-.6-.3-.3-.6-.3v-1.3l-.4-1.2v-1l-1.8-.9-.1-.4-.4-1.3-.9-1.3-.3-.2h.9l1.1-.2 2.4-1.1 1.6-.9 1.3-1.3.6-1.7v-1.4l-.6-1.3.1-.9-.3-.9.3-.4.5-1.6.3-2.4v-2.6l-.2-.7-.2-.8-1.3-1.9-.7-.7-.3-.1v-.7l-1.2-1.2 1.1-.2h.1l.3.3.9.4 1.1.7.9.4 1.2.2h1l1.4.4.4.2.1.1.4.4.3.6 1.5 1.5h1.8l.8.8.9.6.3.1v.3l.5 1.7 1.6 1.1.2.1 1.1 1.6 1.7.4h.1l.4.4 1.9.7v1l-2.8 1.7-3.1 2.3-1.6 2-.2.6-1 1-.6.9-.1.2-.4-.4h-2l-.7.3-1.4.7-1.9-1.9v6.1l-5.6-5.6 3 10.6-1.4-.5-.4.6v-.8zm12.6-2.5.3-.3-.4.2-.2-.2 1.8-.3-1.3.8-.2-.2z" class="st1"/><path d="m609.4 575.9-1.1-3.4-1.8 1.8-.1-.3v-2l-5.2 1.7-.3-.7-1.6.8.8-.8v-2.4l-.5-.9-.4-.8-.2-.3v-4.7l.3-.2.7-.4.3-.3 2.2-.9.7-.2 1-.3.2-.2.4.4 1.6-.5h2l.1-.1h1.7l.6-.2h1.7l.5-.5 1-.6h.5l.3.3v2.8l4.3-1.4.9.4 1.9-1.8.1-.2h.6l1.1-.7.6-.5 2.6-1.1 1.4-.9 2.5-.9 1.8-1 1.3-.3.3-.2h.7l1.3-.6.4-.4.7-.3.8-1.7.7-2.3-.8-.8v-.8l-.6-.3.2-.4v-.2l.1-.2v-1l1.3-.9.4-2.3.4-.8.4-.8v-.9l.2-.5.1-.2.1-.2.3-.5.6-1.3v-.1h.6l.7-.6.3-.1.2.9v1.4l.2.2v.2l.9 1 1 1h.8l.4.4h.7l.1.1.1.1.8.4.3.3h1l.3.1h.1l.1.1.4.1.4.4h2.6l1.4.6h1.1l.4-.1h1.4l-.6.6-.9 2.7.6 2.3.6.8-.2 1.3.5 2.9.5 1.5-1.7 1.1-1.7.9-1.8.5-2.5.6-2.1.8-2.5 1.2-1.8 1.2-1.2 1-.4.8-1.1.8-.3.7-.9.9-.9.4-1.2 1.8-.4 1.9v1.4l.2 1.9.3.4-.3.7-.1.1-.1.2-4.4-.2-3.3-.1-2.2.1-1 .2h-1l-.4.4h-.4l-1.8.2h-.6l.4-.2v-1.7l.1-.4v-.8l-.1-.6v-1.9l-2.1-.8-.8-.3h-.3l-1.5-.8-1.1 1.1-1 .5-.8.3-.4.3-.9.2-1.8 1.2-.5 2.4.3 1.4.1.2-.7.7-.8.1-.5.2-.9-.6zm-19.2-9.6h.7l.7-.7.4-.2.7-.1-1.5 1.5h-.7l-.3.3v-.8zm4 .3-1.4-1.4.6-.1h.2l.2.2h1.8l.3-.1-1.4 1.4h-.3zM516.7 618.1l-2.3 1.7-.6-.7h-.8l-.4-.4h-.1l.4-.7v-4.2h-2.5l-1.3-1.3H508v-.1h-3.7l-.6-.3h-2.3l-.1-.2-3.7-.7.2-.2v-.9l.3-.3V607l-.9-1-.8-.8v-1.1l-.5-.3v-.9l-.6-1.3-.3-.2-.2-.3-.7-.7-.8-.4-.6-.6-.1-.1-.1-.2.2-.8-1.5-1.5v-.3l.1-.8.3-2.1-.2-.4v-1.1l-1.2-.7-.1-.1-.1-.2v-.9l-.1-.3v-.9l.3-1v-1l-.1-1.3-.5-2.4-.8-1.9-.9-1.4-.1-.1-.3-.7-1.5-1.6h-1.2l-.8-.4-.3-.9-.6-.4v-.5l-1.4-1.4-2-1-1.4.7-1.9.5-.1.1-.8.1-.8-.3h-1.1l-.5-.2-1.5-.4-1.8.6-.1.1h-.1l-.2-.1-2.4-.3h-1.1l-.7.2-1-1.4-.7-.4-.6-.4-2.9-.7-1.9-.5-1-.4-1.7-1.2-.6-.2-.4-.2-.6-.4-1-.3h-1.5l-.2.1h-1.8l-.4.4h-.2l-.2.2-.4-.2-1-.5h-.9l-.1-.1-1.7-.9-1.6.3-1.9-1.1-1.2-.6-1.6-.4h-.9l-1.6.3-1.6 1.1v.2l-.6-.2-1.1.5-.3-.1h-.8l-1.3-.1-.5.1-.6-.5-2.1-.3.2-.3 1.5-.5.4-.5h.2l1.5-.7.5-.5.8-.5.4-.5.4-.4 1.5-1.4.5-.9.3-1 .5-1.1.2-.7.1-.3v-.1l.4-.1 1.4-1.3.1-.2.3-.4.5-1.4.3-.1.8-.6.6-.5 1-1.3.4-2.2-.3-.7.9-.6 1.2-1.9v-.1l1.1-1.2.9-2.2-.2-1.8-.2-.5.2-.1.6-.7.8-1.1.3-.9.3-.2 1.8-2.1.6-1.2.3-3v-.8l.3-.6.1-.2h.4l1.7-2 .6-.8.9-1.2.3-.4.4-.4.5-.3 3-.9.9-.6.8-.7 1-1.2.7-1.3.6-1.5.4-.6.7-.5 3.3-1.3.7-.2 1-.5 1.7-1.8.3.3 1.5.9 7.1 1 2.9.4h6.7l.5.1 1.2.4.4.3v.1l.3 1.4.2.8.7 1.5.4.5.3.8.9 1.3 2.7 1.2 1.3-.6.1.6 1.4 1.4 1.1.6 2 1.3 2.8-2.4.9-1.9-.4-1.2-.1-.6v-1h.1l.8.2 1.1.2 1.6-.5.4-.3 1.4.2.9-.4.7-.2h.7l1 .6h2.3l.3-.3.9.6h2.2l1.2-.8h1.7l1-.5 1.2-.8.4-1 1.9.9 2.2-.6.2-.1.4.4.7.4 1 .5.1.1v.8l-.1.2v1l-.1 1-.1.4-.1.3v2.3l.9.8.5.6.7.7 1.1.6-.3.2-.2 1.1-.2.2-.9 1.6-.1 1.6-.6 1.2.5.9v.7l1.4 1.4.4 1.3v1.7l.6.6 1.5 1.9.2.8.1.5.3.5v2.4l1.7.9.4.2 1.1.4 2.1-.3h1l.4-.3h.5l.1-.1h.1l.2-.2 1.1 1.2-.7 1.6-.3 1.1-.4.6-.7.8v2l.2.6v1.1l.2.5-.4.4v.3l-1.8 1.8 1.8 1.9.1.2.1.1-.7 1.6-.3 1.8.7 1.6.3.3v1.6l1.4.7.3.3 1 .4 1.1 1.1v.2l-.7.7.7 1.5v.9l1.3 1 .4.3.4.3.1.1v.8l.3.7.3.7 1.5 1.6h.7l.2.1h.4l.4.2h2.4l1.5.4 2.3-.4.9-.2.7-.4.2.2h3.2l.2-.3h.2l.1.2.2-.2 1.1-.9 1.1-1v-.3l.2-.2.1-.2.6-.6v-1.2l.8.1h1.1l.2-.1.2.1h1.9l.7-.3.4-.2.5-.3 1.9-.5.4-.3.6-.3.4-.7.4-.4.2-.2 1.2-.7h.1l.1-.1h.9l.8-.4h.9l.6-.2.5-.2.1.4.4.4v.1l.6.6v.3l.9.9.6.7 1.4.5-.9.6-.6.4h-1l-.2.1h-.1l-1 1h-.3l-1.9 1.9v1.8l-.2 1.2v.4l-.1.1-1 1.5-1-1.9-2.2 5.5-1.4-.6-.5 1.6-.9 1.2-1.7.9-.4.4-3.1-.6v2.8l-.4.8v.8h-.6l-.6-.1-.9-.4h-.5l-1.8-.4v.1h-1.7l-2.4.7-1.1.5-.7.4-.7.2-.5.2h-1.4l-.7 1-5.6-.9v1.2l-3.9-1 2.5 5-1.1.5-3.2 1.9-2.1 1.1-1 .6-.8-3.1-3.4 7.6h-.1l-.5.6-.2.1-1.1 1.3-3.9 2.3-1.1.4h-1.7l-.7 1-.1.1-.5.5-.8.4-4.3 3.4-.6.6-.3.4-.5.3-.3.5h-2.1v.2zM459.6 496.7l-.7-.5-.9-.9h-1.8l-.8-.4h-.8l-.2-.2-1.6-1.4-1.2-.6-1.1-.1-1.5-.5h-.8l-.5.1-.5-.1-3.3-1.5-.2-.3-1.3-.9-1.3-.6-1.1-.2v-.1l-.9-.8-1.9-1.3-1.7-.8-.7-.2-.8-.2h-.7l-1.1-1-1-.7-.5-.3-1.3-.4-2.8.5-.8-.3h-.4l.4-.5.4-.7.3-.8.3-1.7-.7-1.6-1-.9-2.2-1-1-.5h-.9l.2-2.2v-1.3l-.2-.5v-.7l-.7-1.4-.7-1.4-.3-1.3-.3-.9-.4-.8-.5-.8-1-1.6v-.4l1-1.4-.5-.9.1-.5.5-1v-1.6l.3-.7.2-.4.3-.5.1-.2.6-1 .4-.2.6-1 .4-.8.3-1.1v-1l.2-1.2.7-.3.9-.3.8-.4.3-.3.6-.3.8-1.1 1-.8.7-.9.6-1.3v-.2l.2-.1 1-1 .3-1.5.1-.8.6-2.7-.2-.1.4-.2.4-.7.6-.6v-1l1.3-.6.1-.3v-.1h.7l.7-.6.8-.4.6-1.7.7-.8 2.2-.2 1.4-.3 1.1-.8.1-.2h.6l1.4-.5 1.5-1.5.1-.8.5-.5.8-1.6.4-.7.3-1.2v-.4l.4-.6.7-.9.2-1.1.2-.6.2-.4.3-1v-.8l.5-.5v-1.3l.6-.4.9-1.2.6-.2.8-.7 1.4.3h1.6l.9-.6.4-.2 1.1-.5 1.8-1.7v-.4l.8-.9.1-.7.2-.1.6-2.3v-.8l1.1-2.2.1-.2.4-.4v-1l.3-.9V397l-.3-1.3-.1-.3.1-.1.3-.7v-1.2l.1-.3.4-1 .6-.3 1.3-1.3v-.1l.1-.1v-3.1l-.2-.2-.1-.4.1-.5.2-1.2v-1l-.2-.8v-.1l1.2-.6v-1.1l.5-1.7.1-.6.4-.4.4-.6.1-.1.2-.3.4-.3.6-1.3v-.3l.6-.8.4-.9.5-1.2.4-.8v-1.9l-.2-.3.1-.5.5-.5v-.8l.4-.4.3-.7.7.7 4.9 2.3h1.2l.7.6 5.4 2.6 2.6.2.5.1 2.1 1 1 .2h2.6l1.3-2.7v-.1l.2-.4-.1-.9v-.3l1.1-2.3 2.2-3.8 1 .5.9.7.1.1.2.3-.1.6v1.1l.3 1 .4.8.1 1.4-.2 1.1-.2.5v1.5l.2.5.1.3.2.7.4.8 1.5 1.4h2.3l.8-.5.7-.5.9-.6.4-.7.1-.2.2-.4.1-.3v-.1l.1-.3.1-.4.4.1h2.5l.8-.2.3-.1h.2v.6l3.4-.6h.1l.4.3.9.7 1.3.6h1.2l.7.4 4.4 1.6h1.4l1.3-.6.5-.6h2.3l.4-1 .2-.1 1.4-.5.2-.3.6-.2h1.2l.7-.6 3.1-1.6.5-.2 1.1-.2.5.1h1.3l1.5-.1.8-.3.8-.2 1.4-.9 2.1-2.3 1.1-.3 1.3-.3.5-.3 1.5-.1.5-.1v.5l-.5 2.9v2.6l.7.6-.7 1-.6 1.5-.4 1.5-.4 1.2-.1.5-.4.4v3.4l.3 2.8.9 3.4 1.2 1.6.9 2.7 1 .9 1 .6.6 1.1.6.5-.3.6v2.6l.2.4v.1l.7 1.5.1.2h-.1l-.5.7-.7 1.1-.3.1v.1h-.8l-1.3-1.6-.5-.4-.5-.4-1.8-.9-.6-.5-.6-.2-1.9-.9-1.7 1.7-1.3 1.6-.2.2-.6.7v2.8l-1.2-.2-1.8.2-.3.2-.9.2-2 2v.6l-.1.2v.5l-.7 3.4v3.5l-.3.5.3 3.1v3h1.4l.2 1.3h-.1l-.2.2h-1.5l-.1.1h-.1l-.1.1h-1.3l.2-1.1v-1.4l-.2-.2.2-.5v-2.5l-1.7-.9-.5-.3h-.1v-1.7l-2.9-.2-7-.2h-10l-1.3 1.9-.4 1.2h-.7v1.9l-.1.1v1.2l-.2 1.4.2.3-.8.8v.6l-.3.5.6 2.3v1.3l.1.1v1.9l1.7 1.6 2.6.4h14.3l.1.7-.2.6h-.1l-.6.7v.3l-1.3 1.2v1.1l-.4 1.6v3.3l1.3.1.7.9 1.4.7v1.5l1.3.1.4 1.3.3.6.1.2.1.4-1 1v.1l-.1.1v.8l-.6.6h-1.7v2.1l-.1.1-.7.6-.2.4h-1l-.9 1.9-.4 1v.1l-.3.6v.3l-.1.2v2.3l.1.2v.7l1.6 1.8 1.1 1.1h1.5l-.2.2v.6l-.3.3v.6l-.3.3v2.4l.2.5.1.5.2.3v.2l.3 1v.1h-.2l-.9 1-1.9.7-1.1.6-.8.9-.5.8-.3.5-3.6 1.9h-.2l-.5-.1-.7-.7h-1.7l-.2-.2-1.6-.6-1.3-.3-1.2-.2-1.5.1-4.9-.2-4 .2h-.3l-1.2-.3-1.9-.3-2.1 1.2-2.5 1-.9.6-.5.6-.6.7-1.1 1.1-.4-.5-1-1h-2.3l-.2.1h-.8l-.9 1.1-3.9 1.6-1-.2-2.4-.1-1.3.3-1.3.6-.3.2-3.2.6-1 .3-1.4.8-2.8 3.9h-1.8v3.7h-.2l-2.1 1-.6.7-.3.1-1.5 1.5-.1.6-1.2.8-.4.9z" class="st0"/><path d="m555.3 571.4-.3-.2.1-.3v-1.7l.1-.2v-3.8h-3.1l-.1-.1-1.9-1.9h-.6l-.3-.4v-.1l1.1-1 .6-1.3v-1.6l-.5-.8.2-.2v-2.2l-.5-.8-.1-.2v-1l.3-.3v-.9l1-1 .4-1.1.9-.9v-1.2l.5-.5v-4.3h-.6l-.6-.6-1.3-1.3h-.5v-1.4H546l-.3-.3h-1.9l-1.2-.2-.3.3h-.2l-.3-.9v-2.7h-1.6l-.1-.4 1.2-1.2-2.3-2.3-.2-.4h-.1l.1-.1.5-1 .1-.3 1.2-1.2v-.8l.1-.2v-1.5l-.1-.5-.6-2.1-.1-.2v-.4l-1.4-1.4-1.3-.6v-.5l.7-.6v-.8l.2-.6v-1.9l-.5-.9-.4-1.2-1.1-.8-.2-.3-1.7-1.2v-.1l-.6-1.3-.6-.6-.4-.3-1.8-1.7-2.1 1.4h-.2l-1.1.2-1.5-.5-3.8.1-1.2.7-.5.4-3.5-1.1v1.3l-2.4-1.9-2.2 3.4h-.9l-1.3.3-.7.1-1.6-.2-1.5.8-.8-.2h-.7l-.8.1h-1.6l-1 .6-.2-.4-3.3-.4-.2.1.3-1.3-1.7-1.7-1.2-.6-1.3-.4-1.2.3h-.3l-1.9-.6-1.5-.3H482l-2.5-.3-5.6-.8-.2-.4-1.2-1.1-1.7-.6h-1.6l-1.5.4-1.8 1.1-.6 1.1-.8.8-.2.1-2.2.9-.3-2 .4-.4.3-1.5.1-.1.5-.8.8-.6.1-.1 2.9-1.9-1.8-2.4.1-.5.3-.2 1.3-.9.3-1h1.1l1.1-.4 1.3-.7.4-.6h1.4l.1-2.2.9-.9-.8-1.4.2-.2 2.1-3 4-.8.9-.6.2-.1 1.2.1 1.6.3 1.5-.3 4.2-1.7.3.3.5.7 1.5 1h2.1l1.3-.9 3.6-3.5.6-.8 2.1-.8.6-.3.8.2 1.3.1 4.2-.2 5.1.2 1.1-.1.4.1h.1v.1l2.5 1.2h1l1 .5h.8l.4.4h2l1.1-.3 5.7-3 .8-.8.6-.9.3-.5 2.6-1v-.1h.1l1.1-1 .4-.2.5-.6.8-.2v-.1l2.9-.7-2-3.9v-1.2l-.5-.6v-.1l-.3-.6v-.1l.3-.3v-1l1.3-1.2v-3.3l-.3-.8-.3-.7-.6-1.2-1.2-.6-.3-.2-.7-.7.1-.3.2-.4.2-.3h.1l.1-.1h1.3v-1.5h.1l.2-.1v-.1l.3-.4h.1l2.6-2.5-.3-.5.7-.7v-2.5l-.4-1.1-.3-.7v-.1l-.2-1.3-.5-.5v-.1l-.4-1.2-.4-.9-.1-.2-.5-1.2-1.7-1.7-.3-.1-.3-.3-.4-.2.3-.3.2-.5.6-.6v-.6l.1-.2.8-1.9v-.2l.2-.6-.2-1.3h2.2v-1.7l.1-.2h.6l.8-.5h1.6l.4-.3h.3l.8-.4h.3l1.6-.9 1.2-1.2v-.8l.3-.5-.3-1.3v-1.4l-.3-.6-.2-.5-.2-2v-3.1h-.7l.3-.2.7-1.5v-1.5l-.3-.9-.3-.5-.2-.8 1.9.9h1.4l.2-.1h.7l1.3-1 1.5-1.2v-1.2h1.7l.3.1h.6l.5.4h1.4v.1l-.3.5-.4.5-.1.4-.4.4v2.7l1.1 1 .8.9h2.2l1.6-.8.2-.3h.4l1-.8.4-.4 1.6.2h1.3l1.7-1 1.2-1.2.7-1 .9-1h.2l1.2-.2 2-1 .5-.6h1.3l.8-1.6.5-.5.7.7 1.6-1.7 5-2.8 1.8-1.4v-.7l2.2-1.3.3-.5.2-.2h.2l.6-.5.7-.4h.1l1.8-.6 1-.6.6-.1.8-.4.4.1h.7l.5.3h.2l.1.1h1.8l.3.2h1.2l.4.4h.1l-.1.4-.1.1-.5 1.9.4 1.3v.9l.1.3v.9l1.6 1.6 1.3.6 1.3.2.5.5 5.9 1.5 1.3-.4h.7l1-.9.5-.4.1-.2.8-.9.7-.3.6-.1.3-.1h.3l.3.2 1.6.3h.3l.8.4.7.7 2.1 1.5.7.7.4.4.8.5.7.7 1.9.9h1.1l.3.1.5.7.7.3.5.4 2.8 1.3.5.3.8.3 1.6.3h.1l.1.1.3.2.9 1h.7l1.5.8 1-1 .4.1h1.9l.6-.5.4-.2v-.1h.2l4.5 4.1 2 1.9.5 3.8 1.1 3.3 2.5-.4h.3l.6.2 1.3.8 2.1-.5.9-.5.6-.1 1.2-.5.5-.4h1.1l.7.9h.4l.5.5 1.6-.5h.4l.3-.1h.1l1.2 1.3h2.9l.1-.1.5.2.9.3.8.2v.7l1.7.1.8.7h1l1.1 1.1.9.5.8.4-.1.4-.2.6-.2 1-.1.1-.1.1-1.7 1-1.7 2.6-1.8.6-1.3 1.4-.2.7-.5.5.3 1.9v.3l-.3 1.3-.1-.1h-1.8l-1.1.9-.6.6-.1.3-1 1v.7l-.6 2.7-.3.9-.2.8v.8h-.3l-.1 2.2-.2.3v1.1l-.1 1v2.2l1.5 1.4.8.3.1.2v1.3l1.5 1.4 1.1.4.2.4.4.3h-.4l-.6.6h-.5l-.7.2h-1.1l-.8.8-.3-.1h-1.2l-.8.3h-.7l-.2-.2h-2.4l-1.1.9-1 1v2.7l-.2.2h-.8L657 473l-.2.5-.2.3-.3.7-1.4 1.1v.8l-.3.7.3 1-1.2 2.5 3.5 1.7h.3l-.2.7-.2 1.2v.9H656l-.4.2h-.6l-1.4 1.3-.2.4-.5.6v2.7l.6.6v.1l.9.9.6.6.8.3.3.2v.5h.5v.9h.4v.2l.9 1.8h1l.1.1v.4l-.1.5v1.2l.2.4v.2l-.2.4h-.1l-1 .9-.5.4-.6 1.3v.9h-.2l-1.8 1.8-.3 1.5-.3 2.4h-.2l-1.2 1.3-.2.3-.9.9v.1l-.1.1v1.5l-.6 2.1-5.1-.1-1 .3-.8.5-1.5 1.5v.6l-.8.4-.4.6-.8.9v3l.5.4.2.6.2.2-.2.2v.9l-.7.9v2l-1.3 1.2.3.5-.3.6h-1.1l-1.7.9-.2.3-.1.1-.8.7-.8 1.8.3 1v1l-.1.3-.7.7v.6l-.1.2v1.2l-.3.7-.2.8-.1.1-.3.2-.6.6-.8 1.7v1.5l-.6 1-.7 1.3-.2 1.3v.8l-2 1.2-2.5.9-1.5.9-2.8 1.2-.7.4-.3.3-1.3.1-.2.1h-1.9l-.3-.3h-1.3l-.1-.1h-2l-1.3.3-1.6.9h-.2l-1.5-1.5-1.4 1.4h-.9l-.2.1-.1-.1h-1.9l-1.2.4-1.5.7-.5.3-.5.2-2 .8h-.1l-.2.1h-.1l-.7.3-.8.4-.5.6-.6.3h-1.3l-.8.1h-.4l-.5.1h-1.5l-1 .5-1.4.8-.3.1h-1.4l-.9.9h-.8l-1.6.5-.8.5-.8.6-.8.4h-1.3l-.5.3-.5-.2-1.1.6-1.6.7-.3.3-1.1.6-.2.2h-2.3v.7h-2.3l-.6.5h-.3l-.8-.8h-1.7l-.8.1h-1.4l-2.5 2.5h-.9v2.1l-.8.8h-2.5v.3h-.9l-1 .2zM522.1 368.7l-1.9-.9-.3.3V366.9l-.9-1-1.1-1.1h-2.1l-1.5.6-.8.6-1.8 1.4h-.2l-.3.1h-.7l-1.2-.5-1.2-.4h-1.3l-.2-.2.1-.7v-1.4l-1-2.1-.6-.7-.7-.7-1.7-1.3-.2-.1v-3.1h-4.2l-1.6 1-2.2 1.7-3.6 6.2-1.1 2.5-1-.3-2.2-.2-3.8-1.8-1.2-1.1-.7-.2-1.3-.6-.7.3-2-.9v-.4l.1-.1 1-1.4.3-.8.2-.9v-1.1l.7-.8.4-.7.3-1v-1.8l-.6-1.3-.7-.6-2.1-1.4-3.7 2.1-.2.3-.5.2-.1.1h-.1l-1.8 1.8v-.6l-.3-2 .1-.2v-1.5l-.8-1.8-.3-.3-.1-1.6h.6l.1-2.3.1-.3v-2.2l-.1-.1v-1.9h-.4l.2-.1v-.4l.2-1.8v-1.6l-.1-.1v-.1l-1.4-1.4-.2-.1.1-.2v-.5l.3-.8.5-.5v-.7l.3-.6v-.6l.1-.6v-1l.5-.4.6-1.3v-2.2l-.2-.6v-.1l.2-.2V323l.3-.1v-1.1l.2-.3v-2.3l.3-.4.2-.3.9-.4v-1.8l.2-.5.4-.9-.1-.4.1-.1.9-1 .7-1.5.3-1.4.1-1.3-.1-.7.1-.1.9-1 .5-.8.3-.8.1-.6.3-1.1.1-.2.4-.6.4-.7.6-1.1.1-.3.3-.3.1-.2.3-.4.5-1.4v-.3l.1-.3.4-1 .3-.9.1-1.6.3-1.1.4-.8v-.7l.8-.7.3-.7.5-.4.6-.8 1.2-1.6.6-.8.8-1v-.3l.9-.8v-.4l.2-.1 1-.2 1.3-.6.9-.9.6-.9.4-.9.8-1.1.6-1.1v-.7l1.1-1.6.6-1.8.7-.4.6-.7.9-1.3v-.8l1.5-4.5.2-.3.5-1.4V264l.3-.7.2-.9v-1.5l.1-.4v-1.7l-1.2-1.2-.8-.6-.8-.3-1.2-.8-.5-.4-.1-.2.1-.1 3-3.6.8-1.9.3-1.1-.1-3.7-.4-1.4 1.9-1.2.5-.4 1.6-.5H503.6l1.2-.7 2.6-1.2 1.2-.8.8-1.5.2-1.3-.1-1 .4-.5.8-.8 1.5.4 2.9-1.4v-3.2l-.4-.9 2.3-1.4v-2.6l.8-.8.5-1.9-.4-2 .1-.1.9-1.1 1-1.3v-2.1l-.6-1.2-.7-1-.2-.2-.1-.1-1.1-1.1h1.8l.8-.3.3 1.3 1.4.9 1.2.6h1.7l1.1.6.4.3.9.6.5.1-.3 3.6 1 1.1v.2l.5.7v.1l-.2 1.3v3.2l.2.8v.4l.4 1.4.2.3-.7 1.5.2.8-.2.5v1l-.6.9v1.3l-.5 1.3-.3 1.8.1.2-.2 1v3.1l-1.1 1-.4.6-2.1.7-2.2 3.3 2.5 2.9.4.2.3 1-1.3 1.1 4 2.7v1h1.4l.3.2v.3l.7.4h.1l.4.2v.4l.9.9.1.2v.3l.4.2.8.8.9 1 .1.2.9 1.2.7.3.5.7v.1l.6 1.2.8.8.1.2.1.1.4.7 1.7.8h1.1l.5-.1.7-.1.1-.1h2.3v-1.4l.2-.1h.1l1.2-.3h.6l.6-.5.9-.1.1.1v.4l-1.7 1.7.5.6v1.2l-1.5.2-1.1.5h-.6l-1 .9-1.2 1.1-.1.2-.6.7v.6l-.2.1-.4 1.6-.3 1.4-.2.4v.4l-.5.5v2h-.1l-.3.4-.3.1-.4.7-1.8 1.8v.1l-.1.1v.7l-.2.4v2.9l1.4.7.3.3 1.5.7h.4l.5.2.7-.1.2.3.1.5V292.2l.6.6.4.8.8.8 1.1.8 1.3.8-.5.8-.2.4-.3.9v2.8l1.3 1.2 1.3.9.5.4 1 .7-.1.2v1.9l.1.1v.1l1.4 1.3.1.5.8 1.1.3.2.3.6 1 .9 1.1.4 1 .2h1l1.1-.2.9.2.4.7.7.7.8.4h-.2l-.3.3h-.2l-1.1.4-1.2 1.2h-.5l-1 .9-.2.2-.6.7-.1.1-.4.2-.8.7-1.1 1.1v3l-.6.6-.5.9-1.2 2.4-.4 1.1-.3.2-.9.9-.8 1.4-.2.4-.4 1.2v1.6l.3.7.2.4.6.9.6.7.5.2v.6l1.4 1.4 1.5.7h.6l1.1.2-.7.7v.1l-.1.1v1.8l.2 1.4.4 1.2.6.7-1 .6-1.4 1.4v1.1l-.1.3-.1 4.8v.7l.5 1.5.4 1.1 1.1 1.1 1.3.6-.8 1.3-.3.8-.1.3h-1.9l-1 .5-.3.2-.3.1-1.5.4-.8.3-1 .5-.6.5-1.8 2.1-.3.1h-1l-.5-.1h-1.1l-1.8.4-1.3.3-3.7 1.9h-.3l-.7.3-1.8.6-.6-.6v-2.2h-4.6l-.9.9-.5.4-1.5.8v1.1z" class="st0"/><path d="m669.9 288.9-.1-.1v-.1l-.1-.1v-.9l-.1-.1-.9-1-1-1h-1.1V283h-.8v-.3l.2-.5V281l-.1-.2v-1.3l-1.4-.7-.9-.9h-.6l-1-1h-.1l-.3-.3v-.1l.6-.5h1.4l1-.9.3-.3.2-.3 1.7-.8.3-.8.8-.4.3-1.1.8-.5.5-.5.2-.2h.1l.1-.1h.1l1-.9.8-.8.3-.8.8-1.8.2-1.3.1-2.1-.1-1.8-.4-1.3-.9-.9-.4-.3v-.3l.2-1.2-.3-.7v-.6l-.3-.4 4.4.1 1.8.5h1l2.5-.3.8-.4.6-.3.8-.4 1.1-.1 2.9.4.8.7.4.4.6.6 1.1.5.7.1.7.5 1 .4.3.5 1.4 1.6.9.6 1.4.6.3.1.2.6v2.5h6.3l1.6-1.6.2-.4.4-.4.2-.4h1.1l.5-1 .6 1.2 1.5.5.4.4h2.2l.5-.3H712.5l.6.7 1.1 1.1h.6l.3.2h2l1-.5h.7l.1-.1.1.1h1.8l1-.9.1-.1h.6l.7-.3.3-.2.9-.5 1.2-1.2v-.4l1.1-.4.5-.3.5-.2.7-.7.5-.7 1.8-.7.6-.3h.9l1.2-1.8.1-.1.2-.2.1-.1.3-.1h.2l.7-.3.1-.1-.6 1.2-.1.8-.2.5v1.9l.1.1-.3.2v1.3l-.5.8-1.1.7-.5.9-1.7 1.7 1.3 1.3v.1l1.9 1.9h.6l1.5.8.3-.3.3 1.5.4.4.1.2 1.6 1.6 1 .5h.1l.4.4 2.2 1.1 1-.3h1l.7-.7.6-.4.6-.1h1.3l2.2-2.2.6-.3 1.8-1.8v-1h1.1v-.8h.1l1.2-.6h1.9v-1l.7.2.5-.5h1.3l.2.2h1.8l.5-.1h.1l1.6 1.6 2-1.9h.4l1-.9.4-.4.2-.3.6-.2h1.4l1.3-.6.2-.2.3-.2 1.8-.6 1.1-1.8.3-1.4h.5l.7-.3.8-.4.7-.7.2-.3 1.4.3h.8v.1l.9 1 .8.8.4.1-3.2 4.8h-4.6l3.2 2.1-1.7 2.5 3.1-1.6 2.9 1.9-.1.2-.5 1.2-.2 1-.1 1v.2l-.3.6v.4l-1.2 3.2-.8 1.6-.2.2-.4 1.6v.4l-.4.6-.1.2-.5-.1h-1.4l-.1-.1-.2-.1-.9-.9h-2.5l-2.4.7-.7.2-.4.3-.5-.5h-1.9l-.4.1h-1l-.3.1-.5-.7-1.9 1h-.5l-2.2 1.6-.3.1-1.6 1.6v.5l-1.3.8-1.3 1.3v.5l-1.3.1-1.2-.5-.7.5-.4.3-.6.3-.1.1h-.6l-3.9-.4-2.2.4-.5.4h-.1l-2-.3-.4-.2-4.2-4.1-1.5-.8h-.1l-1.4-1.7h-2.7l-.4.1-1.2-1.2-1.7-.9-1.9.6-1.6 1.1-.8 1.5v.8l-.2.5-.7.5-1 1.2-.3.4-.5.1-.7.2v-.1l-.7-2.2-.6-.6-.2-.5-2.4-1.2h-.1l-1.1-2.2-3-1-2.3.7-.1.1-.4-.2-.3-.1-.8-.8-1.1-.2-1.5-.8-1.2.6-.2-.1-1-.6-2.2-.7-.9-.4-.4-1-1.4-1.4-1.2-.3-1-.6h-1.6l-1.1.3-3.8 2h-.7l-1.6.4-1.4 1.4-.4 1.6-1.2.1-1.1.5-1.8 1.2v2.4l.2.8-.3.1-1.3.5-.1.1-.5-.2-1.1-.3-2.7.3-1.6 2.3-.8 3.6-1.1.3-.5.6h-.2v-.9zm115.4-26.4z" class="st1"/><path d="m752.5 309.6-.6-.7-1.3-1.5-1.9-.6-.9.2-.7-.5h-.3v-.1l-1.4-1.3v-.4l-.3-1.3-1.1-1.4-2.1-1.1-.6.2-.8-.7-1.4-.5-.6-.2-1.3-1.3-1-.5-1.1-.6-1.6-.4-1.4-.6-.9.2-.9-.6-.3-.1-.6-.6-1.4-.7-.9-.1-1.4-.6h-.1l-.2-.2-1-.7-.5-.1v-.5l-2-1-1-.4v-.1l1.4-.4 1.5-.7 1.1-1.5.3-.4.5-.4.6-.5.2.2h2.3l.9-.3.5.5 1.1.2.3.1 4.2 4.2 1.7.9.8.2 1.2.2.6.7 1 .5 2.8 1 1.4-2.5 2.5.3.8.3h1.6l1.5-.7.3-.3.8-.4.6-.4 2-.1 3.2-2.3.4-1 1.8-1.1 1.3-1.4.1.1 1.2-.6.7-.3.6.2.2.1.9.5h2.2l1-.5 1.2-.7.1-.1.1.1h1.5l.9.5h1l-.1.2-.7.9-.2.7-1.2 1.5-1.4.8-1.2 1.5-.1.7-1.2 1.7-.3.3-.8.3-2.4-.9-.7 1-.8-.4-5.3 2.2 3 4 .3.2.2.7-.9.7-.5 1.1-.7 1-.4.8-.7.2-1.3 1.7-2.1 1.8-1.3 1.3-.2.9h-.2zM679.7 469.3l.2-.3.2-1.2v-1.5l-.4-.8-.4-1.1-1.5-1.5-.6-.2-.4-.6-.7-.7-.3-.2-.1-.2-.8-1.5-.7-.4v-.4l-.3-.6-.3-.8-.1-.1v-.1l-.3-.7-.7-1.4v-.3l.5-.9-.6-1.2.2-.7.3-1.5h2.2l.3-.1h1.4l.6-1.2 1.5-.7v-3.2l-.6-1.2.1-.4v-.2h.8l1.9-1.8v-1.1l.7-1.1 1.1-.7.5-.4.9-.7.2-.4.4-.5.6-1.7v-.7l1.1-.5v-3.6l-.4-.5v-.5l-.9-1-.3-.3v-.1l-.6-1.2-2-.8v-.2l-.7-.3-.1-.1-1.8-1.2-.5-.2-.5-1.6h-1.6l-.5-.2-1.8.1h-.4l-.2.1-.1-.1-1.4-.6-2.1-1-.4.4-1.2-.6-.4-.1-.5-.3H667l-.5.2-.5-.4-1-.5h-1.7l-.1.1-.5-.3h-2.2l-.3.3h-.3l-1.2 1.2-.2.2-.5.1h-1.3l-.5-3.9-3.6-3.4-7.7-7.1-1.5 1h-.4l-.1.1h-.6l-.1.1h-.7l-.4.8h-.8l-.4.1-.4-.2-1.1-1.1h-2.2l-.1.1-2.6-1.2-.7-.6v-.1l-.2-.1-1.1-.9-.5-.2-.8-.7h-1.5l-1.1-.7-1.1-.9-1.6-1.2-.1-.4-.2-.2-.3-.4-1-.7-.3-.3-1.9-.6h-.3l-.5-.2h-1.1l-.5-.3-.8-.1-.5-.2h-1.7l-.3.1h-.2l-.7.3-.6.1-2.3 1.1h-2.1v1.4l-1.7-.5-.2-.1-.6-.6-1-.2v-.5l-.1-.1.2-.2.4-1.3v-.1l.2-.2 1.6-2.6-2.3-2.3-.3-.1-.2-.1-.7-.7h-.9l-.3-.2h-.3l-.2-.1h-.9l-.4-.2-4.6-4.6v3.5h-2.5l-.3.2h-1.8l-.8.7-.7.1-1.4.9-2 .6-.5.3-.9.5-.4.2-.4.2-.7.6-.5.5-.3.3-1.2.7h-2.4v2.4l-.2.2-3.1 1.7h-.6l-.6.2h-.7l-.2.1h-2.4v2l-.7.7h-.2l-1.4 1.4h-2.5l-2 2v.3l-.2.1v.1l-1.7.9v.9l-.3-.1h-.1v-1l-.6-.9V405.6l.1-.2.2-.2.7-.7.4-.8.3-.9.3-1.2-.3-1.3-.1-.4-.1-.9-.5-.9v-.1l-.2-.3.4-.8.5-1.5v-2.2l-1.1-1.1-.9-.9h-.6l-.3-.5-.7-.8-.5-.5-.6-.3-.5-1.5-.3-.6-.8-1.2-.5-1.9-.3-2.1v-1.1l.1-.3.2-.8.4-1.1.3-1.4.8-.6.7-.6.8-.7.4-.9.3-1.1v-2.6l-1.6-1.7h-.3v-.1h.1l.4-.2.1-.1.2-.1.8-.8.6-1.3v-1.9l-.5-.6-.1-.3-.8-1-2-1.3 1.4-2.1v-.3l.1-.3-.1-2.4v-1.2l-.1-.1V353l-2.1-.1-.6-.2-.9-.2.1-2.8.4-.2.7-.7.4-.6.7-.2.9-.4.6-.6.4-.2 1.3-1.3v-2.4l-1.1-1.5-.4-.7.4-.3.4-.8.4-1.3v-2.1l-1.3-1.3-.5-.3-.3-.2-1.9-.9-2.2-.7-2.2-.3-.2-.6-.1-.1-.3-.4h.1l.7-.7.4-.8.6-1.7.7-1.7h1.1l.7-.6.2-.1 1-1 1.2-2.6-1.3-1.3.2-.3 1.1-.5.7-.8h.4l.8-.5.6-.4.9-.5.9-.6.5-.2.7-.3.3-.2.3-.2.7-.9 1.1-1v-.1l.5.5.4.7v.1l.1.7v.5l.3.6.1.4v.4l.7 1 1 1.2.9 1.5 1.7 1.6h.8l.4.3 1.1.4h.1l.4.3.4.3.8.3 1.6.7h2l.2-.1h.6l.5-.5 1.2.3h1.7l.6-.3h2.3l.1-2.3.1-.2h.8l1.6-1.5v-.1l.4-.4.6-.3.1-.2 1.1-.3.5-.3.7.1.9.4.7.3h1.5l2.1-.7.9-.4.9-1 1.6-1.6h.7l.5-.5.3-.1 1.1-1 .5-1.1.4-.4.5-1.1.1-.6 1.1-1.5v-.1l1-1v-.9l.1-.1v-.4l.2-.3.5-.8.5-1.4v-1.1l-.2-.7.2-.4.1-.4.4-.4-.2-2.5-.2-.6v-2.5h-1.2l-.3-.9 1.4-1.5h.4v1.2h2.2l.9.3h1.8l.2-.1.2-.2h2.6l.4-.3.5.6v1.5h1.8l.2.2h.6l.3.1 1.1.6h2.9l.1-.3.3.4h.9l.4.2h1.9l1.1-.9.4-.4h1.3l2-1.9v-.5l.1-.1.1-.1h2.1v-1l.4-.4 2.4-.4.4-.3.7-.4h2.3l.2.1h2.1l.8-.7.5-.3.7-1.1h2.1v-1.8l.1-.1v-1.8h1.9l.8-.8h2.1v-2.4l.1-.3 1.2-1.1v-.2h.3l.4-.1h.3l1.4.7.8.4h1.1l.5.6v.1l.1.3-.1.4v1.2l.1.2v.1l.6 1.2v1.9h.6l.4.8 1.7.8.5.3v.1l-.3.2-.5 1.1 4.8 3.4-1.7.7-.9-.2-.4-.2 1.3 1h.6l.6.3h1.6l2.3-.8 1.5-1v-.2l.6-.2.5.2.7-.4h.7l1.5-1.4.6-1.3v-.6l.1-.2.4-2 1.2.4 1.6-1 .6-.4.4-.1 1.2-.3 1.1-.7 1.5-1.6.6-1 .3-1.5.6-.1.7-.2 1.2-.4 1.6-1.5v-1.3l2.9-1.5.1.3.4.3.3 1.1 2.5 1.3.3-.2.4.2.8.1 1 .3 1 1.5h2.4l1.3-.2.3.3.5.2.9 2 1.2 1.2 2.2.6.6-.3 1.1.4h.1l.4.3 1 .4.2.8.2.3.9 2.6.4.8.4.8v1.4l1.4.7.8.7h.9v1.6l.3.7V300.1l.5 1 .4.7.8 2.1.9.9.3.2.3.5 1.4 1.6.4.3.2.2v1.4l-.2 1.4v.1l-.2.1-.2.5-.6.7v.7l-.4.7.7 1.8-.2.5v1.2l.1.2-.2.1-1.1-.5-1.2-.3h-1.7l-.3.1h-.4l-1.3.7-.9.8-.1.2-.4.5-.2 1.1-.4.9-.3.9v1.7l.6 2 .9.6.3 1.1 1 .7.1.1.3.2.1.2.1.6.4 1.5.9.9.2.1-.1.1v2.9l.7.7.2.4 1.6 1.2.6.1.4.3h.6l.2.4 1 1.3 1.3.5.7.4.9.2.7.3h1.1l-.4.5-1.2 3-.6 1-.4 1-1.2 1.6-1.4 2.8-1.6 2.3-1.2 1.8-1.2 1.8-.8 1.1-.3.1-3.2 3.8-.5.6-.5-3.6h-2.3l-.4-.4-.1-.3-.5-.3v-2.1h-4.8l-1 1.7h-5l.8 2.3-3.3 1.1 3.2 3.2.1.2.6.8.1.1.3.9.4.5-.6.3-.9 1.7v1.7l-.3.2-.9 1.8-.2 1.2v.2l-1.3-.2-.6 1.7-.2 1.6-.2.7-.7.2v3l-.3.3-.5 1.9-1 1 1.8 1.1.8 1.6.1.5.4 1.3-1.2 2.3.5.4.4 1.4.8 1.5.2.1.2.6-.1.1v.6l-.1.5.1.2v.6l-.2.6-.2 1.6-.4 1.1-.2.8v.6l-.3.9.4 2v1.6l.6 1.2v.3l.3 1.5.1 5.5.5 2 .1 1.7.6 3.4.5 3.4.7 1.6v.1l.1.4-.2.6-.1.4-.6 1.7v.3l-.2.4-.3.9-.1 1.6-.7 1.4-.2.9-.3 1.1.1.6-1.3 2.1.3.8-.6 3.4-1 3.3v2l.1.2-.2.5-.4 2.8-.1.1-.5.8-.3 1.1-.2 3.4.3 2.5.3.8v3l.2 1 .3.5-1.3 1.3-.3.6-.8.1-1.4.9-1.1.9-1.3 1.6-2.5 3.9z" class="st1"/><g id="label_points"><path d="M411.4 728zM411.4 728zM250.8 55.7zM250.8 55.7zM411.6 214.3zM411.6 214.3zM86.8 300.2zM86.8 300.2zM443 78.7zM443 78.7zM380.5 517.4zM380.5 517.4zM440.1 613.2zM440.1 613.2zM478.3 673.2zM478.3 673.2zM165.5 187.8zM165.5 187.8zM210.1 318.4zM210.1 318.4zM360.2 374.5zM360.2 374.5zM573.2 208.9zM573.2 208.9zM621.5 265.7zM621.5 265.7zM691.3 201.8zM691.3 201.8zM748.3 218.6zM748.3 218.6zM761.4 246.4zM761.4 246.4zM710.2 270zM710.2 270zM750.9 300zM750.9 300zM735.1 314.5zM735.1 314.5zM647.9 352.4zM647.9 352.4zM674.5 497.2zM674.5 497.2zM630.6 564.7zM630.6 564.7zM511.2 559.7zM511.2 559.7zM476.9 442.5zM476.9 442.5zM524 424zM524 424zM594.4 481.7zM594.4 481.7zM512.4 316.4zM512.4 316.4z" class="st1"/></g><path d="M3.5 504.7h221.6L67.3 667.4v-70.6l39.1-39.4H49.3z" style="fill:#63c2ce"/><path d="m140.2 538.4-4.2-2.8c.5-.7 49.7-73.6 149.2-139.2 58.4-38.5 122.6-67 190.6-84.7 85-22.2 176.4-27.4 271.5-15.7l-.6 5c-214.1-26.4-367.6 39.6-458.7 99.7-98.7 64.9-147.4 137-147.8 137.7z" class="st3"/><path d="m140.1 538.5-4.1-2.9c.6-.8 56.4-79.6 156.6-151.4 58.9-42.2 121.3-73.8 185.6-93.8 80.4-25.1 163.9-32.2 248.1-21.1l-.7 5c-189.2-24.9-338.3 48.3-430.1 114.1-99.4 71.1-154.8 149.3-155.4 150.1z" class="st3"/><path d="m140 534.6-3.9-3.2c.5-.7 55.6-67.7 156.1-128 59-35.5 122-61.8 187.2-78.2 81.5-20.5 166.6-25.6 253-15l-.6 5c-194.3-23.8-344.9 37.2-437 92.5C195 467.7 140.6 534 140 534.6z" class="st3"/><path d="m139.9 538.7-3.7-3.3c.5-.6 52.3-58.7 144-111.8 53.8-31.2 110.7-54.7 169-69.8 72.9-18.8 148.3-24.5 224-16.9l-.5 5c-170.2-17.1-305.9 37.3-389.8 85.9-91.1 52.7-142.4 110.3-143 110.9z" class="st3"/></g></svg>