<svg xmlns="http://www.w3.org/2000/svg" id="Camada_1" data-name="Camada 1" viewBox="0 0 1015.58 230.21"><defs><style>.cls-1{fill:#1f3b85}</style></defs><path d="m69.86 51.83 4.53-2.42a12.49 12.49 0 0 0 4.39 6.65 12 12 0 0 0 7.49 2.37c3.69 0 6.56-1.09 8.63-3.26S98 50 98 46.15a11.36 11.36 0 0 0-2.09-7q-2.09-2.77-9-6.44-8.79-4.65-11.69-8.19a13 13 0 0 1-2.9-8.5 13.17 13.17 0 0 1 4.19-10.1A15.38 15.38 0 0 1 87.43 2 15.13 15.13 0 0 1 95 3.87a13.91 13.91 0 0 1 5.26 5.55l-4.09 2.46a8.85 8.85 0 0 0-3.6-3.81 11 11 0 0 0-5.5-1.31 9.29 9.29 0 0 0-6.84 2.52 9.16 9.16 0 0 0-2.54 6.82q0 6.12 10.09 11.41 1.83.94 2.79 1.47 7.42 4.1 9.93 7.73a16.3 16.3 0 0 1 2.51 9.44q0 7.83-4.58 12.42T86 63.16a16.7 16.7 0 0 1-9.79-2.84 18.51 18.51 0 0 1-6.35-8.49ZM130.15 63.16a18.14 18.14 0 0 1-7.23-1.49 20.52 20.52 0 0 1-6.28-4.27 17.69 17.69 0 0 1-4-6 19.15 19.15 0 0 1-1.4-7.31 18.8 18.8 0 0 1 1.44-7.31 18.43 18.43 0 0 1 4.09-6.12A18.78 18.78 0 0 1 130.15 25a19.6 19.6 0 0 1 7.42 1.43 19.14 19.14 0 0 1 6.26 4.14 18.73 18.73 0 0 1 4.17 6.2 18.54 18.54 0 0 1 1.47 7.23 18.75 18.75 0 0 1-1.47 7.29 18.4 18.4 0 0 1-4.13 6.11 19.86 19.86 0 0 1-6.34 4.27 19.09 19.09 0 0 1-7.38 1.49Zm.16-4.57a13.13 13.13 0 0 0 9.84-4.2 14.25 14.25 0 0 0 4-10.27 14.34 14.34 0 0 0-4-10.34 13.68 13.68 0 0 0-19.67 0 14.34 14.34 0 0 0-4 10.34 14.27 14.27 0 0 0 4 10.27 13 13 0 0 0 9.83 4.2ZM164.93 61.61h-5V0h5ZM183.18 26.35V44q0 8 2.28 11.33c1.53 2.2 4.1 3.3 7.73 3.3s6.19-1.12 7.75-3.34 2.35-6 2.35-11.29V26.35h4.85v20.11q0 8.24-3.78 12.47t-11.09 4.23q-7.35 0-11.17-4.23t-3.81-12.47V26.35ZM248.6 32.79a18.79 18.79 0 0 0-5.25-2.56 19.34 19.34 0 0 0-5.72-.86 13.55 13.55 0 0 0-10.45 4.2q-3.9 4.18-3.9 11.19a13.8 13.8 0 0 0 4 10.21 14 14 0 0 0 10.31 4 17.89 17.89 0 0 0 5.78-1 22.4 22.4 0 0 0 5.75-3v5.37a21.25 21.25 0 0 1-5.73 2.2 29.36 29.36 0 0 1-6.71.74 17.68 17.68 0 0 1-13.2-5.28 18.67 18.67 0 0 1-5.17-13.57q0-8.62 5.39-14t14-5.39a27.85 27.85 0 0 1 6 .62 19.68 19.68 0 0 1 5 1.77Zm-20.67 43.88v-2.78q3.9.8 5.77 1a22.47 22.47 0 0 0 3.18.26 6.48 6.48 0 0 0 3.73-.87 3 3 0 0 0 1.23-2.63 3 3 0 0 0-1.39-2.7 8.06 8.06 0 0 0-4.21-.87h-1.63v-6.6H237v4h.59a10.72 10.72 0 0 1 6.28 1.57 5.18 5.18 0 0 1 2.19 4.47 5.74 5.74 0 0 1-2.06 4.99q-2.14 1.63-6.4 1.63a30 30 0 0 1-4.33-.35 53.59 53.59 0 0 1-5.34-1.12ZM274.32 63.16a18.19 18.19 0 0 1-7.24-1.49 20.77 20.77 0 0 1-6.28-4.27 18 18 0 0 1-4.05-6 19.65 19.65 0 0 1 0-14.62 18.58 18.58 0 0 1 4.09-6.12A18.78 18.78 0 0 1 274.32 25a19.51 19.51 0 0 1 7.41 1.43 19 19 0 0 1 6.27 4.18 18.73 18.73 0 0 1 .08 26.79 19.75 19.75 0 0 1-6.34 4.27 19 19 0 0 1-7.42 1.49Zm.16-4.57a13.13 13.13 0 0 0 9.84-4.2 14.28 14.28 0 0 0 4-10.27 14.34 14.34 0 0 0-4-10.34 13.68 13.68 0 0 0-19.67 0 14.33 14.33 0 0 0-4 10.34 14.26 14.26 0 0 0 4 10.27 13.07 13.07 0 0 0 9.83 4.2ZM286 10.17a11.36 11.36 0 0 1-3 5.45 6.9 6.9 0 0 1-4.91 1.87 7.85 7.85 0 0 1-1.27-.1 11.63 11.63 0 0 1-1.31-.3L272.37 16a5.39 5.39 0 0 0-1.05-.24 9.73 9.73 0 0 0-1.25-.08 3.73 3.73 0 0 0-2.13.6 4.6 4.6 0 0 0-1.53 1.82h-3.5a10.2 10.2 0 0 1 2.88-5.26 7.23 7.23 0 0 1 5-1.81 10.06 10.06 0 0 1 1.27.08 5.38 5.38 0 0 1 1.08.24l3.1 1.07a12.1 12.1 0 0 0 1.27.3 6.62 6.62 0 0 0 1.15.1 4.15 4.15 0 0 0 2.41-.68 4 4 0 0 0 1.45-2ZM334 44.12h-28q.19 6.84 3.42 10.73a10.6 10.6 0 0 0 8.62 3.9 11.47 11.47 0 0 0 6.84-2.11 15.51 15.51 0 0 0 4.89-6.36l4.49 2.46a19.56 19.56 0 0 1-6.62 7.9 17.38 17.38 0 0 1-9.6 2.52A16.26 16.26 0 0 1 305.5 58q-4.78-5.19-4.79-13.61 0-8.67 4.75-14A15.87 15.87 0 0 1 317.88 25a15 15 0 0 1 11.73 5q4.41 4.9 4.41 13.1ZM328.22 40a10.93 10.93 0 0 0-3.22-7.57 11 11 0 0 0-7.75-2.66 10.58 10.58 0 0 0-7.46 2.78 11.24 11.24 0 0 0-3.47 7.4ZM340.18 55.33l4.65-2.66a8.65 8.65 0 0 0 8.71 5.92 7.32 7.32 0 0 0 4.92-1.59 5.26 5.26 0 0 0 1.83-4.2q0-4.05-7.19-6.87c-.5-.19-.9-.35-1.19-.48q-5.57-2.19-7.79-4.51a8 8 0 0 1-2.23-5.74 9.51 9.51 0 0 1 3.18-7.38A11.78 11.78 0 0 1 353.3 25a13.58 13.58 0 0 1 7.31 1.87 10.81 10.81 0 0 1 4.39 5.29l-4.49 2.5a7.19 7.19 0 0 0-2.78-3.82 8.38 8.38 0 0 0-4.73-1.31 6 6 0 0 0-4.21 1.47 4.82 4.82 0 0 0-1.65 3.72 4.61 4.61 0 0 0 1.63 3.62c1.08 1 3.34 2 6.75 3.14q5.81 2 7.81 4.41a9.93 9.93 0 0 1 2 6.6 9.6 9.6 0 0 1-3.46 7.75q-3.45 2.9-9.3 2.9a14.13 14.13 0 0 1-7.73-2 11.45 11.45 0 0 1-4.66-5.81ZM429 44.12h-28q.21 6.84 3.42 10.73a10.62 10.62 0 0 0 8.63 3.9 11.46 11.46 0 0 0 6.83-2.11 15.42 15.42 0 0 0 4.89-6.36l4.49 2.46a19.54 19.54 0 0 1-6.61 7.9 17.38 17.38 0 0 1-9.6 2.52A16.26 16.26 0 0 1 400.5 58q-4.8-5.19-4.79-13.61 0-8.67 4.75-14A15.84 15.84 0 0 1 412.88 25a15 15 0 0 1 11.72 5q4.42 4.9 4.42 13.1ZM423.21 40a10.93 10.93 0 0 0-3.21-7.57 10.93 10.93 0 0 0-7.75-2.66 10.57 10.57 0 0 0-7.45 2.78 11.3 11.3 0 0 0-3.48 7.4ZM444.08 61.61h-4.89V26.35h4.89v5.53a12.7 12.7 0 0 1 4.61-5.09 12.38 12.38 0 0 1 6.6-1.75 11.83 11.83 0 0 1 6.58 1.77 11.33 11.33 0 0 1 4.19 5.19 13.45 13.45 0 0 1 12.28-7q5.61 0 8.83 3.4t3.22 9.32v23.89h-4.89v-21.9c0-3.45-.71-6-2.13-7.79a7.68 7.68 0 0 0-6.37-2.63c-3.36 0-5.84 1.1-7.41 3.3s-2.37 5.69-2.37 10.46v18.56h-4.82v-21.9c0-3.61-.67-6.24-2-7.91s-3.45-2.51-6.28-2.51c-3.45 0-6 1.12-7.59 3.34s-2.43 5.7-2.43 10.42ZM658.77 213.68v-6.44a12.82 12.82 0 0 1-12.36 8 15.59 15.59 0 0 1-12.23-5.24q-4.62-5.21-4.63-13.75t4.57-13.82a15.94 15.94 0 0 1 19.58-3.37 12.89 12.89 0 0 1 5.07 5.78v-6.44h4.89v35.26ZM635 196.43q0 6.82 3.08 10.53t8.8 3.7a10.6 10.6 0 0 0 8.77-4q3.2-4 3.2-11.11 0-6.48-3.18-10.19a10.85 10.85 0 0 0-8.67-3.76 10.69 10.69 0 0 0-8.74 4q-3.26 3.91-3.26 10.83ZM671.49 178.42h5.36l10.81 26.71 10.78-26.71h5.44l-16.22 37.52ZM737.55 213.68v-6.44a12.82 12.82 0 0 1-12.36 8A15.59 15.59 0 0 1 713 210q-4.62-5.21-4.63-13.75t4.57-13.82a15.94 15.94 0 0 1 19.58-3.37 12.89 12.89 0 0 1 5.07 5.78v-6.44h4.89v35.26Zm-23.77-17.25q0 6.82 3.08 10.53t8.8 3.7a10.6 10.6 0 0 0 8.77-4q3.2-4 3.2-11.11 0-6.48-3.18-10.19a10.85 10.85 0 0 0-8.71-3.72 10.69 10.69 0 0 0-8.74 4q-3.22 3.87-3.22 10.79ZM755.55 213.68v-35.26h4.65v5.45a14.31 14.31 0 0 1 5.27-5.07 14.79 14.79 0 0 1 7.18-1.69q6 0 9.34 3.34t3.34 9.3v23.93h-5v-21.75q0-5.28-2.21-7.85t-6.82-2.56q-5.6 0-8.24 3.32t-2.65 10.43v18.41ZM825.39 184.86a18.82 18.82 0 0 0-5.25-2.57 19.66 19.66 0 0 0-5.72-.85 13.58 13.58 0 0 0-10.42 4.19q-3.9 4.2-3.9 11.19a13.84 13.84 0 0 0 4 10.22 14.05 14.05 0 0 0 10.32 4 17.87 17.87 0 0 0 5.78-1 22.88 22.88 0 0 0 5.75-3v5.36a21.4 21.4 0 0 1-5.73 2.21 29.37 29.37 0 0 1-6.71.73 17.66 17.66 0 0 1-13.24-5.3 18.63 18.63 0 0 1-5.17-13.57c0-5.76 1.8-10.42 5.39-14s8.26-5.38 14-5.38a27.86 27.86 0 0 1 6 .61 20.48 20.48 0 0 1 5 1.77Zm-20.67 43.88V226q3.9.79 5.76 1a24.32 24.32 0 0 0 3.18.26 6.41 6.41 0 0 0 3.74-.88 3 3 0 0 0 1.23-2.62 3 3 0 0 0-1.39-2.7 8.08 8.08 0 0 0-4.21-.88h-1.63v-6.59h2.42v4h.6a10.65 10.65 0 0 1 6.28 1.57 5.18 5.18 0 0 1 2.19 4.47 5.77 5.77 0 0 1-2.15 4.89q-2.15 1.63-6.4 1.63a28.58 28.58 0 0 1-4.33-.36q-2.35-.3-5.29-1.05ZM861.12 213.68v-6.44a12.82 12.82 0 0 1-12.36 8 15.57 15.57 0 0 1-12.22-5.24q-4.63-5.21-4.63-13.75t4.57-13.82a15.94 15.94 0 0 1 19.58-3.37 12.93 12.93 0 0 1 5.06 5.78v-6.44H866v35.26Zm-23.77-17.25q0 6.82 3.08 10.53t8.81 3.7a10.57 10.57 0 0 0 8.76-4q3.21-4 3.2-11.11 0-6.48-3.18-10.19a10.84 10.84 0 0 0-8.7-3.72 10.7 10.7 0 0 0-8.75 4q-3.21 3.87-3.22 10.79ZM905.24 213.68v-6.44a12.69 12.69 0 0 1-12.28 8 15.57 15.57 0 0 1-12.22-5.24q-4.63-5.21-4.63-13.75t4.57-13.82a14.82 14.82 0 0 1 11.8-5.34 14.58 14.58 0 0 1 7.74 2 13 13 0 0 1 5 5.78v-32.8h5v61.61Zm-23.69-17.25q0 6.82 3.08 10.53t8.81 3.7a10.48 10.48 0 0 0 8.7-4q3.18-4 3.18-11.11 0-6.48-3.14-10.19a11.8 11.8 0 0 0-17.41.23q-3.21 3.92-3.22 10.84ZM949.2 213.68v-6.44a12.79 12.79 0 0 1-12.36 8 15.57 15.57 0 0 1-12.22-5.24q-4.62-5.18-4.62-13.73t4.57-13.82a15.94 15.94 0 0 1 19.58-3.37 12.93 12.93 0 0 1 5.06 5.78v-6.44h4.89v35.26Zm-23.76-17.25q0 6.82 3.08 10.53t8.8 3.7a10.57 10.57 0 0 0 8.76-4q3.21-4 3.21-11.11 0-6.48-3.18-10.19a10.88 10.88 0 0 0-8.71-3.72 10.71 10.71 0 0 0-8.75 4q-3.21 3.87-3.21 10.79ZM39.56 112.17a11 11 0 0 1 5.77 4.18c1.07 2.05 1.6 5.07 1.87 9l.53 11.82a4.86 4.86 0 0 0 2 4H36.09a9 9 0 0 1-1-3.64c-.27-.89-.44-4.36-.53-10.23-.45-7.28-1.78-9.59-9.07-9.59H12.36v23.46H0V87.2a6.42 6.42 0 0 1 6.22-6.49h22.94c12.53 0 19.46 4.8 19.46 17.24 0 7.65-3.29 12.62-9.06 14.22Zm-11.92-21H12.36v15.91h14.57c5.87 0 9.16-2.14 9.16-8 0-5.48-2.93-7.88-8.45-7.88ZM67.74 106.4H55.92c1.42-8.71 7.55-13 18.4-13 13 0 19.55 4.27 19.82 13v16c0 13-7.82 18.75-20.53 19.64-11.29.89-19.11-4.36-19.11-14.76.26-11.28 8.44-14.28 20.35-15.46 5.07-.62 7.65-2.14 7.65-4.71-.27-2.67-2.76-4-7.65-4-4.17 0-6.49 1.06-7.11 3.29Zm14.93 15.46v-4.35a51.32 51.32 0 0 1-9.42 2.84c-4.71.89-7.11 3.11-7.11 6.58.27 3.73 2.22 5.51 6 5.51 6.53 0 10.53-3.91 10.53-10.58ZM120.37 132.62c5 0 7.46-1.42 7.46-4.45 0-2.4-4.08-4.35-12.17-5.77-10.4-1.87-15.74-6.49-15.83-13.87 0-10.13 8-14.93 18.76-15.11q9.06 0 14.4 4a14.94 14.94 0 0 1 5.6 11.47h-7.47c-2.75-.09-4.53-1.07-5.24-2.94-.8-2-3.2-3.2-7.11-3.2-4.62 0-6.94 1.25-6.94 3.65s3 4.26 9.16 5.42c8 1.6 13.24 3.64 15.82 6a11.7 11.7 0 0 1 3.29 8.36c0 11.55-9.07 15.82-21.51 15.82-6.58 0-11.56-1.42-14.76-4.18-3.55-2.66-5.33-6.75-5.33-12.17h12.09c.27 5.19 4 6.97 9.78 6.97ZM158.33 102.57h-1.25v26.05c0 1.95 1.16 3 3.47 3h3.65v9a65.83 65.83 0 0 1-12.45-.09c-4.44-.45-6.58-3.2-6.49-8.45V80.71h6.13a6 6 0 0 1 5.69 6v7.47h7.12v2.58a5.75 5.75 0 0 1-5.87 5.81ZM169.18 116.88c.35-15.2 8.44-22.75 24.17-22.75H195v12.27h-4c-6.57 0-9.86 3.46-9.86 10.31v24.44h-12ZM221.54 142.22q-21.34-.67-21.34-24.71c0-16 7.2-24 21.51-24.09 14.94 0 22 9.15 21.07 27.55h-30.4c.44 7.2 3.56 10.85 9.33 10.85a10.93 10.93 0 0 0 7.65-3.38 5.15 5.15 0 0 1 4-1.69h8.71c-2.58 9.96-8.98 15.47-20.53 15.47Zm-9-29.69h17.69c-.72-6.22-3.65-9.42-8.71-9.42s-8.07 3.2-8.96 9.42ZM260.48 106.4h-11.83c1.43-8.71 7.56-13 18.4-13 13 0 19.56 4.27 19.82 13v16c0 13-7.82 18.75-20.53 19.64-11.29.89-19.11-4.36-19.11-14.76.27-11.28 8.44-14.31 20.36-15.46 5.06-.62 7.64-2.14 7.64-4.71-.27-2.67-2.76-4-7.64-4-4.18 0-6.49 1.06-7.11 3.29Zm14.93 15.46v-4.35a51.79 51.79 0 0 1-9.42 2.84c-4.72.89-7.12 3.11-7.12 6.58.27 3.73 2.23 5.51 6 5.51 6.54 0 10.54-3.91 10.54-10.58ZM304.57 111.11v30h-12v-27.6c0-13.42 6.75-20.09 20.18-20.09 6 0 10.66 1.33 14 4 3.38-2.58 8-3.82 14-3.82 13.43 0 20.09 6.66 20 20.09v27.64h-6.05c-3.91-.27-5.87-2.13-5.87-5.87v-24.17c-.26-4.89-2.93-7.29-8.17-7.29s-7.91 2.4-8 7.29v29.86h-11.91v-30c-.27-4.89-2.94-7.29-8.18-7.29s-7.91 2.36-8 7.25ZM388.67 142.22q-21.35-.67-21.34-24.71c0-16 7.2-24 21.51-24.09 14.94 0 22 9.15 21.07 27.55h-30.4c.45 7.2 3.56 10.85 9.33 10.85a10.93 10.93 0 0 0 7.65-3.38 5.15 5.15 0 0 1 4-1.69h8.71c-2.58 9.96-8.98 15.47-20.53 15.47Zm-9-29.69h17.69c-.71-6.22-3.65-9.42-8.71-9.42s-8.07 3.2-8.96 9.42ZM449.47 141.15c-3.91-.26-5.87-2.13-5.87-5.87v-24.17c-.26-4.89-2.93-7.29-8.17-7.29s-7.91 2.4-8 7.29v30h-12v-27.6c0-13.42 6.75-20.09 20.18-20.09s20 6.67 19.91 20.09v27.64ZM473.92 102.57h-1.24v26.05c0 1.95 1.15 3 3.46 3h3.65v9a65.84 65.84 0 0 1-12.45-.09c-4.44-.45-6.57-3.2-6.49-8.45V80.71H467a6 6 0 0 1 5.69 6v7.47h7.11v2.58a5.75 5.75 0 0 1-5.88 5.81ZM527.17 117.86c0 16.18-7.2 24.36-21.42 24.36s-21.34-8.18-21.34-24.36c0-16.35 7.11-24.44 21.34-24.44s21.42 8.09 21.42 24.44Zm-30.76 0c.09 9.16 3.2 13.78 9.25 13.78s9.06-4.8 9.15-14.13c0-9.16-3-13.69-9.06-13.69-6.23 0-9.34 4.71-9.34 14.04ZM622.29 80.71h41.87v10.75h-17.87v49.69h-12.35V91.46h-17.87V87.2a6.42 6.42 0 0 1 6.22-6.49ZM685.59 142.22q-21.33-.67-21.33-24.71c0-16 7.2-24 21.51-24.09 14.93 0 22 9.15 21.06 27.55h-30.4c.45 7.2 3.56 10.85 9.34 10.85a10.93 10.93 0 0 0 7.64-3.38 5.17 5.17 0 0 1 4-1.69h8.71c-2.58 9.96-8.98 15.47-20.53 15.47Zm-9-29.69h17.71c-.71-6.22-3.64-9.42-8.71-9.42s-8.09 3.2-8.98 9.42ZM724.17 86.48v54.67h-11.82V80.71h6.13a5.79 5.79 0 0 1 5.69 5.77ZM751.82 142.22q-21.33-.67-21.34-24.71c0-16 7.2-24 21.52-24.09 14.93 0 22 9.15 21.06 27.55h-30.4c.45 7.2 3.56 10.85 9.34 10.85a10.93 10.93 0 0 0 7.64-3.38 5.17 5.17 0 0 1 4-1.69h8.71c-2.58 9.96-8.98 15.47-20.53 15.47Zm-9-29.69h17.69c-.71-6.22-3.65-9.42-8.71-9.42s-8.07 3.2-8.96 9.42ZM790.58 111.11v30h-12v-27.6c0-13.42 6.76-20.09 20.18-20.09 6 0 10.66 1.33 14 4 3.38-2.58 8-3.82 14.05-3.82 13.42 0 20.09 6.66 20 20.09v27.64h-6.14c-3.91-.27-5.86-2.13-5.86-5.87v-24.17c-.27-4.89-2.94-7.29-8.18-7.29s-7.91 2.4-8 7.29v29.86h-11.87v-30c-.27-4.89-2.93-7.29-8.18-7.29s-7.91 2.36-8 7.25ZM874.68 142.22q-21.33-.67-21.33-24.71c0-16 7.19-24 21.51-24.09 14.93 0 21.95 9.15 21.06 27.55h-30.4c.45 7.2 3.56 10.85 9.34 10.85a10.93 10.93 0 0 0 7.64-3.38 5.17 5.17 0 0 1 4-1.69h8.71c-2.58 9.96-8.98 15.47-20.53 15.47Zm-9-29.69h17.69c-.71-6.22-3.65-9.42-8.71-9.42s-8.07 3.2-8.96 9.42ZM914.51 102.57h-1.25v26.05c0 1.95 1.16 3 3.47 3h3.64v9a65.73 65.73 0 0 1-12.44-.09c-4.45-.45-6.58-3.2-6.49-8.45V80.71h6.13a6 6 0 0 1 5.69 6v7.47h7.11v2.58a5.74 5.74 0 0 1-5.86 5.81ZM925.35 116.88c.36-15.2 8.45-22.75 24.18-22.75h1.69v12.27h-4c-6.58 0-9.87 3.46-9.87 10.31v24.44h-12ZM964.65 80.71c3.91 0 5.77 2 5.68 5.77V90h-11.82v-9.29Zm0 13.42c3.82 0 5.68 1.87 5.68 5.69v41.33h-11.82v-47ZM989.18 106.4h-11.82c1.42-8.71 7.55-13 18.4-13 13 0 19.55 4.27 19.82 13v16c0 13-7.82 18.75-20.53 19.64-11.29.89-19.11-4.36-19.11-14.76.26-11.28 8.44-14.31 20.35-15.46 5.07-.62 7.64-2.14 7.64-4.71-.26-2.67-2.75-4-7.64-4-4.18 0-6.49 1.06-7.11 3.29Zm14.93 15.46v-4.35a51.32 51.32 0 0 1-9.42 2.84c-4.71.89-7.11 3.11-7.11 6.58.27 3.73 2.22 5.51 5.95 5.51 6.58 0 10.58-3.91 10.58-10.58ZM575.44 142.22q-21.33-.67-21.33-24.71c0-16 7.2-24 21.51-24.09 14.93 0 22 9.15 21.06 27.55h-30.4c.45 7.2 3.56 10.85 9.34 10.85a10.93 10.93 0 0 0 7.64-3.38 5.17 5.17 0 0 1 4-1.69H596c-2.61 9.96-9 15.47-20.56 15.47Zm-9-29.69h17.69c-.71-6.22-3.64-9.42-8.71-9.42s-8.07 3.2-8.96 9.42Z" class="cls-1"/></svg>