<svg xmlns="http://www.w3.org/2000/svg" id="Camada_1" data-name="Camada 1" viewBox="0 0 915.45 246.94"><defs><style>.cls-1{fill:#1f3b85}</style></defs><path d="m145.89 42.6 3.72-2a10.25 10.25 0 0 0 3.62 5.47 9.87 9.87 0 0 0 6.15 2 9.29 9.29 0 0 0 7.06-2.72 10.33 10.33 0 0 0 2.55-7.42 9.34 9.34 0 0 0-1.71-5.75q-1.73-2.28-7.37-5.29-7.22-3.83-9.61-6.73a10.68 10.68 0 0 1-2.38-7 10.83 10.83 0 0 1 3.52-8.3 12.6 12.6 0 0 1 8.93-3.2 12.46 12.46 0 0 1 6.26 1.52 11.43 11.43 0 0 1 4.33 4.56l-3.37 2a7.24 7.24 0 0 0-3-3.14 9.09 9.09 0 0 0-4.53-1.08 7.6 7.6 0 0 0-5.62 2.11 7.54 7.54 0 0 0-2.09 5.6q0 5 8.3 9.38l2.29 1.21q6.11 3.36 8.16 6.35a13.35 13.35 0 0 1 2.06 7.76q0 6.44-3.75 10.21t-10.23 3.78a13.73 13.73 0 0 1-8.06-2.34 15.21 15.21 0 0 1-5.23-6.98ZM195.44 51.92a14.85 14.85 0 0 1-6-1.23 16.88 16.88 0 0 1-5.16-3.51 14.59 14.59 0 0 1-3.33-5 15.65 15.65 0 0 1-1.15-6 15.45 15.45 0 0 1 1.18-6 15.64 15.64 0 0 1 8.46-8.42 15.37 15.37 0 0 1 6-1.18 15.92 15.92 0 0 1 6.09 1.18 15.56 15.56 0 0 1 5.15 3.4 15.51 15.51 0 0 1 3.46 17 15.08 15.08 0 0 1-3.4 5 16.18 16.18 0 0 1-5.21 3.51 15.56 15.56 0 0 1-6.09 1.25Zm.13-3.76a10.78 10.78 0 0 0 8.08-3.45 11.69 11.69 0 0 0 3.34-8.45 11.78 11.78 0 0 0-3.3-8.49 11.24 11.24 0 0 0-16.17 0 11.78 11.78 0 0 0-3.3 8.49 11.75 11.75 0 0 0 3.3 8.45 10.74 10.74 0 0 0 8.07 3.45ZM224.05 50.64h-4.15V0h4.15ZM239.04 21.66v14.47q0 6.6 1.88 9.32c1.26 1.81 3.37 2.71 6.36 2.71s5.09-.92 6.37-2.75 1.93-4.92 1.93-9.28V21.66h4v16.53q0 6.76-3.11 10.25t-9.12 3.48q-6 0-9.18-3.48t-3.13-10.25V21.66ZM292.83 26.95a15.43 15.43 0 0 0-4.32-2.1 15.84 15.84 0 0 0-4.7-.71 11.14 11.14 0 0 0-8.59 3.45 13 13 0 0 0-3.21 9.2 11.36 11.36 0 0 0 3.32 8.4 11.52 11.52 0 0 0 8.48 3.3 14.79 14.79 0 0 0 4.75-.82 18.68 18.68 0 0 0 4.72-2.41v4.41a17.2 17.2 0 0 1-4.7 1.81 24.31 24.31 0 0 1-5.52.61 14.53 14.53 0 0 1-10.88-4.37 15.31 15.31 0 0 1-4.25-11.15 15.19 15.19 0 0 1 15.94-16 22.65 22.65 0 0 1 4.92.51 16.35 16.35 0 0 1 4.1 1.45Zm-17 36.08v-2.29c2.13.43 3.71.72 4.73.86a18.52 18.52 0 0 0 2.62.22 5.33 5.33 0 0 0 3.07-.72 2.49 2.49 0 0 0 1-2.16 2.44 2.44 0 0 0-1.14-2.22 6.61 6.61 0 0 0-3.46-.72h-1.34v-5.36h2v3.27h.49a8.78 8.78 0 0 1 5.16 1.29 4.26 4.26 0 0 1 1.8 3.68 4.71 4.71 0 0 1-1.77 4 8.57 8.57 0 0 1-5.25 1.38 23.21 23.21 0 0 1-3.56-.29c-1.28-.23-2.74-.53-4.34-.94ZM313.97 51.92a14.85 14.85 0 0 1-5.95-1.23 16.88 16.88 0 0 1-5.16-3.51 14.59 14.59 0 0 1-3.33-5 15.65 15.65 0 0 1-1.15-6 15.45 15.45 0 0 1 1.18-6 15.64 15.64 0 0 1 8.43-8.43 15.37 15.37 0 0 1 6-1.18 15.92 15.92 0 0 1 6.09 1.18 15.51 15.51 0 0 1 9.79 14.44 15.24 15.24 0 0 1-1.18 6 15.08 15.08 0 0 1-3.4 5 16.18 16.18 0 0 1-5.21 3.51 15.56 15.56 0 0 1-6.11 1.22Zm.13-3.76a10.81 10.81 0 0 0 8.09-3.45 11.72 11.72 0 0 0 3.31-8.45 11.78 11.78 0 0 0-3.3-8.49 11.24 11.24 0 0 0-16.17 0 11.78 11.78 0 0 0-3.3 8.49 11.75 11.75 0 0 0 3.3 8.45 10.74 10.74 0 0 0 8.07 3.45Zm9.51-39.8a9.49 9.49 0 0 1-2.47 4.48 5.73 5.73 0 0 1-4 1.53 6.15 6.15 0 0 1-1-.08 7.53 7.53 0 0 1-1.08-.24l-2.61-.89a5.1 5.1 0 0 0-.87-.19 6.58 6.58 0 0 0-1-.07 3.15 3.15 0 0 0-1.75.49 3.83 3.83 0 0 0-1.39 1.51h-2.88a8.42 8.42 0 0 1 2.37-4.33 6 6 0 0 1 4.13-1.49 7 7 0 0 1 1.05.07 4.39 4.39 0 0 1 .88.19l2.55.88a10.32 10.32 0 0 0 1 .25 6.41 6.41 0 0 0 .95.08 3.33 3.33 0 0 0 2-.56 3.27 3.27 0 0 0 1.19-1.63ZM363.04 36.26h-23c.11 3.75 1 6.69 2.81 8.83a8.74 8.74 0 0 0 7.09 3.2 9.44 9.44 0 0 0 5.62-1.73 12.87 12.87 0 0 0 4-5.23l3.69 2a16 16 0 0 1-5.44 6.48 14.31 14.31 0 0 1-7.89 2.08 13.4 13.4 0 0 1-10.31-4.27q-3.93-4.26-3.94-11.19 0-7.12 3.91-11.5a13 13 0 0 1 10.21-4.38 12.33 12.33 0 0 1 9.64 4q3.63 4 3.62 10.76Zm-4.77-3.43a8.94 8.94 0 0 0-2.64-6.17 9 9 0 0 0-6.37-2.19 8.65 8.65 0 0 0-6.13 2.29 9.22 9.22 0 0 0-2.86 6.07ZM368.11 45.48l3.82-2.22a7.14 7.14 0 0 0 7.16 4.87 6 6 0 0 0 4.05-1.29 4.32 4.32 0 0 0 1.5-3.45q0-3.33-5.91-5.65c-.42-.15-.74-.28-1-.39a18.44 18.44 0 0 1-6.41-3.71 6.58 6.58 0 0 1-1.83-4.72 7.8 7.8 0 0 1 2.62-6.06 9.68 9.68 0 0 1 6.76-2.37 11.23 11.23 0 0 1 6 1.53 8.88 8.88 0 0 1 3.63 4.38l-3.69 2.06a5.91 5.91 0 0 0-2.29-3.14 6.85 6.85 0 0 0-3.89-1.06 5 5 0 0 0-3.45 1.23 4 4 0 0 0-1.35 3 3.78 3.78 0 0 0 1.34 3 18 18 0 0 0 5.55 2.58q4.77 1.66 6.42 3.63a8.14 8.14 0 0 1 1.65 5.42 7.9 7.9 0 0 1-2.84 6.37 13.13 13.13 0 0 1-14 .7 9.38 9.38 0 0 1-3.84-4.71ZM441.14 36.26h-23q.16 5.63 2.81 8.83a8.75 8.75 0 0 0 7.09 3.2 9.41 9.41 0 0 0 5.62-1.73 12.87 12.87 0 0 0 4-5.23l3.69 2a16 16 0 0 1-5.44 6.48 14.27 14.27 0 0 1-7.89 2.08 13.4 13.4 0 0 1-10.31-4.27q-3.93-4.26-3.93-11.19 0-7.12 3.9-11.5a13 13 0 0 1 10.21-4.38 12.33 12.33 0 0 1 9.64 4q3.63 4 3.63 10.76Zm-4.77-3.43a8.3 8.3 0 0 0-9-8.36 8.66 8.66 0 0 0-6.13 2.29 9.27 9.27 0 0 0-2.86 6.07ZM453.52 50.64h-4v-29h4v4.54a10.43 10.43 0 0 1 3.79-4.18 10.19 10.19 0 0 1 5.42-1.44 9.7 9.7 0 0 1 5.41 1.46 9.29 9.29 0 0 1 3.45 4.24 11 11 0 0 1 10.1-5.72 9.51 9.51 0 0 1 7.25 2.79 10.74 10.74 0 0 1 2.65 7.67v19.6h-4v-18c0-2.83-.59-5-1.75-6.41a6.33 6.33 0 0 0-5.21-2.15q-4.16 0-6.1 2.71t-1.94 8.59v15.3h-4v-18q0-4.44-1.66-6.5c-1.11-1.38-2.83-2.06-5.17-2.06q-4.24 0-6.24 2.74c-1.32 1.83-2 4.69-2 8.56ZM610.77 233.34v-5.29a10.5 10.5 0 0 1-10.16 6.57 12.82 12.82 0 0 1-10-4.28q-3.79-4.28-3.8-11.31t3.75-11.35a13.09 13.09 0 0 1 16.1-2.78 10.63 10.63 0 0 1 4.16 4.76v-5.3h4v29Zm-19.54-14.18q0 5.63 2.54 8.66a8.86 8.86 0 0 0 7.23 3 8.69 8.69 0 0 0 7.21-3.32q2.63-3.32 2.63-9.13 0-5.33-2.62-8.38a8.89 8.89 0 0 0-7.15-3.05 8.76 8.76 0 0 0-7.19 3.25c-1.76 2.2-2.65 5.18-2.65 8.97ZM621.23 204.36h4.41l8.89 22 8.85-22h4.48l-13.33 30.9ZM675.53 233.34v-5.29a10.5 10.5 0 0 1-10.16 6.57 12.82 12.82 0 0 1-10-4.28q-3.79-4.28-3.8-11.31t3.76-11.35a13.08 13.08 0 0 1 16.09-2.78 10.57 10.57 0 0 1 4.16 4.76v-5.3h4v29Zm-19.54-14.18q0 5.63 2.54 8.66a8.86 8.86 0 0 0 7.23 3 8.69 8.69 0 0 0 7.21-3.32q2.63-3.32 2.63-9.13 0-5.33-2.61-8.38a8.92 8.92 0 0 0-7.16-3.05 8.78 8.78 0 0 0-7.19 3.32c-1.76 2.13-2.65 5.11-2.65 8.9ZM690.34 233.34v-29h3.82v4.48a11.8 11.8 0 0 1 4.33-4.17 12.24 12.24 0 0 1 5.95-1.39q4.92 0 7.67 2.75a10.33 10.33 0 0 1 2.75 7.64v19.67h-4.09v-17.85q0-4.35-1.81-6.45t-5.6-2.11q-4.61 0-6.78 2.73t-2.23 8.62v15.12ZM747.75 209.66a15.6 15.6 0 0 0-4.32-2.11 15.83 15.83 0 0 0-4.7-.7 11.17 11.17 0 0 0-8.6 3.44 13 13 0 0 0-3.2 9.2 11.36 11.36 0 0 0 3.32 8.4 11.5 11.5 0 0 0 8.48 3.3 14.57 14.57 0 0 0 4.75-.82 18.36 18.36 0 0 0 4.72-2.45v4.41a17.2 17.2 0 0 1-4.7 1.81 23.76 23.76 0 0 1-5.52.61 14.54 14.54 0 0 1-10.89-4.36 15.34 15.34 0 0 1-4.24-11.13 15.18 15.18 0 0 1 15.94-16 22.78 22.78 0 0 1 4.92.51 16.35 16.35 0 0 1 4.1 1.45Zm-17 36.07v-2.29c2.14.44 3.72.72 4.74.87a19.92 19.92 0 0 0 2.62.21 5.33 5.33 0 0 0 3.07-.72 2.49 2.49 0 0 0 1-2.16 2.44 2.44 0 0 0-1.14-2.22 6.65 6.65 0 0 0-3.47-.72H736.23v-5.43h2v3.27h.49a8.78 8.78 0 0 1 5.16 1.29 4.26 4.26 0 0 1 1.8 3.68 4.74 4.74 0 0 1-1.77 4 8.64 8.64 0 0 1-5.26 1.34 23.2 23.2 0 0 1-3.56-.3 44.41 44.41 0 0 1-4.34-.82ZM777.12 233.34v-5.29a10.52 10.52 0 0 1-10.16 6.57 12.82 12.82 0 0 1-10-4.28q-3.81-4.28-3.81-11.31t3.76-11.35A13.08 13.08 0 0 1 773 204.9a10.59 10.59 0 0 1 4.17 4.76v-5.3h4v29Zm-19.54-14.18q0 5.63 2.53 8.66a8.88 8.88 0 0 0 7.24 3 8.66 8.66 0 0 0 7.2-3.32c1.76-2.21 2.63-5.25 2.63-9.13q0-5.33-2.61-8.38a8.91 8.91 0 0 0-7.16-3.05 8.76 8.76 0 0 0-7.18 3.25q-2.65 3.28-2.65 8.97ZM813.44 233.34v-5.29a10.43 10.43 0 0 1-10.1 6.57 12.82 12.82 0 0 1-10.05-4.28q-3.85-4.28-3.85-11.31t3.75-11.35a12.19 12.19 0 0 1 9.71-4.4 12 12 0 0 1 6.35 1.62 10.65 10.65 0 0 1 4.19 4.76v-27h4v50.64Zm-19.53-14.18q0 5.63 2.54 8.66a8.86 8.86 0 0 0 7.23 3 8.6 8.6 0 0 0 7.16-3.32q2.6-3.24 2.6-9.09 0-5.33-2.58-8.38a9.7 9.7 0 0 0-14.31.2c-1.75 2.16-2.64 5.14-2.64 8.93ZM849.53 233.34v-5.29a10.53 10.53 0 0 1-10.17 6.57 12.78 12.78 0 0 1-10-4.28q-3.81-4.28-3.81-11.31t3.76-11.35a13.08 13.08 0 0 1 16.09-2.78 10.59 10.59 0 0 1 4.17 4.76v-5.3h4v29Zm-19.54-14.18q0 5.63 2.53 8.66a8.88 8.88 0 0 0 7.24 3 8.66 8.66 0 0 0 7.2-3.32q2.63-3.32 2.63-9.13 0-5.33-2.61-8.38a8.92 8.92 0 0 0-7.16-3.05 8.78 8.78 0 0 0-7.19 3.25q-2.64 3.28-2.64 8.97ZM861.03 228.18l3.82-2.19a7.08 7.08 0 0 0 7.16 4.87 6 6 0 0 0 4-1.29 4.32 4.32 0 0 0 1.5-3.45q0-3.33-5.91-5.65c-.42-.15-.74-.28-1-.39a18.44 18.44 0 0 1-6.41-3.71 6.56 6.56 0 0 1-1.83-4.72 7.8 7.8 0 0 1 2.62-6.06 9.66 9.66 0 0 1 6.76-2.37 11.23 11.23 0 0 1 6 1.53 8.92 8.92 0 0 1 3.63 4.38l-3.69 2.06a5.91 5.91 0 0 0-2.29-3.14 6.94 6.94 0 0 0-3.92-1.07 4.92 4.92 0 0 0-3.45 1.22 4 4 0 0 0-1.35 3.06 3.76 3.76 0 0 0 1.34 3 18 18 0 0 0 5.55 2.58q4.77 1.66 6.42 3.63a8.14 8.14 0 0 1 1.65 5.42 7.9 7.9 0 0 1-2.84 6.37 13.16 13.16 0 0 1-14 .71 9.45 9.45 0 0 1-3.76-4.79ZM120.98 92.26a9.07 9.07 0 0 1 4.75 3.43c.88 1.68 1.32 4.17 1.54 7.38l.44 9.72a4 4 0 0 0 1.6 3.29h-11.18a7.29 7.29 0 0 1-.8-3 56.36 56.36 0 0 1-.44-8.4c-.37-6-1.46-7.89-7.45-7.89H98.62v19.29H88.44V71.67a5.27 5.27 0 0 1 5.12-5.33h18.88c10.31 0 16 4 16 14.18 0 6.28-2.71 10.37-7.46 11.74Zm-9.79-17.3H98.62v13.08h12c4.82 0 7.52-1.75 7.52-6.57-.01-4.53-2.42-6.51-6.95-6.51ZM144.15 87.46h-9.71c1.17-7.16 6.21-10.67 15.13-10.67 10.67 0 16.08 3.51 16.29 10.67v13.15c0 10.67-6.43 15.42-16.88 16.15-9.28.73-15.71-3.58-15.71-12.13.22-9.28 7-11.76 16.74-12.71 4.16-.52 6.28-1.76 6.28-3.88-.22-2.19-2.26-3.29-6.28-3.29-3.45 0-5.35.88-5.86 2.71Zm12.29 12.71v-3.58a41.89 41.89 0 0 1-7.75 2.34c-3.87.73-5.84 2.56-5.84 5.41.22 3.07 1.82 4.53 4.89 4.53 5.4 0 8.7-3.22 8.7-8.7ZM187.44 109.01c4.1 0 6.14-1.16 6.14-3.65 0-2-3.36-3.58-10-4.75-8.55-1.53-12.93-5.33-13-11.4 0-8.33 6.58-12.27 15.42-12.42q7.45 0 11.84 3.29a12.28 12.28 0 0 1 4.6 9.42h-6.13c-2.27-.07-3.73-.87-4.32-2.41s-2.63-2.63-5.84-2.63c-3.8 0-5.7 1-5.7 3s2.48 3.51 7.52 4.46c6.58 1.31 10.89 3 13 5a9.6 9.6 0 0 1 2.71 6.87c0 9.5-7.46 13-17.69 13-5.41 0-9.5-1.17-12.13-3.43-2.92-2.2-4.38-5.56-4.38-10h9.94c.17 4.19 3.24 5.65 8.02 5.65ZM218.62 84.32h-1v21.41c0 1.6 1 2.48 2.85 2.48h3v7.38a54 54 0 0 1-10.23-.07c-3.65-.37-5.41-2.63-5.33-6.94V66.34h5a4.91 4.91 0 0 1 4.68 4.9v6.13h5.85v2.12a4.73 4.73 0 0 1-4.82 4.83ZM227.54 96.08c.29-12.49 6.9-18.71 19.9-18.71h1.39v10.09h-3.29c-5.41 0-8.11 2.85-8.11 8.47v20.1h-9.89ZM270.58 116.91q-17.53-.56-17.54-20.32c0-13.15 5.92-19.73 17.68-19.8q18.42 0 17.32 22.65h-25c.37 5.92 2.92 8.92 7.67 8.92a9 9 0 0 0 6.29-2.78 4.26 4.26 0 0 1 3.29-1.39h7.15c-2.1 8.19-7.36 12.72-16.86 12.72ZM263.2 92.5h14.54c-.58-5.11-3-7.75-7.16-7.75s-6.65 2.64-7.38 7.75ZM302.59 87.46h-9.72c1.17-7.16 6.21-10.67 15.13-10.67 10.66 0 16.07 3.51 16.29 10.67v13.15c0 10.67-6.43 15.42-16.88 16.15-9.28.73-15.71-3.58-15.71-12.13.22-9.28 6.94-11.76 16.73-12.71 4.17-.52 6.29-1.76 6.29-3.88-.22-2.19-2.27-3.29-6.29-3.29-3.43 0-5.33.88-5.84 2.71Zm12.27 12.71v-3.58a41.54 41.54 0 0 1-7.74 2.34c-3.87.73-5.85 2.56-5.85 5.41.22 3.07 1.83 4.53 4.9 4.53 5.41 0 8.69-3.22 8.69-8.7ZM338.84 91.33v24.7h-9.87V93.26c0-11 5.55-16.51 16.59-16.51 5 0 8.77 1.1 11.54 3.29 2.78-2.12 6.58-3.14 11.55-3.14 11 0 16.51 5.48 16.44 16.51v22.73h-5c-3.22-.22-4.82-1.76-4.82-4.83V91.48c-.22-4-2.42-6-6.73-6s-6.5 2-6.57 6v24.55h-9.8v-24.7c-.21-4-2.41-6-6.72-6s-6.54 1.98-6.61 6ZM407.97 116.91q-17.53-.55-17.53-20.32c0-13.15 5.92-19.73 17.68-19.8q18.42 0 17.32 22.65h-25c.37 5.92 2.92 8.92 7.67 8.92a9 9 0 0 0 6.29-2.78 4.26 4.26 0 0 1 3.29-1.39h7.16c-2.12 8.19-7.41 12.72-16.88 12.72Zm-7.38-24.41h14.54c-.59-5.11-3-7.75-7.16-7.75s-6.65 2.64-7.38 7.75ZM457.95 116.03c-3.21-.22-4.82-1.75-4.82-4.82V91.33c-.22-4-2.41-6-6.72-6s-6.51 2-6.58 6v24.7h-9.86V93.26c0-11 5.55-16.51 16.58-16.51s16.45 5.51 16.37 16.51v22.73ZM478.05 84.32h-1v21.41c0 1.6 1 2.48 2.85 2.48h3v7.38a54 54 0 0 1-10.23-.07c-3.65-.37-5.4-2.63-5.33-6.94V66.34h5a4.91 4.91 0 0 1 4.68 4.9v6.13h5.84v2.12a4.73 4.73 0 0 1-4.81 4.83ZM521.82 96.88c0 13.3-5.91 20-17.61 20s-17.53-6.73-17.53-20 5.84-20.09 17.53-20.09 17.61 6.65 17.61 20.09Zm-25.28 0c.07 7.53 2.63 11.33 7.6 11.33s7.45-4 7.53-11.62c0-7.52-2.49-11.25-7.46-11.25s-7.67 3.92-7.67 11.54ZM43.84 135.57l-17.02 49.69h-9.65L0 135.57h11.25l10.6 37.13 9.72-33.44c.58-2.48 2.19-3.73 5-3.73ZM53.71 135.57c3.22 0 4.75 1.61 4.68 4.75v2.85h-9.72v-7.6Zm0 11c3.14 0 4.68 1.53 4.68 4.68v34h-9.72v-38.64ZM99.53 140.47v28.06c0 11.62-6.07 17.39-18.12 17.32-12-.22-18-6.72-18-19.58 0-13.16 5.12-19.88 15.42-20.25a12.17 12.17 0 0 1 11 6v-16.45h4.83a4.93 4.93 0 0 1 4.87 4.9Zm-26.09 25.36c-.07 7.82 2.56 11.76 8.11 11.76s8.33-3.94 8.33-11.76c-.22-7.46-2.92-11.11-8.18-11.11s-7.97 3.65-8.26 11.11ZM121.16 186.14c-11.69-.36-17.54-7.16-17.54-20.31s5.92-19.73 17.69-19.81q18.4 0 17.32 22.66h-25c.36 5.92 2.92 8.91 7.67 8.91a9 9 0 0 0 6.28-2.77 4.27 4.27 0 0 1 3.29-1.39h7.16c-2.11 8.18-7.37 12.71-16.87 12.71Zm-7.38-24.4h14.54c-.58-5.12-3-7.75-7.16-7.75s-6.65 2.63-7.38 7.75ZM178.02 166.12c0 13.3-5.92 20-17.61 20s-17.54-6.72-17.54-20c0-13.45 5.84-20.1 17.54-20.1s17.61 6.65 17.61 20.1Zm-25.29 0c.08 7.53 2.63 11.33 7.6 11.33s7.46-3.95 7.53-11.62-2.49-11.26-7.45-11.26c-5.12 0-7.68 3.88-7.68 11.55ZM192.56 160.57v24.69h-9.86v-22.72c0-11 5.55-16.52 16.58-16.52 5 0 8.77 1.1 11.55 3.29 2.78-2.12 6.58-3.14 11.55-3.14 11 0 16.51 5.48 16.44 16.51v22.73h-5c-3.21-.22-4.82-1.75-4.82-4.82v-19.88c-.22-4-2.41-6-6.72-6s-6.5 2-6.58 6v24.55h-9.79v-24.69c-.22-4-2.41-6-6.72-6s-6.56 1.98-6.63 6ZM279.3 166.12c0 13.3-5.91 20-17.61 20s-17.53-6.72-17.53-20c0-13.45 5.84-20.1 17.53-20.1s17.61 6.65 17.61 20.1Zm-25.28 0c.07 7.53 2.63 11.33 7.6 11.33s7.45-3.95 7.53-11.62-2.49-11.26-7.46-11.26-7.67 3.88-7.67 11.55ZM311.97 185.26c-3.21-.21-4.82-1.75-4.82-4.82v-19.87c-.22-4-2.41-6-6.72-6s-6.51 2-6.58 6v24.69h-9.87v-22.72c0-11 5.56-16.52 16.59-16.52s16.44 5.48 16.37 16.52v22.72ZM326.37 135.57c3.22 0 4.75 1.61 4.68 4.75v2.85h-9.72v-7.6Zm0 11c3.14 0 4.68 1.53 4.68 4.68v34h-9.72v-38.64ZM347.27 153.55h-1v21.41c0 1.61.95 2.49 2.85 2.49h3v7.38a53.23 53.23 0 0 1-10.23-.08c-3.65-.36-5.41-2.63-5.33-6.94v-42.24h5a4.91 4.91 0 0 1 4.68 4.9v6.14h5.84v2.12a4.73 4.73 0 0 1-4.81 4.82ZM391.04 166.12c0 13.3-5.92 20-17.61 20s-17.54-6.72-17.54-20c0-13.45 5.85-20.1 17.54-20.1s17.61 6.65 17.61 20.1Zm-25.28 0c.07 7.53 2.63 11.33 7.6 11.33s7.45-3.95 7.53-11.62-2.45-11.26-7.45-11.26-7.68 3.88-7.68 11.55ZM395.72 165.32c.29-12.5 6.94-18.71 19.88-18.71h1.39v10.08h-3.29c-5.41 0-8.11 2.85-8.11 8.48v20.09h-9.87ZM431.53 156.69h-9.72c1.17-7.16 6.21-10.67 15.13-10.67 10.67 0 16.07 3.51 16.29 10.67v13.16c0 10.66-6.43 15.41-16.88 16.15-9.28.73-15.71-3.59-15.71-12.13.22-9.29 6.94-11.77 16.74-12.72 4.16-.51 6.28-1.75 6.28-3.87-.22-2.19-2.26-3.29-6.28-3.29-3.44 0-5.34.88-5.85 2.7Zm12.28 12.72v-3.58a42.67 42.67 0 0 1-7.75 2.34c-3.87.73-5.84 2.55-5.84 5.4.21 3.07 1.82 4.53 4.89 4.53 5.41 0 8.7-3.21 8.7-8.69ZM467.78 160.57v24.69h-9.87v-22.72c0-11 5.56-16.52 16.59-16.52 5 0 8.77 1.1 11.55 3.29 2.77-2.12 6.57-3.14 11.54-3.14 11 0 16.52 5.48 16.44 16.51v22.73h-5c-3.21-.22-4.82-1.75-4.82-4.82v-19.88c-.22-4-2.41-6-6.72-6s-6.51 2-6.58 6v24.55h-9.79v-24.69c-.22-4-2.41-6-6.72-6s-6.55 1.98-6.62 6ZM536.91 186.14c-11.69-.36-17.54-7.16-17.54-20.31s5.92-19.73 17.69-19.81q18.4 0 17.32 22.66h-25c.37 5.92 2.93 8.91 7.68 8.91a9 9 0 0 0 6.28-2.77 4.26 4.26 0 0 1 3.29-1.39h7.16c-2.12 8.18-7.35 12.71-16.88 12.71Zm-7.38-24.4h14.54c-.58-5.12-3-7.75-7.16-7.75s-6.65 2.63-7.38 7.75ZM586.9 185.26c-3.22-.21-4.83-1.75-4.83-4.82v-19.87c-.22-4-2.41-6-6.72-6s-6.5 2-6.58 6v24.69h-9.86v-22.72c0-11 5.55-16.52 16.59-16.52s16.44 5.48 16.37 16.52v22.72ZM607 153.55h-1v21.41c0 1.61 1 2.49 2.85 2.49h3v7.38a53.23 53.23 0 0 1-10.23-.08c-3.66-.36-5.41-2.63-5.34-6.94v-42.24h5a4.91 4.91 0 0 1 4.68 4.9v6.14h5.85v2.12a4.73 4.73 0 0 1-4.81 4.82ZM650.77 166.12c0 13.3-5.92 20-17.61 20s-17.54-6.72-17.54-20c0-13.45 5.84-20.1 17.54-20.1s17.61 6.65 17.61 20.1Zm-25.29 0c.08 7.53 2.63 11.33 7.6 11.33s7.46-3.95 7.53-11.62-2.48-11.26-7.45-11.26-7.72 3.88-7.72 11.55ZM561.51 116.91q-17.55-.56-17.54-20.32c0-13.15 5.92-19.73 17.68-19.8q18.42 0 17.32 22.65h-25c.36 5.92 2.92 8.92 7.67 8.92a9 9 0 0 0 6.29-2.78 4.24 4.24 0 0 1 3.28-1.39h7.23c-2.17 8.19-7.44 12.72-16.93 12.72Zm-7.38-24.41h14.54c-.59-5.11-3-7.75-7.16-7.75s-6.65 2.64-7.38 7.75ZM709.94 146.61l-13.66 38.65h-10.31l-13.59-38.65h10.74l7.82 27.11 6.73-23.68a4.58 4.58 0 0 1 4.75-3.43ZM729.38 186.14c-11.69-.36-17.53-7.16-17.53-20.31s5.92-19.73 17.68-19.81q18.42 0 17.32 22.66h-25c.36 5.92 2.92 8.91 7.67 8.91a9 9 0 0 0 6.28-2.77 4.27 4.27 0 0 1 3.29-1.39h7.16c-2.1 8.18-7.37 12.71-16.87 12.71Zm-7.38-24.4h14.55c-.59-5.12-3-7.75-7.17-7.75s-6.65 2.63-7.38 7.75ZM756.44 135.57c3.22 0 4.75 1.61 4.68 4.75v2.85h-9.72v-7.6Zm0 11c3.15 0 4.68 1.53 4.68 4.68v34h-9.72v-38.64ZM784.27 186.14c-11.7 0-17.69-6.72-18-20 0-13.23 5.92-19.88 17.83-20.1 9.35 0 14.91 4.17 16.59 12.57h-10.6a6.33 6.33 0 0 0-6.28-4c-5.12 0-7.68 3.88-7.68 11.55s2.71 11.55 8.12 11.47a7.6 7.6 0 0 0 5.84-2.77 4.49 4.49 0 0 1 3.29-1.39h7.31c-1.74 7.85-7.44 12.89-16.42 12.67Z" class="cls-1"/><path d="M838.34 169.85c0 6.65-1.68 11-5.11 13.15a22.54 22.54 0 0 1-11.4 3 19.51 19.51 0 0 1-11-3.29c-3.36-2.12-5-6.36-5-12.86v-23.24h9.71v25.21c0 4.31 2.2 6.43 6.58 6.43s6.58-2.12 6.58-6.43v-20.39c-.07-3.21 1.46-4.82 4.68-4.82h5ZM852.3 140.32v44.94h-9.71v-49.69h5a4.78 4.78 0 0 1 4.71 4.75ZM867.8 156.69h-9.72c1.17-7.16 6.21-10.67 15.12-10.67 10.67 0 16.08 3.51 16.3 10.67v13.16c0 10.66-6.43 15.41-16.88 16.15-9.28.73-15.71-3.59-15.71-12.13.22-9.29 6.94-11.77 16.73-12.72 4.17-.51 6.29-1.75 6.29-3.87-.22-2.19-2.27-3.29-6.29-3.29-3.43 0-5.33.88-5.84 2.7Zm12.27 12.72v-3.58a42.31 42.31 0 0 1-7.74 2.34c-3.88.73-5.85 2.55-5.85 5.4.22 3.07 1.83 4.53 4.9 4.53 5.4 0 8.69-3.21 8.69-8.69ZM894.18 165.32c.29-12.5 6.94-18.71 19.87-18.71h1.39v10.08h-3.28c-5.41 0-8.12 2.85-8.12 8.48v20.09h-9.86Z" class="cls-1"/></svg>