<svg xmlns="http://www.w3.org/2000/svg" xml:space="preserve" id="Camada_1" x="0" y="0" style="enable-background:new 0 0 1490.7 245.2" version="1.1" viewBox="0 0 1490.7 245.2"><style>.st0{fill:#1f3b85}</style><path d="M183.2 55.7c0 4.1-1 7.7-3.1 10.6-2.1 2.9-4.9 5.1-8.6 6.7-3.7 1.5-8 2.3-13 2.3-2.6 0-5.1-.1-7.5-.4-2.4-.3-4.5-.6-6.5-1.1-2-.5-3.7-1.1-5.2-1.8v-7.8c2.4 1 5.3 1.9 8.7 2.7 3.4.8 7 1.3 10.8 1.3 3.5 0 6.5-.5 8.9-1.4 2.4-.9 4.3-2.3 5.5-4.1 1.3-1.8 1.9-3.9 1.9-6.4 0-2.4-.5-4.4-1.6-6-1-1.6-2.8-3.1-5.2-4.4-2.4-1.3-5.8-2.7-10-4.2-3-1-5.6-2.2-7.8-3.5-2.3-1.3-4.2-2.7-5.7-4.3s-2.7-3.4-3.5-5.5c-.8-2.1-1.2-4.5-1.2-7.2 0-3.7.9-6.9 2.8-9.6 1.9-2.7 4.5-4.7 7.9-6.1 3.4-1.4 7.2-2.1 11.6-2.1 3.7 0 7.2.4 10.3 1.1 3.2.7 6.1 1.6 8.7 2.8l-2.5 7c-2.5-1-5.2-1.9-8-2.6s-5.7-1-8.7-1c-3 0-5.5.4-7.6 1.3s-3.6 2.1-4.7 3.7-1.6 3.5-1.6 5.7c0 2.5.5 4.5 1.6 6.1 1 1.6 2.7 3.1 5 4.3 2.3 1.3 5.3 2.6 9 3.9 4.1 1.5 7.6 3.1 10.5 4.7 2.9 1.7 5 3.7 6.5 6.1 1.5 2.5 2.3 5.5 2.3 9.2zM236.4 48c0 4.3-.6 8.1-1.7 11.5-1.1 3.4-2.7 6.2-4.8 8.5-2.1 2.3-4.6 4.1-7.6 5.3-3 1.2-6.3 1.8-10.1 1.8-3.5 0-6.7-.6-9.6-1.8-2.9-1.2-5.4-3-7.5-5.3-2.1-2.3-3.8-5.2-4.9-8.5-1.2-3.4-1.7-7.2-1.7-11.5 0-5.7 1-10.6 2.9-14.6s4.7-7.1 8.3-9.2c3.6-2.1 7.9-3.2 12.9-3.2 4.8 0 8.9 1.1 12.5 3.2s6.4 5.2 8.4 9.2c1.9 4.1 2.9 8.9 2.9 14.6zm-39.8 0c0 4.2.6 7.8 1.7 10.9 1.1 3.1 2.8 5.5 5.2 7.2 2.3 1.7 5.3 2.5 9 2.5 3.6 0 6.6-.8 8.9-2.5 2.3-1.7 4.1-4.1 5.2-7.2 1.1-3.1 1.7-6.7 1.7-10.9s-.6-7.8-1.7-10.8c-1.1-3-2.8-5.4-5.2-7-2.3-1.7-5.3-2.5-9-2.5-5.4 0-9.4 1.8-12 5.4-2.5 3.6-3.8 8.6-3.8 14.9zM253.2 74.3h-8V0h8v74.3zM308.2 22v52.3h-6.5l-1.1-7.4h-.4c-1.1 1.8-2.5 3.3-4.2 4.6s-3.7 2.2-5.8 2.8c-2.1.6-4.4.9-6.8.9-4.1 0-7.6-.7-10.4-2-2.8-1.3-4.9-3.4-6.3-6.2-1.4-2.8-2.1-6.4-2.1-10.8V22h8v33.7c0 4.4 1 7.6 3 9.8 2 2.1 5 3.2 9 3.2 3.9 0 7-.7 9.3-2.2 2.3-1.5 4-3.6 5-6.5 1-2.8 1.5-6.3 1.5-10.5V22h7.8zM341 75.2c-4.7 0-8.9-1-12.5-2.9-3.6-1.9-6.4-4.9-8.4-8.9s-3-9-3-15c0-6.3 1.1-11.5 3.2-15.5s5-7 8.8-8.9c3.7-1.9 8-2.9 12.7-2.9 2.6 0 5.1.3 7.6.8 2.4.5 4.4 1.2 6 2l-2.4 6.6c-1.6-.6-3.4-1.2-5.5-1.7s-4-.8-5.8-.8c-3.6 0-6.6.8-9 2.3-2.4 1.6-4.2 3.9-5.4 6.9-1.2 3-1.8 6.7-1.8 11.2 0 4.2.6 7.8 1.7 10.8 1.2 3 2.9 5.3 5.2 6.8 2.3 1.6 5.2 2.4 8.7 2.4 2.8 0 5.3-.3 7.5-.9 2.2-.6 4.2-1.3 6.1-2.1v7.1c-1.8.9-3.7 1.6-5.8 2.1s-4.9.6-7.9.6zm7.8 12.7c0 3.1-1.2 5.5-3.6 7.2-2.4 1.7-5.9 2.6-10.5 2.6-1 0-1.9-.1-2.8-.2-.9-.1-1.6-.2-2.1-.4v-5c.6.1 1.4.2 2.3.3 1 .1 1.9.1 2.9.1 2.4 0 4.2-.4 5.5-1 1.3-.7 1.9-1.9 1.9-3.5 0-1.8-.9-3-2.6-3.8-1.7-.8-3.9-1.3-6.5-1.6l4.2-8.4h5.3l-2.6 5.3c1.6.3 3 .8 4.3 1.5 1.3.7 2.3 1.6 3.1 2.7.8 1.2 1.2 2.6 1.2 4.2zM407.1 48c0 4.3-.6 8.1-1.7 11.5-1.1 3.4-2.7 6.2-4.8 8.5-2.1 2.3-4.6 4.1-7.6 5.3-3 1.2-6.3 1.8-10.1 1.8-3.5 0-6.7-.6-9.6-1.8-2.9-1.2-5.4-3-7.5-5.3-2.1-2.3-3.8-5.2-4.9-8.5-1.2-3.4-1.7-7.2-1.7-11.5 0-5.7 1-10.6 2.9-14.6s4.7-7.1 8.3-9.2c3.6-2.1 7.9-3.2 12.9-3.2 4.8 0 8.9 1.1 12.5 3.2s6.4 5.2 8.4 9.2c1.9 4.1 2.9 8.9 2.9 14.6zm-42-33.1c.2-1.9.6-3.6 1.1-5.1.5-1.5 1.3-2.8 2.1-3.8.9-1 1.9-1.9 3.2-2.4 1.2-.6 2.6-.8 4.1-.8 1.5 0 2.9.3 4.2.9s2.6 1.3 3.8 2c1.2.7 2.4 1.4 3.5 2s2.2.9 3.3.9c1.5 0 2.7-.5 3.6-1.4.8-.9 1.5-2.4 1.9-4.5h4.7c-.4 3.7-1.5 6.7-3.3 8.9-1.8 2.2-4.2 3.3-7.2 3.3-1.4 0-2.8-.3-4.1-.9-1.3-.6-2.6-1.3-3.8-2-1.2-.7-2.4-1.4-3.6-2-1.2-.6-2.3-.9-3.4-.9-1.6 0-2.8.5-3.6 1.4-.8.9-1.5 2.4-1.9 4.4h-4.6zm2.2 33.1c0 4.2.6 7.8 1.7 10.9 1.1 3.1 2.8 5.5 5.2 7.2 2.3 1.7 5.3 2.5 9 2.5 3.6 0 6.6-.8 8.9-2.5 2.3-1.7 4.1-4.1 5.2-7.2 1.1-3.1 1.7-6.7 1.7-10.9s-.6-7.8-1.7-10.8c-1.1-3-2.8-5.4-5.2-7-2.3-1.7-5.3-2.5-9-2.5-5.4 0-9.4 1.8-12 5.4-2.5 3.6-3.8 8.6-3.8 14.9zM436.1 21c4.5 0 8.3 1 11.5 3 3.2 2 5.6 4.7 7.3 8.3 1.7 3.5 2.5 7.7 2.5 12.4v4.9h-36.1c.1 6.1 1.6 10.8 4.6 14 3 3.2 7.1 4.8 12.5 4.8 3.3 0 6.2-.3 8.8-.9 2.5-.6 5.2-1.5 7.9-2.7v7c-2.6 1.2-5.3 2-7.9 2.6-2.6.5-5.7.8-9.2.8-5 0-9.4-1-13.1-3.1-3.7-2.1-6.6-5.1-8.7-9-2.1-4-3.1-8.8-3.1-14.6 0-5.6.9-10.5 2.8-14.6s4.6-7.3 8-9.5c3.4-2.3 7.5-3.4 12.2-3.4zm-.1 6.5c-4.2 0-7.6 1.4-10.1 4.2-2.5 2.8-4 6.6-4.5 11.6H449c0-3.1-.5-5.9-1.5-8.2-.9-2.4-2.4-4.2-4.3-5.5-1.8-1.4-4.3-2.1-7.2-2.1zM499.7 59.9c0 3.3-.8 6.1-2.5 8.4-1.7 2.3-4.1 4-7.2 5.1-3.1 1.1-6.8 1.7-11.1 1.7-3.7 0-6.8-.3-9.5-.9-2.7-.6-5-1.4-7-2.4v-7.3c2.1 1 4.7 2 7.6 2.9 3 .9 6 1.3 9.1 1.3 4.5 0 7.8-.7 9.8-2.2 2-1.5 3.1-3.5 3.1-6 0-1.4-.4-2.7-1.2-3.8-.8-1.1-2.2-2.2-4.1-3.2s-4.6-2.2-7.9-3.4c-3.3-1.3-6.2-2.5-8.7-3.8-2.4-1.3-4.3-2.8-5.6-4.6-1.3-1.8-2-4.2-2-7.1 0-4.4 1.8-7.8 5.4-10.2 3.6-2.4 8.3-3.6 14.1-3.6 3.1 0 6.1.3 8.9.9 2.8.6 5.3 1.5 7.7 2.5l-2.7 6.3c-2.2-.9-4.5-1.7-6.9-2.3-2.5-.6-4.9-1-7.5-1-3.7 0-6.5.6-8.4 1.8-2 1.2-2.9 2.9-2.9 5 0 1.6.5 3 1.4 4 .9 1 2.4 2 4.4 3 2 .9 4.6 2 7.9 3.2 3.3 1.2 6.1 2.5 8.5 3.7 2.4 1.3 4.2 2.8 5.5 4.7 1.2 2.1 1.8 4.5 1.8 7.3zM548.3 21c4.5 0 8.3 1 11.5 3 3.2 2 5.6 4.7 7.3 8.3 1.7 3.5 2.5 7.7 2.5 12.4v4.9h-36.1c.1 6.1 1.6 10.8 4.6 14 3 3.2 7.1 4.8 12.5 4.8 3.3 0 6.2-.3 8.8-.9 2.5-.6 5.2-1.5 7.9-2.7v7c-2.6 1.2-5.3 2-7.9 2.6-2.6.5-5.7.8-9.2.8-5 0-9.4-1-13.1-3.1-3.7-2.1-6.6-5.1-8.7-9-2.1-4-3.1-8.8-3.1-14.6 0-5.6.9-10.5 2.8-14.6s4.6-7.3 8-9.5c3.4-2.3 7.5-3.4 12.2-3.4zm-.1 6.5c-4.2 0-7.6 1.4-10.1 4.2-2.5 2.8-4 6.6-4.5 11.6h27.7c0-3.1-.5-5.9-1.5-8.2-.9-2.4-2.4-4.2-4.3-5.5-1.9-1.4-4.4-2.1-7.3-2.1zM634.9 21c5.8 0 10.1 1.5 13 4.5 2.9 3 4.4 7.8 4.4 14.5v34.3h-7.8V40.4c0-4.2-.9-7.4-2.7-9.5-1.8-2.1-4.5-3.2-8.1-3.2-5.1 0-8.7 1.5-11 4.4-2.3 2.9-3.4 7.2-3.4 12.9v29.3h-7.9V40.4c0-2.8-.4-5.2-1.2-7.1-.8-1.9-2-3.3-3.6-4.2-1.6-.9-3.6-1.4-6.1-1.4-3.5 0-6.3.7-8.4 2.1s-3.6 3.6-4.6 6.4c-.9 2.8-1.4 6.3-1.4 10.4v27.7h-7.9V22h6.4l1.2 7.4h.4c1-1.8 2.4-3.3 4-4.6 1.6-1.2 3.4-2.2 5.3-2.8 2-.6 4.1-1 6.3-1 4 0 7.3.7 10 2.2 2.7 1.5 4.6 3.7 5.8 6.8h.4c1.7-3 4.1-5.3 7.1-6.8s6.2-2.2 9.8-2.2zM0 159.3l11.3-53.4h11l-1 9.9h.5c1.4-2.3 3-4.2 4.7-5.8 1.7-1.6 3.5-2.9 5.5-3.7 2-.9 4.1-1.3 6.4-1.3.8 0 1.6 0 2.5.1.9.1 1.6.2 2.1.4l-3.1 13.8c-.5-.2-1.2-.4-2-.5-.8-.2-1.8-.2-2.7-.2-1.8 0-3.5.4-5.1 1.1-1.6.7-3.1 1.8-4.5 3.2-1.4 1.4-2.6 3.2-3.6 5.3-1 2.1-1.9 4.6-2.5 7.4l-5.1 23.9H0zM53.9 160.2c-2.6 0-5-.6-7.3-1.9s-4.2-3.3-5.6-6.2c-1.4-2.8-2.2-6.6-2.2-11.3 0-3.5.4-7 1.1-10.4.7-3.4 1.8-6.7 3.2-9.8 1.4-3.1 3.1-5.8 5.2-8.2 2-2.4 4.3-4.2 6.9-5.6 2.6-1.4 5.3-2.1 8.3-2.1 2.3 0 4.2.3 5.9 1 1.7.7 3.1 1.6 4.3 2.7 1.2 1.2 2.2 2.5 3 4.1h.4l2.7-6.8h11.1l-11.4 53.4H68.8l.7-6.9h-.4c-1.3 1.6-2.7 2.9-4.2 4.1-1.5 1.2-3.2 2.1-5 2.8-1.7.8-3.8 1.1-6 1.1zm5.6-11.6c2 0 3.8-.8 5.5-2.3 1.7-1.5 3.1-3.6 4.3-6s2.1-5.1 2.6-7.9c.3-1.3.4-2.6.5-3.8.1-1.3.2-2.7.2-4.2 0-2.3-.6-4.1-1.8-5.6-1.2-1.5-2.8-2.2-4.9-2.2-1.4 0-2.7.5-4 1.4s-2.4 2.1-3.5 3.7c-1 1.6-2 3.4-2.7 5.4-.8 2-1.4 4.2-1.8 6.4-.4 2.3-.6 4.5-.6 6.8 0 2.8.5 4.9 1.6 6.3 1.1 1.3 2.7 2 4.6 2zM104.8 160.2c-3.4 0-6.4-.2-8.9-.7-2.5-.5-4.9-1.3-7.1-2.4v-11.8c2.4 1.4 4.8 2.4 7.4 3.2 2.5.7 5.1 1.1 7.9 1.1 1.5 0 2.9-.2 4.2-.6 1.3-.4 2.4-1 3.2-1.9.8-.9 1.2-1.9 1.2-3.2 0-.9-.2-1.7-.6-2.4-.4-.7-1.2-1.5-2.4-2.3-1.2-.8-2.8-1.9-5-3.1-2.2-1.2-4.1-2.5-5.6-3.8-1.5-1.3-2.7-2.8-3.5-4.4-.8-1.7-1.2-3.6-1.2-5.8 0-3.7.8-6.8 2.4-9.3 1.6-2.5 4-4.4 7-5.8 3-1.3 6.7-2 10.9-2 3.1 0 6.1.4 8.9 1 2.9.7 5.7 1.9 8.4 3.5l-4.7 10.3c-1.9-1.1-3.9-2.1-6-2.9s-4.2-1.1-6.3-1.1c-1.6 0-3 .4-4.2 1.1-1.2.7-1.9 1.9-1.9 3.4 0 .8.2 1.6.7 2.3.4.7 1.2 1.4 2.3 2.1 1.1.7 2.5 1.5 4.3 2.5 2.2 1.1 4.1 2.3 5.8 3.7 1.7 1.4 3 2.9 3.9 4.7 1 1.8 1.4 3.9 1.4 6.3 0 4.1-.9 7.5-2.8 10.2-1.8 2.8-4.4 4.8-7.8 6.2s-7.3 1.9-11.9 1.9zM148.6 160.2c-4.2 0-7.6-.9-10.1-2.7-2.5-1.8-3.8-5-3.8-9.6 0-.8 0-1.6.1-2.5.1-.9.2-1.9.4-2.8l5.5-25.7h-7.3l1.4-7 9.4-4 6.3-11.3h9.3l-2.3 11.4H171l-2.4 10.9h-13.5l-5.5 25.7c-.1.5-.2.9-.2 1.4 0 .5-.1.8-.1 1.1 0 1.3.4 2.2 1.1 2.7.8.5 1.8.8 3.1.8s2.6-.2 3.7-.5c1.2-.3 2.5-.7 4-1.2v10.7c-1.5.7-3.4 1.3-5.5 1.8-2 .6-4.4.8-7.1.8zM166 159.3l11.3-53.4h11l-1 9.9h.5c1.4-2.3 3-4.2 4.7-5.8 1.7-1.6 3.5-2.9 5.5-3.7 2-.9 4.1-1.3 6.4-1.3.8 0 1.6 0 2.5.1.9.1 1.6.2 2.1.4l-3.1 13.8c-.5-.2-1.2-.4-2-.5-.8-.2-1.8-.2-2.7-.2-1.8 0-3.5.4-5.1 1.1-1.6.7-3.1 1.8-4.5 3.2-1.4 1.4-2.6 3.2-3.6 5.3-1 2.1-1.9 4.6-2.5 7.4l-5.1 23.9H166zM225.9 160.2c-4.2 0-7.8-.8-11-2.3-3.2-1.5-5.6-3.8-7.4-6.8-1.8-3.1-2.7-6.9-2.7-11.5 0-4.5.6-8.8 1.9-12.9 1.3-4.2 3.2-7.9 5.7-11.1 2.5-3.3 5.6-5.9 9.4-7.8 3.7-1.9 8-2.9 12.9-2.9 6 0 10.5 1.4 13.4 4.1 3 2.7 4.5 6.2 4.5 10.5 0 2.8-.6 5.3-1.9 7.6-1.3 2.3-3.2 4.3-5.7 5.9-2.5 1.6-5.7 2.9-9.6 3.8-3.8.9-8.4 1.3-13.6 1.3h-2.4c0 .4-.1.7-.1 1v1c0 2.9.8 5.1 2.5 6.8 1.7 1.7 4 2.5 7 2.5 2.8 0 5.3-.3 7.6-1 2.3-.6 5-1.7 8.1-3.1v10.8c-2.8 1.4-5.6 2.4-8.5 3.1-2.9.7-6.3 1-10.1 1zm-5-31.8h2.1c3.7 0 6.7-.4 9-1.2 2.3-.8 4-1.8 5.1-3.1 1.1-1.3 1.6-2.7 1.6-4.2s-.4-2.7-1.3-3.4c-.9-.7-2.1-1.1-3.7-1.1-1.8 0-3.5.6-5.3 1.7-1.8 1.1-3.3 2.7-4.6 4.6-1.3 1.8-2.3 4.1-2.9 6.7zM269.5 160.2c-2.6 0-5-.6-7.3-1.9s-4.2-3.3-5.6-6.2c-1.4-2.8-2.2-6.6-2.2-11.3 0-3.5.4-7 1.1-10.4.7-3.4 1.8-6.7 3.2-9.8 1.4-3.1 3.1-5.8 5.2-8.2 2-2.4 4.3-4.2 6.9-5.6 2.6-1.4 5.3-2.1 8.3-2.1 2.3 0 4.2.3 5.9 1 1.7.7 3.1 1.6 4.3 2.7 1.2 1.2 2.2 2.5 3 4.1h.4l2.7-6.8h11.1l-11.4 53.4h-10.7l.7-6.9h-.4c-1.3 1.6-2.7 2.9-4.2 4.1-1.5 1.2-3.2 2.1-5 2.8-1.7.8-3.8 1.1-6 1.1zm5.6-11.6c2 0 3.8-.8 5.5-2.3 1.7-1.5 3.1-3.6 4.3-6s2.1-5.1 2.6-7.9c.3-1.3.4-2.6.5-3.8.1-1.3.2-2.7.2-4.2 0-2.3-.6-4.1-1.8-5.6-1.2-1.5-2.8-2.2-4.9-2.2-1.4 0-2.7.5-4 1.4s-2.4 2.1-3.5 3.7c-1 1.6-2 3.4-2.7 5.4-.8 2-1.4 4.2-1.8 6.4-.4 2.3-.6 4.5-.6 6.8 0 2.8.5 4.9 1.6 6.3 1.1 1.3 2.6 2 4.6 2zM305 159.3l11.3-53.4h11l-1 9.9h.4c1.4-2.1 2.9-4 4.5-5.6s3.5-2.9 5.5-3.8c2-.9 4.3-1.4 6.8-1.4 3.7 0 6.5 1 8.5 2.9s3.3 4.6 4 8h.4c1.3-2.1 2.8-4 4.5-5.6s3.6-2.9 5.7-3.8c2.1-.9 4.4-1.4 6.8-1.4 4.5 0 7.8 1.4 10 4.2 2.2 2.8 3.3 6.5 3.3 11.2 0 1.2-.1 2.5-.3 4-.2 1.5-.5 3-.8 4.6l-6.3 30.4h-14.4l6.6-31.2c.3-1.1.4-2.1.6-3.1.1-1 .2-1.8.2-2.6 0-2-.4-3.5-1.2-4.4-.8-1-1.9-1.4-3.5-1.4-1.7 0-3.2.5-4.6 1.6-1.4 1-2.7 2.5-3.8 4.4-1.1 1.9-2.2 4.1-3 6.5s-1.6 5.2-2.2 8l-4.6 22.2H335l6.5-31.2c.3-1.1.4-2.1.6-3.1.1-1 .2-1.8.2-2.6 0-2-.4-3.5-1.2-4.4-.8-1-1.9-1.4-3.5-1.4s-3.1.5-4.5 1.6-2.7 2.6-3.8 4.5c-1.1 1.9-2.2 4.1-3 6.6-.9 2.5-1.6 5.1-2.2 8l-4.7 22.1H305zM412.2 160.2c-4.2 0-7.8-.8-11-2.3s-5.6-3.8-7.4-6.8-2.7-6.9-2.7-11.5c0-4.5.6-8.8 1.9-12.9s3.2-7.9 5.7-11.1c2.5-3.3 5.6-5.9 9.4-7.8s8-2.9 12.9-2.9c6 0 10.5 1.4 13.4 4.1 3 2.7 4.5 6.2 4.5 10.5 0 2.8-.6 5.3-1.9 7.6s-3.2 4.3-5.7 5.9c-2.5 1.6-5.7 2.9-9.6 3.8-3.9.9-8.4 1.3-13.6 1.3h-2.4c0 .4-.1.7-.1 1v1c0 2.9.8 5.1 2.5 6.8 1.7 1.7 4 2.5 7 2.5 2.8 0 5.3-.3 7.6-1 2.3-.6 5-1.7 8.1-3.1v10.8c-2.8 1.4-5.6 2.4-8.5 3.1-2.9.7-6.3 1-10.1 1zm-4.9-31.8h2.1c3.7 0 6.7-.4 9-1.2 2.3-.8 4-1.8 5.1-3.1 1.1-1.3 1.6-2.7 1.6-4.2s-.4-2.7-1.3-3.4c-.9-.7-2.1-1.1-3.7-1.1-1.8 0-3.5.6-5.3 1.7-1.8 1.1-3.3 2.7-4.6 4.6-1.4 1.8-2.4 4.1-2.9 6.7zM438.2 159.3l11.3-53.4h11l-1 9.9h.4c1.4-2.1 2.9-4 4.5-5.6s3.5-2.9 5.5-3.8c2-.9 4.3-1.4 6.8-1.4 3.1 0 5.6.6 7.7 1.9 2.1 1.3 3.6 3 4.6 5.3 1 2.3 1.5 5 1.5 8.2 0 1.2-.1 2.5-.3 4-.2 1.5-.5 3-.8 4.6l-6.3 30.4h-14.4l6.5-31.2c.3-1.1.4-2.1.6-3.1.1-1 .2-1.8.2-2.6 0-2-.4-3.5-1.3-4.4-.9-1-2.1-1.4-3.9-1.4-2.2 0-4.1.9-5.9 2.8-1.8 1.9-3.3 4.4-4.6 7.5-1.3 3.1-2.3 6.6-3.2 10.4l-4.7 22.1h-14.2zM510.1 160.2c-4.2 0-7.6-.9-10.1-2.7s-3.8-5-3.8-9.6c0-.8 0-1.6.1-2.5s.2-1.9.4-2.8l5.5-25.7H495l1.4-7 9.4-4 6.3-11.3h9.3l-2.3 11.4h13.5l-2.4 10.9h-13.5l-5.5 25.7c-.1.5-.2.9-.2 1.4 0 .5-.1.8-.1 1.1 0 1.3.4 2.2 1.1 2.7.8.5 1.8.8 3.1.8s2.6-.2 3.7-.5c1.2-.3 2.5-.7 4-1.2v10.7c-1.5.7-3.4 1.3-5.5 1.8-2.1.6-4.5.8-7.2.8zM550.5 160.2c-4 0-7.5-.8-10.6-2.5-3.1-1.7-5.5-4-7.2-7.1-1.7-3.1-2.6-6.7-2.6-11 0-3.8.4-7.4 1.1-10.9.7-3.5 1.9-6.6 3.4-9.5 1.5-2.9 3.4-5.4 5.7-7.6 2.3-2.1 4.9-3.8 7.9-5 3-1.2 6.4-1.8 10.2-1.8 4.1 0 7.7.8 10.7 2.5 3 1.7 5.4 4.1 7 7.2 1.7 3.2 2.5 7 2.5 11.4 0 3.6-.4 7.1-1.1 10.5-.7 3.4-1.8 6.5-3.3 9.4-1.5 2.9-3.3 5.4-5.5 7.5-2.2 2.1-4.9 3.8-7.9 5-3 1.3-6.4 1.9-10.3 1.9zm1.2-11.7c1.6 0 3-.4 4.3-1.2s2.5-1.9 3.5-3.4c1-1.4 1.9-3.1 2.6-5 .7-1.9 1.2-3.9 1.6-6.1.4-2.2.5-4.4.5-6.7 0-1.8-.2-3.4-.6-4.8-.4-1.4-1.1-2.5-2.1-3.3-1-.8-2.3-1.2-4-1.2-1.8 0-3.3.5-4.7 1.5-1.4 1-2.6 2.3-3.6 3.9s-1.9 3.4-2.5 5.4c-.7 2-1.2 4.1-1.5 6.2-.3 2.1-.5 4.1-.5 6.1 0 2.9.6 5.1 1.8 6.6 1 1.3 2.8 2 5.2 2zM595.5 147.9l.6 1.1c-.6 2.3-1.3 4.8-2.2 7.4-.9 2.6-1.8 5.3-2.9 7.9-1 2.7-2.1 5.1-3.1 7.5H582c.7-2.5 1.3-5.2 2-8s1.2-5.6 1.7-8.4c.5-2.8.9-5.3 1.3-7.6h8.5zM638.5 160.2c-4.2 0-7.6-.9-10.1-2.7s-3.8-5-3.8-9.6c0-.8 0-1.6.1-2.5.1-.9.2-1.9.4-2.8l5.5-25.7h-7.3l1.4-7 9.4-4 6.3-11.3h9.3l-2.3 11.4h13.5l-2.4 10.9H645l-5.5 25.7c-.1.5-.2.9-.2 1.4 0 .5-.1.8-.1 1.1 0 1.3.4 2.2 1.1 2.7.8.5 1.8.8 3.1.8s2.6-.2 3.7-.5c1.2-.3 2.5-.7 4-1.2v10.7c-1.5.7-3.4 1.3-5.5 1.8-2 .6-4.4.8-7.1.8zM679.6 160.2c-4.2 0-7.8-.8-11-2.3-3.2-1.5-5.6-3.8-7.4-6.8-1.8-3.1-2.7-6.9-2.7-11.5 0-4.5.6-8.8 1.9-12.9 1.3-4.2 3.2-7.9 5.7-11.1 2.5-3.3 5.6-5.9 9.4-7.8s8-2.9 12.9-2.9c6 0 10.5 1.4 13.4 4.1 3 2.7 4.5 6.2 4.5 10.5 0 2.8-.6 5.3-1.9 7.6s-3.2 4.3-5.7 5.9c-2.5 1.6-5.7 2.9-9.6 3.8-3.9.9-8.4 1.3-13.6 1.3H673c0 .4-.1.7-.1 1v1c0 2.9.8 5.1 2.5 6.8 1.7 1.7 4 2.5 7 2.5 2.8 0 5.3-.3 7.6-1 2.3-.6 5-1.7 8.1-3.1v10.8c-2.8 1.4-5.6 2.4-8.5 3.1-2.9.7-6.2 1-10 1zm-5-31.8h2.1c3.7 0 6.7-.4 9-1.2 2.3-.8 4-1.8 5.1-3.1 1.1-1.3 1.6-2.7 1.6-4.2s-.4-2.7-1.3-3.4c-.9-.7-2.1-1.1-3.7-1.1-1.8 0-3.5.6-5.3 1.7-1.8 1.1-3.3 2.7-4.6 4.6-1.4 1.8-2.3 4.1-2.9 6.7zM705.5 159.3 721.3 85h14.4l-15.8 74.3h-14.4zM753.3 160.2c-4.2 0-7.8-.8-11-2.3-3.2-1.5-5.6-3.8-7.4-6.8-1.8-3.1-2.7-6.9-2.7-11.5 0-4.5.6-8.8 1.9-12.9 1.3-4.2 3.2-7.9 5.7-11.1 2.5-3.3 5.6-5.9 9.4-7.8s8-2.9 12.9-2.9c6 0 10.5 1.4 13.4 4.1 3 2.7 4.5 6.2 4.5 10.5 0 2.8-.6 5.3-1.9 7.6s-3.2 4.3-5.7 5.9c-2.5 1.6-5.7 2.9-9.6 3.8-3.9.9-8.4 1.3-13.6 1.3h-2.4c0 .4-.1.7-.1 1v1c0 2.9.8 5.1 2.5 6.8 1.7 1.7 4 2.5 7 2.5 2.8 0 5.3-.3 7.6-1 2.3-.6 5-1.7 8.1-3.1v10.8c-2.8 1.4-5.6 2.4-8.5 3.1-3 .7-6.3 1-10.1 1zm-5-31.8h2.1c3.7 0 6.7-.4 9-1.2 2.3-.8 4-1.8 5.1-3.1 1.1-1.3 1.6-2.7 1.6-4.2s-.4-2.7-1.3-3.4c-.9-.7-2.1-1.1-3.7-1.1-1.8 0-3.5.6-5.3 1.7-1.8 1.1-3.3 2.7-4.6 4.6-1.4 1.8-2.3 4.1-2.9 6.7zM779.2 159.3l11.3-53.4h11l-1 9.9h.4c1.4-2.1 2.9-4 4.5-5.6s3.5-2.9 5.5-3.8c2-.9 4.3-1.4 6.8-1.4 3.7 0 6.5 1 8.5 2.9s3.3 4.6 4 8h.4c1.3-2.1 2.8-4 4.5-5.6 1.7-1.6 3.6-2.9 5.7-3.8 2.1-.9 4.4-1.4 6.8-1.4 4.5 0 7.8 1.4 10 4.2 2.2 2.8 3.3 6.5 3.3 11.2 0 1.2-.1 2.5-.3 4-.2 1.5-.5 3-.8 4.6l-6.3 30.4h-14.4l6.6-31.2c.3-1.1.4-2.1.6-3.1.1-1 .2-1.8.2-2.6 0-2-.4-3.5-1.2-4.4-.8-1-2-1.4-3.5-1.4-1.7 0-3.2.5-4.6 1.6s-2.7 2.5-3.8 4.4c-1.1 1.9-2.2 4.1-3 6.5-.9 2.5-1.6 5.2-2.2 8l-4.6 22.2h-14.4l6.5-31.2c.3-1.1.4-2.1.6-3.1.1-1 .2-1.8.2-2.6 0-2-.4-3.5-1.2-4.4-.8-1-2-1.4-3.5-1.4-1.6 0-3.1.5-4.5 1.6s-2.7 2.6-3.8 4.5c-1.1 1.9-2.2 4.1-3 6.6-.9 2.5-1.6 5.1-2.2 8l-4.7 22.1h-14.4zM886.4 160.2c-4.2 0-7.8-.8-11-2.3-3.2-1.5-5.6-3.8-7.4-6.8-1.8-3.1-2.7-6.9-2.7-11.5 0-4.5.6-8.8 1.9-12.9 1.3-4.2 3.2-7.9 5.7-11.1 2.5-3.3 5.6-5.9 9.4-7.8s8-2.9 12.9-2.9c6 0 10.5 1.4 13.4 4.1 3 2.7 4.5 6.2 4.5 10.5 0 2.8-.6 5.3-1.9 7.6s-3.2 4.3-5.7 5.9c-2.5 1.6-5.7 2.9-9.6 3.8-3.9.9-8.4 1.3-13.6 1.3h-2.4c0 .4-.1.7-.1 1v1c0 2.9.8 5.1 2.5 6.8 1.7 1.7 4 2.5 7 2.5 2.8 0 5.3-.3 7.6-1 2.3-.6 5-1.7 8.1-3.1v10.8c-2.8 1.4-5.6 2.4-8.5 3.1-2.9.7-6.3 1-10.1 1zm-5-31.8h2.1c3.7 0 6.7-.4 9-1.2 2.3-.8 4-1.8 5.1-3.1 1.1-1.3 1.6-2.7 1.6-4.2s-.4-2.7-1.3-3.4c-.9-.7-2.1-1.1-3.7-1.1-1.8 0-3.5.6-5.3 1.7-1.8 1.1-3.3 2.7-4.6 4.6-1.4 1.8-2.3 4.1-2.9 6.7zM930.1 160.2c-4.2 0-7.6-.9-10.1-2.7s-3.8-5-3.8-9.6c0-.8 0-1.6.1-2.5.1-.9.2-1.9.4-2.8l5.5-25.7h-7.3l1.4-7 9.4-4 6.3-11.3h9.3L939 106h13.5l-2.4 10.9h-13.5l-5.5 25.7c-.1.5-.2.9-.2 1.4 0 .5-.1.8-.1 1.1 0 1.3.4 2.2 1.1 2.7.8.5 1.8.8 3.1.8s2.6-.2 3.7-.5c1.2-.3 2.5-.7 4-1.2v10.7c-1.5.7-3.4 1.3-5.5 1.8-2 .6-4.4.8-7.1.8zM947.5 159.3l11.3-53.4h11l-1 9.9h.5c1.4-2.3 3-4.2 4.7-5.8s3.5-2.9 5.5-3.7c2-.9 4.1-1.3 6.4-1.3.8 0 1.6 0 2.5.1.9.1 1.6.2 2.1.4l-3.2 13.8c-.5-.2-1.2-.4-2-.5-.8-.2-1.8-.2-2.7-.2-1.8 0-3.5.4-5.1 1.1-1.6.7-3.1 1.8-4.5 3.2-1.4 1.4-2.6 3.2-3.6 5.3-1 2.1-1.9 4.6-2.5 7.4l-5.1 23.9h-14.3zM983.8 159.3l11.3-53.4h14.4l-11.3 53.4h-14.4zm20.8-60c-2 0-3.7-.4-5.1-1.3-1.4-.9-2.1-2.4-2.1-4.5 0-1.8.3-3.4 1-4.6.7-1.2 1.7-2.2 3-2.8 1.3-.6 2.9-1 4.7-1 1.9 0 3.6.4 5 1.2 1.4.8 2.1 2.3 2.1 4.5 0 2.5-.7 4.6-2.1 6.2s-3.6 2.3-6.5 2.3zM1025.5 160.2c-2.6 0-5-.6-7.3-1.9s-4.2-3.3-5.6-6.2-2.2-6.6-2.2-11.3c0-3.5.4-7 1.1-10.4.7-3.4 1.8-6.7 3.2-9.8 1.4-3.1 3.1-5.8 5.2-8.2 2-2.4 4.3-4.2 6.9-5.6 2.6-1.4 5.3-2.1 8.3-2.1 2.3 0 4.2.3 5.9 1 1.7.7 3.1 1.6 4.3 2.7 1.2 1.2 2.2 2.5 3 4.1h.4l2.7-6.8h11.1l-11.4 53.4h-10.7l.7-6.9h-.4c-1.3 1.6-2.7 2.9-4.2 4.1-1.5 1.2-3.2 2.1-5 2.8-1.7.8-3.7 1.1-6 1.1zm5.7-11.6c2 0 3.8-.8 5.5-2.3 1.7-1.5 3.1-3.6 4.3-6 1.2-2.5 2.1-5.1 2.6-7.9.3-1.3.4-2.6.5-3.8s.2-2.7.2-4.2c0-2.3-.6-4.1-1.8-5.6-1.2-1.5-2.8-2.2-4.9-2.2-1.4 0-2.7.5-4 1.4s-2.4 2.1-3.5 3.7-2 3.4-2.7 5.4c-.8 2-1.4 4.2-1.8 6.4-.4 2.3-.6 4.5-.6 6.8 0 2.8.5 4.9 1.6 6.3 1.1 1.3 2.6 2 4.6 2zM1099.2 160.2c-2.6 0-5-.6-7.3-1.9s-4.2-3.3-5.6-6.2-2.2-6.6-2.2-11.3c0-3.5.4-7 1.1-10.4.7-3.4 1.8-6.7 3.2-9.8 1.4-3.1 3.1-5.8 5.2-8.2 2-2.4 4.3-4.2 6.9-5.6 2.6-1.4 5.3-2.1 8.3-2.1 2.3 0 4.2.3 5.9 1 1.7.7 3.1 1.6 4.3 2.7 1.2 1.2 2.2 2.5 3 4.1h.4l2.7-6.8h11.1l-11.4 53.4h-10.7l.7-6.9h-.4c-1.3 1.6-2.7 2.9-4.2 4.1-1.5 1.2-3.2 2.1-5 2.8-1.7.8-3.7 1.1-6 1.1zm5.7-11.6c2 0 3.8-.8 5.5-2.3 1.7-1.5 3.1-3.6 4.3-6 1.2-2.5 2.1-5.1 2.6-7.9.3-1.3.4-2.6.5-3.8s.2-2.7.2-4.2c0-2.3-.6-4.1-1.8-5.6-1.2-1.5-2.8-2.2-4.9-2.2-1.4 0-2.7.5-4 1.4s-2.4 2.1-3.5 3.7-2 3.4-2.7 5.4c-.8 2-1.4 4.2-1.8 6.4-.4 2.3-.6 4.5-.6 6.8 0 2.8.5 4.9 1.6 6.3 1.1 1.3 2.6 2 4.6 2zM1144.5 159.3l-6.6-53.4h14.1l2.1 28c.1.8.1 1.8.2 3.1 0 1.3.1 2.6.1 4v3.9h.5c.4-1.1.8-2.3 1.3-3.7.5-1.4 1-2.7 1.5-3.9.5-1.3 1-2.3 1.4-3.1l14.2-28.4h15.4l-28.8 53.4h-15.4zM1197.6 160.2c-2.6 0-5-.6-7.3-1.9s-4.2-3.3-5.6-6.2-2.2-6.6-2.2-11.3c0-3.5.4-7 1.1-10.4.7-3.4 1.8-6.7 3.2-9.8 1.4-3.1 3.1-5.8 5.2-8.2 2-2.4 4.3-4.2 6.9-5.6 2.6-1.4 5.3-2.1 8.3-2.1 2.3 0 4.2.3 5.9 1 1.7.7 3.1 1.6 4.3 2.7 1.2 1.2 2.2 2.5 3 4.1h.4l2.7-6.8h11.1l-11.4 53.4h-10.7l.7-6.9h-.4c-1.3 1.6-2.7 2.9-4.2 4.1-1.5 1.2-3.2 2.1-5 2.8-1.7.8-3.7 1.1-6 1.1zm5.6-11.6c2 0 3.8-.8 5.5-2.3 1.7-1.5 3.1-3.6 4.3-6 1.2-2.5 2.1-5.1 2.6-7.9.3-1.3.4-2.6.5-3.8s.2-2.7.2-4.2c0-2.3-.6-4.1-1.8-5.6-1.2-1.5-2.8-2.2-4.9-2.2-1.4 0-2.7.5-4 1.4s-2.4 2.1-3.5 3.7-2 3.4-2.7 5.4c-.8 2-1.4 4.2-1.8 6.4-.4 2.3-.6 4.5-.6 6.8 0 2.8.5 4.9 1.6 6.3 1.2 1.3 2.7 2 4.6 2zM1233.2 159.3l11.3-53.4h11l-1 9.9h.4c1.4-2.1 2.9-4 4.5-5.6s3.5-2.9 5.5-3.8c2-.9 4.3-1.4 6.8-1.4 3.1 0 5.6.6 7.7 1.9 2.1 1.3 3.6 3 4.6 5.3s1.5 5 1.5 8.2c0 1.2-.1 2.5-.3 4-.2 1.5-.5 3-.8 4.6l-6.3 30.4h-14.4l6.5-31.2c.3-1.1.4-2.1.6-3.1.1-1 .2-1.8.2-2.6 0-2-.4-3.5-1.3-4.4s-2.1-1.4-3.9-1.4c-2.2 0-4.1.9-5.9 2.8-1.8 1.9-3.3 4.4-4.6 7.5-1.3 3.1-2.3 6.6-3.2 10.4l-4.7 22.1h-14.2zM1309.7 160.2c-3.7 0-7-.7-10-2s-5.4-3.4-7.2-6.3c-1.8-2.9-2.6-6.7-2.6-11.3 0-3.8.4-7.5 1.2-11.1.8-3.5 2-6.8 3.5-9.8 1.6-3 3.5-5.6 5.8-7.8s4.9-3.9 7.9-5.2c3-1.2 6.3-1.9 9.9-1.9 3.2 0 6 .3 8.6.9 2.5.6 4.9 1.4 7.1 2.5l-4.4 10.9c-1.7-.7-3.4-1.4-5.1-1.9-1.7-.5-3.5-.8-5.6-.8-2.3 0-4.3.7-6 2-1.8 1.3-3.3 3.1-4.5 5.3-1.2 2.2-2.2 4.7-2.8 7.4-.6 2.7-1 5.5-1 8.3 0 2 .3 3.7 1 5.1.7 1.4 1.6 2.4 2.8 3.1 1.2.7 2.7 1 4.4 1 2.4 0 4.7-.4 6.7-1.1 2.1-.7 4.2-1.7 6.4-2.8v11.7c-2.2 1.2-4.6 2.1-7.2 2.8-2.6.7-5.6 1-8.9 1zm-7.4 22.5c-1.5 0-2.9-.1-4.2-.4-1.3-.3-2.3-.5-3-.7v-8c.7.2 1.6.5 2.7.7 1.1.3 2.2.4 3.3.4 1.1 0 2-.2 2.7-.5.7-.3 1.3-.7 1.6-1.3.4-.6.5-1.3.5-2.1 0-1.1-.5-2-1.5-2.7-1-.7-2.7-1.2-5.3-1.5l4.6-7.4h8.8l-1.9 3.4c1.9.6 3.5 1.6 4.8 2.9 1.3 1.3 2 3.2 2 5.6 0 2.2-.5 4.1-1.6 5.9-1 1.7-2.7 3.1-4.9 4.2-2.1 1-5 1.5-8.6 1.5zM1347.3 160.2c-2.6 0-5-.6-7.3-1.9s-4.2-3.3-5.6-6.2-2.2-6.6-2.2-11.3c0-3.5.4-7 1.1-10.4.7-3.4 1.8-6.7 3.2-9.8 1.4-3.1 3.1-5.8 5.2-8.2 2-2.4 4.3-4.2 6.9-5.6 2.6-1.4 5.3-2.1 8.3-2.1 2.3 0 4.2.3 5.9 1 1.7.7 3.1 1.6 4.3 2.7 1.2 1.2 2.2 2.5 3 4.1h.4l2.7-6.8h11.1l-11.4 53.4h-10.7l.7-6.9h-.4c-1.3 1.6-2.7 2.9-4.2 4.1-1.5 1.2-3.2 2.1-5 2.8-1.7.8-3.8 1.1-6 1.1zm5.6-11.6c2 0 3.8-.8 5.5-2.3 1.7-1.5 3.1-3.6 4.3-6 1.2-2.5 2.1-5.1 2.6-7.9.3-1.3.4-2.6.5-3.8s.2-2.7.2-4.2c0-2.3-.6-4.1-1.8-5.6-1.2-1.5-2.8-2.2-4.9-2.2-1.4 0-2.7.5-4 1.4s-2.4 2.1-3.5 3.7-2 3.4-2.7 5.4c-.8 2-1.4 4.2-1.8 6.4-.4 2.3-.6 4.5-.6 6.8 0 2.8.5 4.9 1.6 6.3 1.2 1.3 2.7 2 4.6 2zM1400.5 160.2c-2.6 0-5-.6-7.3-1.9s-4.2-3.3-5.6-6.2-2.2-6.6-2.2-11.3c0-3.5.4-6.9 1.1-10.4.7-3.4 1.8-6.7 3.2-9.8 1.4-3.1 3.1-5.8 5.2-8.2 2-2.4 4.3-4.2 6.9-5.6 2.6-1.4 5.3-2 8.3-2 2.1 0 3.9.4 5.4 1 1.5.7 2.8 1.6 3.8 2.8 1.1 1.2 2 2.5 2.9 4h.4c0-.2 0-.9.1-2.1.1-1.2.2-2.6.4-4.2s.4-3 .7-4.4l3.6-17.1h14.4l-15.8 74.3h-10.9l.9-6.9h-.4c-1.3 1.6-2.6 2.9-4.1 4.1-1.5 1.2-3.1 2.1-4.9 2.8-1.8.8-3.8 1.1-6.1 1.1zm6-11.6c1.5 0 2.9-.4 4.1-1.2 1.2-.8 2.3-1.9 3.2-3.2.9-1.4 1.8-2.9 2.4-4.6.7-1.7 1.2-3.4 1.7-5.2.4-1.8.8-3.5 1-5.1.2-1.7.3-3.1.3-4.3 0-2.5-.6-4.6-1.8-6.1s-2.8-2.3-4.9-2.3c-1.4 0-2.7.5-4 1.4s-2.4 2.1-3.5 3.7-2 3.4-2.7 5.4c-.8 2-1.4 4.2-1.8 6.4-.4 2.3-.6 4.5-.6 6.8 0 2.8.6 4.9 1.7 6.3 1.2 1.3 2.8 2 4.9 2zM1453.7 160.2c-2.6 0-5-.6-7.3-1.9s-4.2-3.3-5.6-6.2-2.2-6.6-2.2-11.3c0-3.5.4-7 1.1-10.4.7-3.4 1.8-6.7 3.2-9.8 1.4-3.1 3.1-5.8 5.2-8.2 2-2.4 4.3-4.2 6.9-5.6 2.6-1.4 5.3-2.1 8.3-2.1 2.3 0 4.2.3 5.9 1 1.7.7 3.1 1.6 4.3 2.7 1.2 1.2 2.2 2.5 3 4.1h.4l2.7-6.8h11.1l-11.4 53.4h-10.7l.7-6.9h-.4c-1.3 1.6-2.7 2.9-4.2 4.1-1.5 1.2-3.2 2.1-5 2.8-1.7.8-3.8 1.1-6 1.1zm5.6-11.6c2 0 3.8-.8 5.5-2.3 1.7-1.5 3.1-3.6 4.3-6 1.2-2.5 2.1-5.1 2.6-7.9.3-1.3.4-2.6.5-3.8s.2-2.7.2-4.2c0-2.3-.6-4.1-1.8-5.6-1.2-1.5-2.8-2.2-4.9-2.2-1.4 0-2.7.5-4 1.4s-2.4 2.1-3.5 3.7-2 3.4-2.7 5.4c-.8 2-1.4 4.2-1.8 6.4-.4 2.3-.6 4.5-.6 6.8 0 2.8.5 4.9 1.6 6.3 1.2 1.3 2.7 2 4.6 2zM132.7 191c4.5 0 8.3 1 11.5 3 3.2 2 5.6 4.7 7.3 8.3 1.7 3.5 2.5 7.7 2.5 12.4v4.9h-36.1c.1 6.1 1.6 10.8 4.6 14 3 3.2 7.1 4.8 12.5 4.8 3.3 0 6.2-.3 8.8-.9 2.5-.6 5.2-1.5 7.9-2.7v7c-2.6 1.2-5.3 2-7.9 2.6-2.6.5-5.7.8-9.2.8-5 0-9.4-1-13.1-3.1-3.7-2.1-6.6-5.1-8.7-9-2.1-4-3.1-8.8-3.1-14.6 0-5.6.9-10.5 2.8-14.6s4.6-7.3 8-9.5c3.5-2.3 7.6-3.4 12.2-3.4zm-.1 6.5c-4.2 0-7.6 1.4-10.1 4.2-2.5 2.8-4 6.6-4.5 11.6h27.7c0-3.1-.5-5.9-1.5-8.2-.9-2.4-2.4-4.2-4.3-5.5-1.8-1.4-4.3-2.1-7.3-2.1zM186.2 244.3l-6.6-53.4h14.1l2.1 28c.1.8.1 1.8.2 3.1s.1 2.6.1 4v3.9h.5c.4-1.1.8-2.3 1.3-3.7.5-1.4 1-2.7 1.5-3.9.5-1.3 1-2.3 1.4-3.1l14.2-28.4h15.4l-28.8 53.4h-15.4zM221.7 244.3l11.3-53.4h14.4l-11.3 53.4h-14.4zm20.8-60c-2 0-3.7-.4-5.1-1.3-1.4-.9-2.1-2.4-2.1-4.5 0-1.8.3-3.4 1-4.6.7-1.2 1.7-2.2 3-2.8 1.3-.6 2.9-1 4.7-1 1.9 0 3.6.4 5 1.2 1.4.8 2.1 2.3 2.1 4.5 0 2.5-.7 4.6-2.1 6.2-1.4 1.5-3.6 2.3-6.5 2.3zM263.4 245.2c-2.6 0-5-.6-7.3-1.9s-4.2-3.3-5.6-6.2c-1.4-2.8-2.2-6.6-2.2-11.3 0-3.5.4-6.9 1.1-10.4s1.8-6.7 3.2-9.8c1.4-3.1 3.1-5.8 5.2-8.2 2-2.4 4.3-4.2 6.9-5.6 2.6-1.4 5.3-2 8.3-2 2.1 0 3.9.4 5.4 1 1.5.7 2.8 1.6 3.8 2.8 1.1 1.2 2 2.5 2.9 4h.4c0-.2 0-.9.1-2.1.1-1.2.2-2.6.4-4.2s.4-3 .7-4.4l3.6-17.1h14.4l-15.8 74.3H278l.9-6.9h-.4c-1.3 1.6-2.6 2.9-4.1 4.1-1.5 1.2-3.1 2.1-4.9 2.8-1.7.8-3.8 1.1-6.1 1.1zm6-11.6c1.5 0 2.9-.4 4.1-1.2 1.2-.8 2.3-1.9 3.2-3.2.9-1.4 1.8-2.9 2.4-4.6.7-1.7 1.2-3.4 1.7-5.2.4-1.8.8-3.5 1-5.1.2-1.7.3-3.1.3-4.3 0-2.5-.6-4.6-1.8-6.1-1.2-1.5-2.8-2.3-4.9-2.3-1.4 0-2.7.5-4 1.4-1.3.9-2.4 2.1-3.5 3.7-1 1.6-2 3.4-2.7 5.4-.8 2-1.4 4.2-1.8 6.4-.4 2.3-.6 4.5-.6 6.8 0 2.8.6 4.9 1.7 6.3 1.2 1.3 2.8 2 4.9 2zM322.6 245.2c-4.2 0-7.8-.8-11-2.3-3.2-1.5-5.6-3.8-7.4-6.8-1.8-3.1-2.7-6.9-2.7-11.5 0-4.5.6-8.8 1.9-12.9 1.3-4.2 3.2-7.9 5.7-11.1 2.5-3.3 5.6-5.9 9.4-7.8 3.7-1.9 8-2.9 12.9-2.9 6 0 10.5 1.4 13.4 4.1 3 2.7 4.5 6.2 4.5 10.5 0 2.8-.6 5.3-1.9 7.6-1.3 2.3-3.2 4.3-5.7 5.9-2.5 1.6-5.7 2.9-9.6 3.8-3.9.9-8.4 1.3-13.6 1.3h-2.4c0 .4-.1.7-.1 1v1c0 2.9.8 5.1 2.5 6.8 1.7 1.7 4 2.5 7 2.5 2.8 0 5.3-.3 7.6-1 2.3-.6 5-1.7 8.1-3.1v10.8c-2.8 1.4-5.6 2.4-8.5 3.1-2.9.7-6.2 1-10.1 1zm-4.9-31.8h2.1c3.7 0 6.7-.4 9-1.2 2.3-.8 4-1.8 5.1-3.1 1.1-1.3 1.6-2.7 1.6-4.2s-.4-2.7-1.3-3.4c-.9-.7-2.1-1.1-3.7-1.1-1.8 0-3.5.6-5.3 1.7-1.8 1.1-3.3 2.7-4.6 4.6-1.4 1.8-2.4 4.1-2.9 6.7zM371.5 245.2c-4 0-7.5-.8-10.6-2.5-3.1-1.7-5.5-4-7.2-7.1-1.7-3.1-2.6-6.7-2.6-11 0-3.8.4-7.4 1.1-10.9.7-3.5 1.9-6.6 3.4-9.5 1.5-2.9 3.4-5.4 5.7-7.6 2.3-2.1 4.9-3.8 7.9-5 3-1.2 6.4-1.8 10.2-1.8 4.1 0 7.7.8 10.7 2.5 3 1.7 5.4 4.1 7 7.2 1.7 3.2 2.5 7 2.5 11.4 0 3.6-.4 7.1-1.1 10.5-.7 3.4-1.8 6.5-3.3 9.4-1.5 2.9-3.3 5.4-5.5 7.5-2.2 2.1-4.9 3.8-7.9 5-2.9 1.3-6.4 1.9-10.3 1.9zm1.2-11.7c1.6 0 3-.4 4.3-1.2s2.5-1.9 3.5-3.4c1-1.4 1.9-3.1 2.6-5 .7-1.9 1.2-3.9 1.6-6.1.4-2.2.5-4.4.5-6.7 0-1.8-.2-3.4-.6-4.8s-1.1-2.5-2.1-3.3c-1-.8-2.3-1.2-4-1.2-1.8 0-3.3.5-4.7 1.5s-2.6 2.3-3.6 3.9-1.9 3.4-2.5 5.4c-.7 2-1.2 4.1-1.5 6.2-.3 2.1-.5 4.1-.5 6.1 0 2.9.6 5.1 1.8 6.6 1 1.3 2.8 2 5.2 2zM400.9 244.3l11.3-53.4h11l-1 9.9h.4c1.4-2.1 2.9-4 4.5-5.6 1.7-1.6 3.5-2.9 5.5-3.8 2-.9 4.3-1.4 6.8-1.4 3.7 0 6.5 1 8.5 2.9s3.3 4.6 4 8h.4c1.3-2.1 2.8-4 4.5-5.6 1.7-1.6 3.6-2.9 5.7-3.8 2.1-.9 4.4-1.4 6.8-1.4 4.5 0 7.8 1.4 10 4.2 2.2 2.8 3.3 6.5 3.3 11.2 0 1.2-.1 2.5-.3 4-.2 1.5-.5 3-.8 4.6l-6.3 30.4h-14.4l6.6-31.2c.3-1.1.4-2.1.6-3.1.1-1 .2-1.8.2-2.6 0-2-.4-3.5-1.2-4.4-.8-1-1.9-1.4-3.5-1.4-1.7 0-3.2.5-4.6 1.6-1.4 1-2.7 2.5-3.8 4.4-1.1 1.9-2.2 4.1-3 6.5-.9 2.5-1.6 5.2-2.2 8l-4.6 22.2h-14.4l6.5-31.2c.3-1.1.4-2.1.6-3.1.1-1 .2-1.8.2-2.6 0-2-.4-3.5-1.2-4.4-.8-1-1.9-1.4-3.5-1.4s-3.1.5-4.5 1.6-2.7 2.6-3.8 4.5c-1.1 1.9-2.2 4.1-3 6.6-.9 2.5-1.6 5.1-2.2 8l-4.7 22.1h-14.4zM507.4 245.2c-4 0-7.5-.8-10.6-2.5-3.1-1.7-5.5-4-7.2-7.1-1.7-3.1-2.6-6.7-2.6-11 0-3.8.4-7.4 1.1-10.9.7-3.5 1.9-6.6 3.4-9.5 1.5-2.9 3.4-5.4 5.7-7.6 2.3-2.1 4.9-3.8 7.9-5 3-1.2 6.4-1.8 10.2-1.8 4.1 0 7.7.8 10.7 2.5 3 1.7 5.4 4.1 7 7.2 1.7 3.2 2.5 7 2.5 11.4 0 3.6-.4 7.1-1.1 10.5-.7 3.4-1.8 6.5-3.3 9.4-1.5 2.9-3.3 5.4-5.5 7.5-2.2 2.1-4.9 3.8-7.9 5-3 1.3-6.4 1.9-10.3 1.9zm1.2-11.7c1.6 0 3-.4 4.3-1.2s2.5-1.9 3.5-3.4c1-1.4 1.9-3.1 2.6-5 .7-1.9 1.2-3.9 1.6-6.1.4-2.2.5-4.4.5-6.7 0-1.8-.2-3.4-.6-4.8s-1.1-2.5-2.1-3.3c-1-.8-2.3-1.2-4-1.2-1.8 0-3.3.5-4.7 1.5s-2.6 2.3-3.6 3.9-1.9 3.4-2.5 5.4c-.7 2-1.2 4.1-1.5 6.2-.3 2.1-.5 4.1-.5 6.1 0 2.9.6 5.1 1.8 6.6 1 1.3 2.8 2 5.2 2zM536.7 244.3l11.3-53.4h11l-1 9.9h.4c1.4-2.1 2.9-4 4.5-5.6 1.7-1.6 3.5-2.9 5.5-3.8 2-.9 4.3-1.4 6.8-1.4 3.1 0 5.6.6 7.7 1.9s3.6 3 4.6 5.3c1 2.3 1.5 5 1.5 8.2 0 1.2-.1 2.5-.3 4-.2 1.5-.5 3-.8 4.6l-6.3 30.4h-14.4l6.5-31.2c.3-1.1.4-2.1.6-3.1.1-1 .2-1.8.2-2.6 0-2-.4-3.5-1.3-4.4-.9-1-2.1-1.4-3.9-1.4-2.2 0-4.1.9-5.9 2.8-1.8 1.9-3.3 4.4-4.6 7.5-1.3 3.1-2.3 6.6-3.2 10.4l-4.7 22.1h-14.2zM590.9 244.3l11.3-53.4h14.4l-11.3 53.4h-14.4zm20.8-60c-2 0-3.7-.4-5.1-1.3-1.4-.9-2.1-2.4-2.1-4.5 0-1.8.3-3.4 1-4.6.7-1.2 1.7-2.2 3-2.8 1.3-.6 2.9-1 4.7-1 1.9 0 3.6.4 5 1.2 1.4.8 2.1 2.3 2.1 4.5 0 2.5-.7 4.6-2.1 6.2-1.4 1.5-3.6 2.3-6.5 2.3zM632.8 245.2c-4.2 0-7.6-.9-10.1-2.7-2.5-1.8-3.8-5-3.8-9.6 0-.8 0-1.6.1-2.5.1-.9.2-1.9.4-2.8l5.5-25.7h-7.3l1.4-7 9.4-4 6.3-11.3h9.3l-2.3 11.4h13.5l-2.4 10.9h-13.5l-5.5 25.7c-.1.5-.2.9-.2 1.4 0 .5-.1.8-.1 1.1 0 1.3.4 2.2 1.1 2.7s1.8.8 3.1.8 2.6-.2 3.7-.5 2.5-.7 4-1.2v10.7c-1.5.7-3.4 1.3-5.5 1.8s-4.4.8-7.1.8zM673.2 245.2c-4 0-7.5-.8-10.6-2.5-3.1-1.7-5.5-4-7.2-7.1-1.7-3.1-2.6-6.7-2.6-11 0-3.8.4-7.4 1.1-10.9.7-3.5 1.9-6.6 3.4-9.5 1.5-2.9 3.4-5.4 5.7-7.6 2.3-2.1 4.9-3.8 7.9-5 3-1.2 6.4-1.8 10.2-1.8 4.1 0 7.7.8 10.7 2.5 3 1.7 5.4 4.1 7 7.2 1.7 3.2 2.5 7 2.5 11.4 0 3.6-.4 7.1-1.1 10.5-.7 3.4-1.8 6.5-3.3 9.4-1.5 2.9-3.3 5.4-5.5 7.5-2.2 2.1-4.9 3.8-7.9 5-3 1.3-6.4 1.9-10.3 1.9zm1.2-11.7c1.6 0 3-.4 4.3-1.2s2.5-1.9 3.5-3.4c1-1.4 1.9-3.1 2.6-5 .7-1.9 1.2-3.9 1.6-6.1.4-2.2.5-4.4.5-6.7 0-1.8-.2-3.4-.6-4.8s-1.1-2.5-2.1-3.3c-1-.8-2.3-1.2-4-1.2-1.8 0-3.3.5-4.7 1.5-1.4 1-2.6 2.3-3.6 3.9s-1.9 3.4-2.5 5.4c-.7 2-1.2 4.1-1.5 6.2s-.5 4.1-.5 6.1c0 2.9.6 5.1 1.8 6.6.9 1.3 2.7 2 5.2 2zM702.5 244.3l11.3-53.4h11l-1 9.9h.5c1.4-2.3 3-4.2 4.7-5.8 1.7-1.6 3.5-2.9 5.5-3.7 2-.9 4.1-1.3 6.4-1.3.8 0 1.6 0 2.5.1.9.1 1.6.2 2.1.4l-3.2 13.8c-.5-.2-1.2-.4-2-.5-.8-.2-1.8-.2-2.7-.2-1.8 0-3.5.4-5.1 1.1-1.6.7-3.1 1.8-4.5 3.2-1.4 1.4-2.6 3.2-3.6 5.3s-1.9 4.6-2.5 7.4l-5.1 23.9h-14.3zM756.4 245.2c-2.6 0-5-.6-7.3-1.9s-4.2-3.3-5.6-6.2-2.2-6.6-2.2-11.3c0-3.5.4-7 1.1-10.4.7-3.4 1.8-6.7 3.2-9.8 1.4-3.1 3.1-5.8 5.2-8.2 2-2.4 4.3-4.2 6.9-5.6 2.6-1.4 5.3-2.1 8.3-2.1 2.3 0 4.2.3 5.9 1 1.7.7 3.1 1.6 4.3 2.7 1.2 1.2 2.2 2.5 3 4.1h.4l2.7-6.8h11.1L782 244.3h-10.7l.7-6.9h-.4c-1.3 1.6-2.7 2.9-4.2 4.1-1.5 1.2-3.2 2.1-5 2.8s-3.8.9-6 .9zm5.6-11.6c2 0 3.8-.8 5.5-2.3 1.7-1.5 3.1-3.6 4.3-6 1.2-2.5 2.1-5.1 2.6-7.9.3-1.3.4-2.6.5-3.8.1-1.3.2-2.7.2-4.2 0-2.3-.6-4.1-1.8-5.6s-2.8-2.2-4.9-2.2c-1.4 0-2.7.5-4 1.4-1.3.9-2.4 2.1-3.5 3.7s-2 3.4-2.7 5.4c-.8 2-1.4 4.2-1.8 6.4-.4 2.3-.6 4.5-.6 6.8 0 2.8.5 4.9 1.6 6.3 1.1 1.3 2.7 2 4.6 2zM792 244.3l11.3-53.4h11l-1 9.9h.4c1.4-2.1 2.9-4 4.5-5.6 1.7-1.6 3.5-2.9 5.5-3.8s4.3-1.4 6.8-1.4c3.7 0 6.5 1 8.5 2.9s3.3 4.6 4 8h.4c1.3-2.1 2.8-4 4.5-5.6 1.7-1.6 3.6-2.9 5.7-3.8s4.4-1.4 6.8-1.4c4.5 0 7.8 1.4 10 4.2 2.2 2.8 3.3 6.5 3.3 11.2 0 1.2-.1 2.5-.3 4-.2 1.5-.5 3-.8 4.6l-6.3 30.4h-14.4l6.6-31.2c.3-1.1.4-2.1.6-3.1.1-1 .2-1.8.2-2.6 0-2-.4-3.5-1.2-4.4-.8-1-2-1.4-3.5-1.4-1.7 0-3.2.5-4.6 1.6s-2.7 2.5-3.8 4.4c-1.1 1.9-2.2 4.1-3 6.5-.9 2.5-1.6 5.2-2.2 8l-4.6 22.2H822l6.5-31.2c.3-1.1.4-2.1.6-3.1s.2-1.8.2-2.6c0-2-.4-3.5-1.2-4.4-.8-1-2-1.4-3.5-1.4-1.6 0-3.1.5-4.5 1.6s-2.7 2.6-3.8 4.5c-1.1 1.9-2.2 4.1-3 6.6-.9 2.5-1.6 5.1-2.2 8l-4.7 22.1H792zM899.1 245.2c-4.2 0-7.8-.8-11-2.3-3.2-1.5-5.6-3.8-7.4-6.8-1.8-3.1-2.7-6.9-2.7-11.5 0-4.5.6-8.8 1.9-12.9 1.3-4.2 3.2-7.9 5.7-11.1 2.5-3.3 5.6-5.9 9.4-7.8s8-2.9 12.9-2.9c6 0 10.5 1.4 13.4 4.1 3 2.7 4.5 6.2 4.5 10.5 0 2.8-.6 5.3-1.9 7.6s-3.2 4.3-5.7 5.9c-2.5 1.6-5.7 2.9-9.6 3.8-3.9.9-8.4 1.3-13.6 1.3h-2.4c0 .4-.1.7-.1 1v1c0 2.9.8 5.1 2.5 6.8 1.7 1.7 4 2.5 7 2.5 2.8 0 5.3-.3 7.6-1 2.3-.6 5-1.7 8.1-3.1v10.8c-2.8 1.4-5.6 2.4-8.5 3.1-2.9.7-6.2 1-10.1 1zm-4.9-31.8h2.1c3.7 0 6.7-.4 9-1.2 2.3-.8 4-1.8 5.1-3.1 1.1-1.3 1.6-2.7 1.6-4.2s-.4-2.7-1.3-3.4c-.9-.7-2.1-1.1-3.7-1.1-1.8 0-3.5.6-5.3 1.7-1.8 1.1-3.3 2.7-4.6 4.6-1.4 1.8-2.4 4.1-2.9 6.7zM925.1 244.3l11.3-53.4h11l-1 9.9h.4c1.4-2.1 2.9-4 4.5-5.6 1.7-1.6 3.5-2.9 5.5-3.8s4.3-1.4 6.8-1.4c3.1 0 5.6.6 7.7 1.9s3.6 3 4.6 5.3 1.5 5 1.5 8.2c0 1.2-.1 2.5-.3 4-.2 1.5-.5 3-.8 4.6l-6.3 30.4h-14.4l6.5-31.2c.3-1.1.4-2.1.6-3.1s.2-1.8.2-2.6c0-2-.4-3.5-1.3-4.4-.9-1-2.1-1.4-3.9-1.4-2.2 0-4.1.9-5.9 2.8-1.8 1.9-3.3 4.4-4.6 7.5-1.3 3.1-2.3 6.6-3.2 10.4l-4.7 22.1h-14.2zM997 245.2c-4.2 0-7.6-.9-10.1-2.7-2.5-1.8-3.8-5-3.8-9.6 0-.8 0-1.6.1-2.5.1-.9.2-1.9.4-2.8l5.5-25.7H982l1.4-7 9.4-4 6.3-11.3h9.3l-2.3 11.4h13.5l-2.4 10.9h-13.5l-5.5 25.7c-.1.5-.2.9-.2 1.4s-.1.8-.1 1.1c0 1.3.4 2.2 1.1 2.7s1.8.8 3.1.8 2.6-.2 3.7-.5 2.5-.7 4-1.2v10.7c-1.5.7-3.4 1.3-5.5 1.8s-4.6.8-7.3.8zM1037.4 245.2c-4 0-7.5-.8-10.6-2.5s-5.5-4-7.2-7.1c-1.7-3.1-2.6-6.7-2.6-11 0-3.8.4-7.4 1.1-10.9.7-3.5 1.9-6.6 3.4-9.5 1.5-2.9 3.4-5.4 5.7-7.6 2.3-2.1 4.9-3.8 7.9-5 3-1.2 6.4-1.8 10.2-1.8 4.1 0 7.7.8 10.7 2.5 3 1.7 5.4 4.1 7 7.2 1.7 3.2 2.5 7 2.5 11.4 0 3.6-.4 7.1-1.1 10.5-.7 3.4-1.8 6.5-3.3 9.4-1.5 2.9-3.3 5.4-5.5 7.5-2.2 2.1-4.9 3.8-7.9 5-3 1.3-6.4 1.9-10.3 1.9zm1.2-11.7c1.6 0 3-.4 4.3-1.2s2.5-1.9 3.5-3.4c1-1.4 1.9-3.1 2.6-5 .7-1.9 1.2-3.9 1.6-6.1.4-2.2.5-4.4.5-6.7 0-1.8-.2-3.4-.6-4.8s-1.1-2.5-2.1-3.3c-1-.8-2.3-1.2-4-1.2-1.8 0-3.3.5-4.7 1.5-1.4 1-2.6 2.3-3.6 3.9s-1.9 3.4-2.5 5.4c-.7 2-1.2 4.1-1.5 6.2s-.5 4.1-.5 6.1c0 2.9.6 5.1 1.8 6.6 1 1.3 2.8 2 5.2 2z" class="st0"/></svg>