<svg id="Camada_2" data-name="Camada 2" xmlns="http://www.w3.org/2000/svg" viewBox="0 0 1054.95 286.45"><defs><style>.cls-1{fill:#214179;}.cls-2{fill:#63c2ce;}.cls-3{fill:#333;}</style></defs><title>loksat</title><path class="cls-1" d="M.48,41.82H17.67A22.45,22.45,0,0,1,40.13,64.28V202.06H59.62v36.08H22.46A22.46,22.46,0,0,1,0,215.68V62.89C0,51.63.48,52.71.48,41.82Z"/><path class="cls-1" d="M205,162.5c0,52.55-23.39,79.11-69.58,79.11S66.11,215.05,66.11,162.5c0-53.12,23.09-79.4,69.29-79.4S205,109.38,205,162.5Zm-99.9,0c.29,29.74,10.4,44.75,30,44.75s29.45-15.59,29.74-45.9c0-29.74-9.82-44.47-29.45-44.47C115.19,116.88,105.08,132.19,105.08,162.5Z"/><path class="cls-1" d="M257.25,60.58v84.6L304.6,90.9h46.19L298,147.49l53.42,90.65h-46.2L278,187.91q-7.36-13-14.72-13c-4,.86-6.06,3.46-6.06,7.5v55.72h-38.4V41.82h19.92C248.87,41.82,257.25,50.48,257.25,60.58Z"/><path class="cls-1" d="M417.33,210.43c16.17,0,24.26-4.62,24.26-14.44,0-7.79-13.29-14.15-39.56-18.77-33.78-6.06-51.1-21.07-51.39-45,0-32.92,26-48.51,60.92-49.09q29.44,0,46.77,13,16.89,13.43,18.19,37.24H452.27c-8.95-.29-14.73-3.46-17-9.53-2.6-6.64-10.39-10.39-23.09-10.39-15,0-22.52,4-22.52,11.84s9.81,13.86,29.73,17.61c26,5.19,43,11.83,51.4,19.63a38,38,0,0,1,10.68,27.14c0,37.53-29.45,51.39-69.87,51.39-21.37,0-37.54-4.62-47.93-13.57-11.55-8.66-17.32-21.94-17.32-39.55h39.27C386.44,204.65,398.57,210.43,417.33,210.43Z"/><path class="cls-1" d="M528.63,125.26H490.22C494.84,97,514.77,83.1,550,83.1c42.15,0,63.52,13.86,64.38,42.16v52c0,42.16-25.4,60.92-66.69,63.81-36.67,2.89-62.08-14.14-62.08-47.92.87-36.67,27.43-46.49,66.12-50.24,16.46-2,24.83-6.93,24.83-15.3-.87-8.67-8.95-13-24.83-13C538.15,114.57,530.65,118,528.63,125.26Zm48.5,50.23V161.35a166.4,166.4,0,0,1-30.61,9.24c-15.3,2.88-23.09,10.1-23.09,21.36.86,12.13,7.22,17.9,19.34,17.9C564.14,209.85,577.13,197.15,577.13,175.49Z"/><path class="cls-1" d="M676.45,112.84h-4v84.6c0,6.35,3.75,9.81,11.26,9.81h11.84v29.16a210,210,0,0,1-40.42-.29c-14.44-1.44-21.37-10.39-21.08-27.43V41.82h19.92c10.11,0,18.48,9.24,18.48,19.34V85.41h23.1v8.37A18.68,18.68,0,0,1,676.45,112.84Z"/><polygon class="cls-2" points="664.75 0 1054.95 0 777.1 286.45 777.1 162.22 845.91 92.9 745.27 92.9 664.75 0"/><path class="cls-3" d="M313.54,259.07c3.08,0,5,.38,6.68,1.48a7,7,0,0,1,3,6,6.94,6.94,0,0,1-5.62,7.06l7.9,10.83h-4.67L313.58,274h-.69V284.4H309V259.07Zm-.65,11.62h1.22c1.06,0,5.39-.12,5.39-4.14,0-3.57-3.38-3.91-5.28-3.91h-1.33Z"/><path class="cls-3" d="M355.56,278.28H344.74L342,284.4h-4.18l12.61-26.82,12,26.82h-4.18ZM354,274.64l-3.76-8.59-3.91,8.59Z"/><path class="cls-3" d="M387.15,264.69a3.92,3.92,0,0,0-3.88-2.51c-2.35,0-3.56,1.41-3.56,3,0,.76.26,2.09,2.73,3.08l2.54,1c4.68,1.9,6,4.56,6,7.44a7.8,7.8,0,0,1-8.16,8.13,7.39,7.39,0,0,1-6-2.55,8.13,8.13,0,0,1-2.13-4.93l3.84-.84a5.45,5.45,0,0,0,1.06,3.23,4,4,0,0,0,3.3,1.52,4.07,4.07,0,0,0,4.18-4.25c0-2.59-2-3.65-3.64-4.33l-2.43-1c-2.09-.87-5.17-2.62-5.17-6.42,0-3.41,2.66-6.68,7.41-6.68a7.51,7.51,0,0,1,5.09,1.71,8.7,8.7,0,0,1,1.93,2.54Z"/><path class="cls-3" d="M413.45,262.71V284.4h-3.87V262.71h-5.81v-3.64h15.49v3.64Z"/><path class="cls-3" d="M438.58,259.07c3.08,0,5.05.38,6.68,1.48a7,7,0,0,1,3,6,6.94,6.94,0,0,1-5.61,7.06l7.89,10.83h-4.67L438.62,274h-.68V284.4h-3.88V259.07Zm-.64,11.62h1.21c1.06,0,5.39-.12,5.39-4.14,0-3.57-3.38-3.91-5.27-3.91h-1.33Z"/><path class="cls-3" d="M479.7,262.71H469.59v6.42h9.8v3.64h-9.8v8H479.7v3.65h-14V259.07h14Z"/><path class="cls-3" d="M511,278.28H500.15l-2.77,6.12H493.2l12.61-26.82,12,26.82h-4.18Zm-1.56-3.64-3.76-8.59-3.91,8.59Z"/><path class="cls-3" d="M531.62,284.4l5.31-27.23,8.82,19.67,8.88-19.67,4.79,27.23h-3.95l-2.58-15.27-7.37,16.44-7.29-16.48-2.66,15.31Z"/><path class="cls-3" d="M590.08,262.71H580v6.42h9.8v3.64H580v8h10.1v3.65h-14V259.07h14Z"/><path class="cls-3" d="M606.48,284.4v-27l18.38,19.25V259.07h3.87V286L610.35,266.7v17.7Z"/><path class="cls-3" d="M653.21,262.71V284.4h-3.87V262.71h-5.82v-3.64H659v3.64Z"/><path class="cls-3" d="M698.2,271.75A13.18,13.18,0,1,1,685,258.61,12.85,12.85,0,0,1,698.2,271.75Zm-3.87,0c0-5.62-3.88-9.57-9.31-9.57s-9.3,3.95-9.3,9.57,3.87,9.57,9.3,9.57S694.33,277.37,694.33,271.75Z"/></svg>